<?xml version="1.0" encoding="UTF-8"?>
<svg xmlns="http://www.w3.org/2000/svg" xmlns:xlink="http://www.w3.org/1999/xlink" version="1.2" >
<font id="PostNoBillsColombo Bold">
<font-face  font-family="Post No Bills Colombo" units-per-em="1024" ascent="1051" descent="-480" font-style="normal" font-weight="800" font-stretch="normal" cap-height="768" x-height="512" underline-position="0" underline-thickness="0" />
<missing-glyph  horiz-adv-x="631" d="M50 -93 L50 754 L581 754 L581 -93 L50 -93 Z M262 128 Q262 154 286 163 Q292 165 298 165 Q323 165 332 140 Q334 134 334 128 Q334 103 311 94 Q304 92 298 92 Q273 92 264 115 Q262 122 262 128 Z M137 658 L137 -4 L493 -4 L493 658 L137 658 Z M200 465 Q246 521 310 522 Q390 522 420 456 Q432 429 433 398 Q433 311 362 280 Q343 272 329 272 L329 188 L268 188 L268 325 Q345 326 363 356 Q372 372 372 397 Q372 441 334 457 Q321 462 307 462 Q266 461 239 425 L200 465 Z " />
<glyph glyph-name="A" unicode="A" horiz-adv-x="499" d="M31 0 L163 587 L178 587 L224 375 L141 0 L31 0 Z M216 100 L239 209 L314 209 L206 700 L316 700 L477 0 L366 0 L344 100 L216 100 Z " />
<glyph glyph-name="AE" unicode="&#xc6;" horiz-adv-x="727" d="M42 0 L222 700 L701 700 L701 589 L463 589 L463 403 L607 403 L607 292 L463 292 L463 111 L701 111 L701 0 L352 0 L352 160 L256 160 L280 256 L352 256 L352 589 L312 589 L165 0 L42 0 Z " />
<glyph glyph-name="Aacute" unicode="&#xc1;" horiz-adv-x="499" d="M226 766 L263 918 L365 918 L299 766 L226 766 Z M31 0 L163 587 L178 587 L224 375 L141 0 L31 0 Z M216 100 L239 209 L314 209 L206 700 L316 700 L477 0 L366 0 L344 100 L216 100 Z " />
<glyph glyph-name="Abreve" unicode="&#x102;" horiz-adv-x="499" d="M175 852 L230 852 Q230 828 252 821 Q258 820 262 820 Q286 820 293 842 Q294 848 294 852 L349 852 Q349 806 309 780 Q287 766 262 766 Q213 766 187 809 Q175 830 175 852 Z M31 0 L163 587 L178 587 L224 375 L141 0 L31 0 Z M216 100 L239 209 L314 209 L206 700 L316 700 L477 0 L366 0 L344 100 L216 100 Z " />
<glyph glyph-name="Acircumflex" unicode="&#xc2;" horiz-adv-x="499" d="M159 766 L234 918 L290 918 L367 766 L298 766 L262 839 L227 766 L159 766 Z M31 0 L163 587 L178 587 L224 375 L141 0 L31 0 Z M216 100 L239 209 L314 209 L206 700 L316 700 L477 0 L366 0 L344 100 L216 100 Z " />
<glyph glyph-name="Adieresis" unicode="&#xc4;" horiz-adv-x="499" d="M126 827 Q126 865 160 882 Q173 889 187 889 Q226 889 242 853 Q248 840 248 827 Q248 788 214 772 Q201 766 187 766 Q148 766 132 801 Q126 814 126 827 Z M276 827 Q276 865 310 882 Q323 889 337 889 Q376 889 392 853 Q398 840 398 827 Q398 788 364 772 Q351 766 337 766 Q298 766 282 801 Q276 814 276 827 Z M31 0 L163 587 L178 587 L224 375 L141 0 L31 0 Z M216 100 L239 209 L314 209 L206 700 L316 700 L477 0 L366 0 L344 100 L216 100 Z " />
<glyph glyph-name="Agrave" unicode="&#xc0;" horiz-adv-x="499" d="M154 918 L256 918 L293 766 L220 766 L154 918 Z M31 0 L163 587 L178 587 L224 375 L141 0 L31 0 Z M216 100 L239 209 L314 209 L206 700 L316 700 L477 0 L366 0 L344 100 L216 100 Z " />
<glyph glyph-name="Amacron" unicode="&#x100;" horiz-adv-x="499" d="M104 766 L104 832 L420 832 L420 766 L104 766 Z M31 0 L163 587 L178 587 L224 375 L141 0 L31 0 Z M216 100 L239 209 L314 209 L206 700 L316 700 L477 0 L366 0 L344 100 L216 100 Z " />
<glyph glyph-name="Aogonek" unicode="&#x104;" horiz-adv-x="499" d="M546 -191 Q434 -191 398 -103 Q386 -73 386 -40 L463 -40 Q463 -102 523 -114 Q535 -116 546 -116 L546 -191 Z M31 0 L163 587 L178 587 L224 375 L141 0 L31 0 Z M216 100 L239 209 L314 209 L206 700 L316 700 L477 0 L366 0 L344 100 L216 100 Z " />
<glyph glyph-name="Aring" unicode="&#xc5;" horiz-adv-x="516" d="M40 0 L171 587 L187 587 L232 375 L150 0 L40 0 Z M224 100 L248 209 L323 209 L215 697 Q181 721 180 765 Q180 816 223 842 Q245 854 269 854 Q319 854 345 812 Q358 790 358 765 Q357 722 325 698 L476 0 L368 0 L345 100 L224 100 Z M235 765 Q235 741 258 733 Q264 731 269 731 Q293 731 301 754 Q303 760 303 765 Q303 789 280 797 Q274 799 269 799 Q245 799 237 776 Q235 770 235 765 Z " />
<glyph glyph-name="Atilde" unicode="&#xc3;" horiz-adv-x="499" d="M121 771 L121 855 Q160 877 191 877 Q216 877 262 854 Q297 836 322 836 Q357 837 402 864 L402 781 Q356 753 318 753 Q291 753 244 776 Q210 793 187 793 Q156 792 121 771 Z M31 0 L163 587 L178 587 L224 375 L141 0 L31 0 Z M216 100 L239 209 L314 209 L206 700 L316 700 L477 0 L366 0 L344 100 L216 100 Z " />
<glyph glyph-name="B" unicode="B" horiz-adv-x="495" d="M33 0 L144 0 L144 700 L33 700 L33 0 Z M196 0 L252 0 Q375 0 431 89 Q462 138 462 199 Q461 298 392 351 Q448 392 458 474 Q460 488 460 502 Q460 597 394 654 Q338 700 251 700 L196 700 L196 602 L237 602 Q310 602 339 542 Q349 519 349 495 Q349 428 294 407 Q273 399 248 399 L196 399 L196 302 L248 302 Q323 302 344 241 Q350 224 350 206 Q350 144 298 115 Q268 98 227 98 L196 98 L196 0 Z " />
<glyph glyph-name="C" unicode="C" horiz-adv-x="500" d="M39 181 Q39 123 82 68 Q140 -4 237 -5 L237 106 Q178 106 156 158 Q150 172 150 181 L150 518 Q150 545 175 570 Q201 593 237 594 L237 705 Q124 705 67 609 Q39 562 39 518 L39 181 Z M288 -5 Q367 -5 425 57 Q475 112 475 182 L367 208 Q367 197 366 194 Q366 173 361 158 Q353 138 335 125 Q317 112 302 109 L288 106 L288 -5 Z M288 594 Q288 594 314 586 Q348 569 361 537 Q366 522 366 503 L366 488 L475 516 Q475 593 411 653 Q354 705 288 705 L288 594 Z " />
<glyph glyph-name="Cacute" unicode="&#x106;" horiz-adv-x="500" d="M234 766 L271 918 L373 918 L307 766 L234 766 Z M39 181 Q39 123 82 68 Q140 -4 237 -5 L237 106 Q178 106 156 158 Q150 172 150 181 L150 518 Q150 545 175 570 Q201 593 237 594 L237 705 Q124 705 67 609 Q39 562 39 518 L39 181 Z M288 -5 Q367 -5 425 57 Q475 112 475 182 L367 208 Q367 197 366 194 Q366 173 361 158 Q353 138 335 125 Q317 112 302 109 L288 106 L288 -5 Z M288 594 Q288 594 314 586 Q348 569 361 537 Q366 522 366 503 L366 488 L475 516 Q475 593 411 653 Q354 705 288 705 L288 594 Z " />
<glyph glyph-name="Ccaron" unicode="&#x10c;" horiz-adv-x="500" d="M158 918 L226 918 L261 845 L297 918 L366 918 L289 766 L233 766 L158 918 Z M39 181 Q39 123 82 68 Q140 -4 237 -5 L237 106 Q178 106 156 158 Q150 172 150 181 L150 518 Q150 545 175 570 Q201 593 237 594 L237 705 Q124 705 67 609 Q39 562 39 518 L39 181 Z M288 -5 Q367 -5 425 57 Q475 112 475 182 L367 208 Q367 197 366 194 Q366 173 361 158 Q353 138 335 125 Q317 112 302 109 L288 106 L288 -5 Z M288 594 Q288 594 314 586 Q348 569 361 537 Q366 522 366 503 L366 488 L475 516 Q475 593 411 653 Q354 705 288 705 L288 594 Z " />
<glyph glyph-name="Ccedilla" unicode="&#xc7;" horiz-adv-x="500" d="M140 -191 L140 -116 Q204 -116 219 -67 Q223 -54 223 -40 L300 -40 Q300 -123 239 -164 Q199 -191 140 -191 Z M39 181 Q39 123 82 68 Q140 -4 237 -5 L237 106 Q178 106 156 158 Q150 172 150 181 L150 518 Q150 545 175 570 Q201 593 237 594 L237 705 Q124 705 67 609 Q39 562 39 518 L39 181 Z M288 -5 Q367 -5 425 57 Q475 112 475 182 L367 208 Q367 197 366 194 Q366 173 361 158 Q353 138 335 125 Q317 112 302 109 L288 106 L288 -5 Z M288 594 Q288 594 314 586 Q348 569 361 537 Q366 522 366 503 L366 488 L475 516 Q475 593 411 653 Q354 705 288 705 L288 594 Z " />
<glyph glyph-name="D" unicode="D" horiz-adv-x="472" d="M41 0 L41 700 L153 700 L153 0 L41 0 Z M205 0 L205 111 Q320 111 322 195 Q322 196 322 197 L322 503 Q322 563 255 582 Q232 589 205 589 L205 700 Q333 700 396 616 Q433 566 433 503 L433 197 Q433 58 302 15 Q257 0 205 0 Z " />
<glyph glyph-name="Dcaron" unicode="&#x10e;" horiz-adv-x="472" d="M134 918 L202 918 L237 845 L273 918 L342 918 L265 766 L209 766 L134 918 Z M41 0 L41 700 L153 700 L153 0 L41 0 Z M205 0 L205 111 Q320 111 322 195 Q322 196 322 197 L322 503 Q322 563 255 582 Q232 589 205 589 L205 700 Q333 700 396 616 Q433 566 433 503 L433 197 Q433 58 302 15 Q257 0 205 0 Z " />
<glyph glyph-name="Dcroat" unicode="&#x110;" horiz-adv-x="487" d="M26 304 L26 406 L83 406 L83 700 L194 700 L194 406 L250 406 L250 304 L194 304 L194 0 L83 0 L83 304 L26 304 Z M246 0 L246 111 Q361 111 363 195 Q363 196 363 197 L363 503 Q363 563 296 582 Q274 589 246 589 L246 700 Q373 700 437 617 Q475 566 475 503 L475 197 Q475 58 344 15 Q298 0 246 0 Z " />
<glyph glyph-name="E" unicode="E" horiz-adv-x="444" d="M41 0 L41 700 L405 700 L405 590 L153 590 L153 404 L311 404 L311 292 L153 292 L153 111 L405 111 L405 0 L41 0 Z " />
<glyph glyph-name="Eacute" unicode="&#xc9;" horiz-adv-x="444" d="M242 766 L279 918 L381 918 L315 766 L242 766 Z M41 0 L41 700 L405 700 L405 590 L153 590 L153 404 L311 404 L311 292 L153 292 L153 111 L405 111 L405 0 L41 0 Z " />
<glyph glyph-name="Ecaron" unicode="&#x11a;" horiz-adv-x="444" d="M120 918 L188 918 L223 845 L259 918 L328 918 L251 766 L195 766 L120 918 Z M41 0 L41 700 L405 700 L405 590 L153 590 L153 404 L311 404 L311 292 L153 292 L153 111 L405 111 L405 0 L41 0 Z " />
<glyph glyph-name="Ecircumflex" unicode="&#xca;" horiz-adv-x="444" d="M120 766 L195 918 L251 918 L328 766 L259 766 L223 839 L188 766 L120 766 Z M41 0 L41 700 L405 700 L405 590 L153 590 L153 404 L311 404 L311 292 L153 292 L153 111 L405 111 L405 0 L41 0 Z " />
<glyph glyph-name="Edieresis" unicode="&#xcb;" horiz-adv-x="444" d="M88 827 Q88 865 122 882 Q135 889 149 889 Q188 889 204 853 Q210 840 210 827 Q210 788 176 772 Q163 766 149 766 Q110 766 94 801 Q88 814 88 827 Z M238 827 Q238 865 272 882 Q285 889 299 889 Q338 889 354 853 Q360 840 360 827 Q360 788 326 772 Q313 766 299 766 Q260 766 244 801 Q238 814 238 827 Z M41 0 L41 700 L405 700 L405 590 L153 590 L153 404 L311 404 L311 292 L153 292 L153 111 L405 111 L405 0 L41 0 Z " />
<glyph glyph-name="Edotaccent" unicode="&#x116;" horiz-adv-x="444" d="M162 828 Q162 868 196 885 Q210 891 224 891 Q263 891 280 856 Q286 842 286 828 Q286 788 251 772 Q238 766 224 766 Q184 766 168 801 Q162 814 162 828 Z M41 0 L41 700 L405 700 L405 590 L153 590 L153 404 L311 404 L311 292 L153 292 L153 111 L405 111 L405 0 L41 0 Z " />
<glyph glyph-name="Egrave" unicode="&#xc8;" horiz-adv-x="444" d="M115 918 L217 918 L254 766 L181 766 L115 918 Z M41 0 L41 700 L405 700 L405 590 L153 590 L153 404 L311 404 L311 292 L153 292 L153 111 L405 111 L405 0 L41 0 Z " />
<glyph glyph-name="Emacron" unicode="&#x112;" horiz-adv-x="444" d="M66 766 L66 832 L382 832 L382 766 L66 766 Z M41 0 L41 700 L405 700 L405 590 L153 590 L153 404 L311 404 L311 292 L153 292 L153 111 L405 111 L405 0 L41 0 Z " />
<glyph glyph-name="Eogonek" unicode="&#x118;" horiz-adv-x="444" d="M421 -191 L421 -116 Q357 -116 342 -67 Q338 -54 338 -40 L261 -40 Q261 -123 322 -164 Q362 -191 421 -191 Z M41 0 L41 700 L405 700 L405 590 L153 590 L153 404 L311 404 L311 292 L153 292 L153 111 L405 111 L405 0 L41 0 Z " />
<glyph glyph-name="Eth" unicode="&#xd0;" horiz-adv-x="487" d="M26 304 L26 406 L83 406 L83 700 L194 700 L194 406 L250 406 L250 304 L194 304 L194 0 L83 0 L83 304 L26 304 Z M246 0 L246 111 Q361 111 363 195 Q363 196 363 197 L363 503 Q363 563 296 582 Q274 589 246 589 L246 700 Q373 700 437 617 Q475 566 475 503 L475 197 Q475 58 344 15 Q298 0 246 0 Z " />
<glyph glyph-name="Euro" unicode="&#x20ac;" horiz-adv-x="546" d="M50 265 L50 317 L96 317 L96 377 L50 377 L50 429 L96 429 L96 502 Q96 584 155 645 Q209 698 281 700 L281 590 Q228 590 210 541 Q205 526 205 511 L205 429 L408 429 L408 376 L205 376 L205 317 L408 317 L408 265 L205 265 L205 196 Q205 136 249 116 Q264 110 281 110 L281 0 Q183 4 129 85 Q99 131 96 182 L96 265 L50 265 Z M337 0 L337 110 Q373 112 395 144 Q406 161 410 182 Q410 183 410.5 186.5 Q411 190 411.5 194.5 Q412 199 412.5 204 Q413 209 413 213 Q413 217 413 220 L413 223 L519 185 Q519 114 457 54 Q401 1 337 0 Z M337 590 L337 700 Q428 699 482 628 Q519 578 519 515 L412 476 Q412 517 410 523 Q398 576 352 588 Q343 590 337 590 Z " />
<glyph glyph-name="F" unicode="F" horiz-adv-x="435" d="M41 1 L41 700 L405 700 L405 590 L153 590 L153 404 L311 404 L311 292 L153 292 L153 1 L41 1 Z " />
<glyph glyph-name="G" unicode="G" horiz-adv-x="509" d="M39 192 Q39 80 138 24 Q189 -5 236 -5 L236 106 Q211 106 182 128 Q151 154 150 192 L150 508 Q150 549 184 576 Q207 593 236 594 L236 705 Q127 705 69 611 Q43 567 39 524 L39 192 Z M287 -5 Q351 -4 414 57 Q473 117 474 176 L474 353 L287 353 L287 250 L361 250 L361 190 Q361 146 315 117 Q298 106 287 106 L287 -5 Z M287 594 Q324 593 348 559 Q362 537 364 508 L364 476 L474 516 Q474 593 410 653 Q353 705 287 705 L287 594 Z " />
<glyph glyph-name="Gbreve" unicode="&#x11e;" horiz-adv-x="509" d="M174 852 L229 852 Q229 828 251 821 Q257 820 261 820 Q285 820 292 842 Q293 848 293 852 L348 852 Q348 806 308 780 Q286 766 261 766 Q212 766 186 809 Q174 830 174 852 Z M39 192 Q39 80 138 24 Q189 -5 236 -5 L236 106 Q211 106 182 128 Q151 154 150 192 L150 508 Q150 549 184 576 Q207 593 236 594 L236 705 Q127 705 69 611 Q43 567 39 524 L39 192 Z M287 -5 Q351 -4 414 57 Q473 117 474 176 L474 353 L287 353 L287 250 L361 250 L361 190 Q361 146 315 117 Q298 106 287 106 L287 -5 Z M287 594 Q324 593 348 559 Q362 537 364 508 L364 476 L474 516 Q474 593 410 653 Q353 705 287 705 L287 594 Z " />
<glyph glyph-name="H" unicode="H" horiz-adv-x="489" d="M40 0 L40 700 L152 700 L152 407 L218 407 L218 298 L152 298 L152 0 L40 0 Z M271 298 L271 407 L337 407 L337 700 L449 700 L449 0 L337 0 L337 298 L271 298 Z " />
<glyph glyph-name="I" unicode="I" horiz-adv-x="196" d="M42 0 L42 700 L154 700 L154 0 L42 0 Z " />
<glyph glyph-name="Iacute" unicode="&#xcd;" horiz-adv-x="196" d="M61 766 L98 918 L200 918 L134 766 L61 766 Z M42 0 L42 700 L154 700 L154 0 L42 0 Z " />
<glyph glyph-name="Icircumflex" unicode="&#xce;" horiz-adv-x="196" d="M-6 766 L69 918 L125 918 L202 766 L133 766 L97 839 L62 766 L-6 766 Z M42 0 L42 700 L154 700 L154 0 L42 0 Z " />
<glyph glyph-name="Idieresis" unicode="&#xcf;" horiz-adv-x="196" d="M-38 827 Q-38 865 -4 882 Q9 889 23 889 Q62 889 78 853 Q84 840 84 827 Q84 788 50 772 Q37 766 23 766 Q-16 766 -32 801 Q-38 814 -38 827 Z M112 827 Q112 865 146 882 Q159 889 173 889 Q212 889 228 853 Q234 840 234 827 Q234 788 200 772 Q187 766 173 766 Q134 766 118 801 Q112 814 112 827 Z M42 0 L42 700 L154 700 L154 0 L42 0 Z " />
<glyph glyph-name="Idot" unicode="&#x130;" horiz-adv-x="196" d="M36 828 Q36 868 70 885 Q84 891 98 891 Q137 891 154 856 Q160 842 160 828 Q160 788 125 772 Q112 766 98 766 Q58 766 42 801 Q36 814 36 828 Z M42 0 L42 700 L154 700 L154 0 L42 0 Z " />
<glyph glyph-name="Igrave" unicode="&#xcc;" horiz-adv-x="196" d="M-5 918 L97 918 L134 766 L61 766 L-5 918 Z M42 0 L42 700 L154 700 L154 0 L42 0 Z " />
<glyph glyph-name="Imacron" unicode="&#x12a;" horiz-adv-x="196" d="M-60 766 L-60 832 L256 832 L256 766 L-60 766 Z M42 0 L42 700 L154 700 L154 0 L42 0 Z " />
<glyph glyph-name="Iogonek" unicode="&#x12e;" horiz-adv-x="196" d="M220 -189 Q108 -189 72 -101 Q60 -71 60 -38 L137 -38 Q137 -100 197 -112 Q209 -114 220 -114 L220 -189 Z M42 0 L42 700 L154 700 L154 0 L42 0 Z " />
<glyph glyph-name="J" unicode="J" horiz-adv-x="488" d="M16 193 L16 242 L128 242 L128 195 Q129 137 181 113 Q195 107 205 107 L205 -5 Q150 -5 94 37 Q17 97 16 193 Z M256 -5 L256 107 Q280 107 309 129 Q341 155 342 193 L342 700 L453 700 L453 193 Q453 82 354 25 Q302 -5 256 -5 Z " />
<glyph glyph-name="K" unicode="K" horiz-adv-x="489" d="M41 0 L41 700 L153 700 L153 0 L41 0 Z M195 341 L355 700 L468 700 L308 341 L472 0 L360 0 L195 341 Z " />
<glyph glyph-name="L" unicode="L" horiz-adv-x="434" d="M41 0 L41 700 L153 700 L153 110 L417 110 L417 0 L41 0 Z " />
<glyph glyph-name="Lacute" unicode="&#x139;" horiz-adv-x="434" d="M61 766 L98 918 L200 918 L134 766 L61 766 Z M41 0 L41 700 L153 700 L153 110 L417 110 L417 0 L41 0 Z " />
<glyph glyph-name="Lcaron" unicode="&#x13d;" horiz-adv-x="434" d="M236 553 L273 705 L374 705 L337 553 L236 553 Z M41 0 L41 700 L153 700 L153 110 L417 110 L417 0 L41 0 Z " />
<glyph glyph-name="Lslash" unicode="&#x141;" horiz-adv-x="500" d="M33 293 L129 367 L129 700 L241 700 L241 454 L316 513 L374 437 L241 334 L241 110 L505 110 L505 0 L129 0 L129 247 L92 218 L33 293 Z " />
<glyph glyph-name="M" unicode="M" horiz-adv-x="696" d="M42 0 L42 474 L51 474 L154 227 L154 0 L42 0 Z M42 628 L42 700 L131 700 L343 185 L481 497 L491 497 L491 243 L383 0 L303 0 L42 628 Z M542 0 L542 700 L654 700 L654 0 L542 0 Z " />
<glyph glyph-name="N" unicode="N" horiz-adv-x="529" d="M42 0 L42 522 L50 522 L154 355 L154 0 L42 0 Z M42 628 L42 700 L135 700 L487 135 L487 0 L433 0 L42 628 Z M375 408 L375 700 L487 700 L487 241 L479 241 L375 408 Z " />
<glyph glyph-name="Nacute" unicode="&#x143;" horiz-adv-x="529" d="M228 766 L265 918 L367 918 L301 766 L228 766 Z M42 0 L42 522 L50 522 L154 355 L154 0 L42 0 Z M42 628 L42 700 L135 700 L487 135 L487 0 L433 0 L42 628 Z M375 408 L375 700 L487 700 L487 241 L479 241 L375 408 Z " />
<glyph glyph-name="Ncaron" unicode="&#x147;" horiz-adv-x="529" d="M161 918 L229 918 L264 845 L300 918 L369 918 L292 766 L236 766 L161 918 Z M42 0 L42 522 L50 522 L154 355 L154 0 L42 0 Z M42 628 L42 700 L135 700 L487 135 L487 0 L433 0 L42 628 Z M375 408 L375 700 L487 700 L487 241 L479 241 L375 408 Z " />
<glyph glyph-name="Ntilde" unicode="&#xd1;" horiz-adv-x="529" d="M124 784 L124 868 Q163 890 194 890 Q219 890 265 867 Q300 849 325 849 Q360 850 405 877 L405 794 Q359 766 321 766 Q294 766 247 789 Q213 806 190 806 Q159 805 124 784 Z M42 0 L42 522 L50 522 L154 355 L154 0 L42 0 Z M42 628 L42 700 L135 700 L487 135 L487 0 L433 0 L42 628 Z M375 408 L375 700 L487 700 L487 241 L479 241 L375 408 Z " />
<glyph glyph-name="O" unicode="O" horiz-adv-x="525" d="M39 195 L39 524 Q39 577 84 632 Q144 704 236 705 L236 594 Q184 593 158 538 Q150 520 150 508 L150 195 Q150 141 206 115 Q223 107 235 107 L235 -5 Q178 -5 121 36 Q40 96 39 195 Z M290 -5 L290 107 Q316 107 344 131 Q374 158 375 195 L375 508 Q375 538 349 566 Q324 593 290 594 L290 705 Q391 705 452 618 Q487 568 487 524 L487 195 Q487 84 388 25 Q336 -5 290 -5 Z " />
<glyph glyph-name="OE" unicode="&#x152;" horiz-adv-x="636" d="M11 199 L11 514 Q11 605 87 658 Q147 700 233 700 L233 589 Q142 588 125 527 Q122 515 122 503 L122 199 Q123 112 232 112 L232 0 Q121 0 60 64 Q11 116 11 199 Z M285 0 L285 112 L334 112 L334 589 L285 589 L285 700 L698 700 L698 590 L446 590 L446 404 L604 404 L604 292 L446 292 L446 111 L698 111 L698 0 L285 0 Z " />
<glyph glyph-name="Oacute" unicode="&#xd3;" horiz-adv-x="525" d="M226 766 L263 918 L365 918 L299 766 L226 766 Z M39 195 L39 524 Q39 577 84 632 Q144 704 236 705 L236 594 Q184 593 158 538 Q150 520 150 508 L150 195 Q150 141 206 115 Q223 107 235 107 L235 -5 Q178 -5 121 36 Q40 96 39 195 Z M290 -5 L290 107 Q316 107 344 131 Q374 158 375 195 L375 508 Q375 538 349 566 Q324 593 290 594 L290 705 Q391 705 452 618 Q487 568 487 524 L487 195 Q487 84 388 25 Q336 -5 290 -5 Z " />
<glyph glyph-name="Ocircumflex" unicode="&#xd4;" horiz-adv-x="525" d="M158 766 L233 918 L289 918 L366 766 L297 766 L261 839 L226 766 L158 766 Z M39 195 L39 524 Q39 577 84 632 Q144 704 236 705 L236 594 Q184 593 158 538 Q150 520 150 508 L150 195 Q150 141 206 115 Q223 107 235 107 L235 -5 Q178 -5 121 36 Q40 96 39 195 Z M290 -5 L290 107 Q316 107 344 131 Q374 158 375 195 L375 508 Q375 538 349 566 Q324 593 290 594 L290 705 Q391 705 452 618 Q487 568 487 524 L487 195 Q487 84 388 25 Q336 -5 290 -5 Z " />
<glyph glyph-name="Odieresis" unicode="&#xd6;" horiz-adv-x="525" d="M126 827 Q126 865 160 882 Q173 889 187 889 Q226 889 242 853 Q248 840 248 827 Q248 788 214 772 Q201 766 187 766 Q148 766 132 801 Q126 814 126 827 Z M276 827 Q276 865 310 882 Q323 889 337 889 Q376 889 392 853 Q398 840 398 827 Q398 788 364 772 Q351 766 337 766 Q298 766 282 801 Q276 814 276 827 Z M39 195 L39 524 Q39 577 84 632 Q144 704 236 705 L236 594 Q184 593 158 538 Q150 520 150 508 L150 195 Q150 141 206 115 Q223 107 235 107 L235 -5 Q178 -5 121 36 Q40 96 39 195 Z M290 -5 L290 107 Q316 107 344 131 Q374 158 375 195 L375 508 Q375 538 349 566 Q324 593 290 594 L290 705 Q391 705 452 618 Q487 568 487 524 L487 195 Q487 84 388 25 Q336 -5 290 -5 Z " />
<glyph glyph-name="Ograve" unicode="&#xd2;" horiz-adv-x="525" d="M153 918 L255 918 L292 766 L219 766 L153 918 Z M39 195 L39 524 Q39 577 84 632 Q144 704 236 705 L236 594 Q184 593 158 538 Q150 520 150 508 L150 195 Q150 141 206 115 Q223 107 235 107 L235 -5 Q178 -5 121 36 Q40 96 39 195 Z M290 -5 L290 107 Q316 107 344 131 Q374 158 375 195 L375 508 Q375 538 349 566 Q324 593 290 594 L290 705 Q391 705 452 618 Q487 568 487 524 L487 195 Q487 84 388 25 Q336 -5 290 -5 Z " />
<glyph glyph-name="Ohungarumlaut" unicode="&#x150;" horiz-adv-x="525" d="M304 766 L341 918 L443 918 L377 766 L304 766 Z M165 766 L202 918 L304 918 L238 766 L165 766 Z M39 195 L39 524 Q39 577 84 632 Q144 704 236 705 L236 594 Q184 593 158 538 Q150 520 150 508 L150 195 Q150 141 206 115 Q223 107 235 107 L235 -5 Q178 -5 121 36 Q40 96 39 195 Z M290 -5 L290 107 Q316 107 344 131 Q374 158 375 195 L375 508 Q375 538 349 566 Q324 593 290 594 L290 705 Q391 705 452 618 Q487 568 487 524 L487 195 Q487 84 388 25 Q336 -5 290 -5 Z " />
<glyph glyph-name="Omacron" unicode="&#x14c;" horiz-adv-x="525" d="M104 766 L104 832 L420 832 L420 766 L104 766 Z M39 195 L39 524 Q39 577 84 632 Q144 704 236 705 L236 594 Q184 593 158 538 Q150 520 150 508 L150 195 Q150 141 206 115 Q223 107 235 107 L235 -5 Q178 -5 121 36 Q40 96 39 195 Z M290 -5 L290 107 Q316 107 344 131 Q374 158 375 195 L375 508 Q375 538 349 566 Q324 593 290 594 L290 705 Q391 705 452 618 Q487 568 487 524 L487 195 Q487 84 388 25 Q336 -5 290 -5 Z " />
<glyph glyph-name="Oslash" unicode="&#xd8;" horiz-adv-x="665" d="M7 122 L108 213 L108 524 Q108 577 153 632 Q213 704 305 705 L305 594 Q250 593 227 537 Q220 519 220 504 L220 314 L443 515 Q436 564 397 585 Q380 593 359 594 L359 705 Q460 705 519 619 Q527 607 533 596 L592 649 L654 579 L556 490 L556 195 Q556 84 457 25 Q405 -5 359 -5 L359 107 Q386 107 414 131 Q443 158 444 195 L444 389 L221 187 Q225 137 279 114 Q294 107 304 107 L304 -5 Q248 -5 190 36 Q151 66 130 106 L70 52 L7 122 Z " />
<glyph glyph-name="Otilde" unicode="&#xd5;" horiz-adv-x="525" d="M121 775 L121 859 Q160 881 191 881 Q216 881 262 858 Q297 840 322 840 Q357 841 402 868 L402 785 Q356 757 318 757 Q291 757 244 780 Q210 797 187 797 Q156 796 121 775 Z M39 195 L39 524 Q39 577 84 632 Q144 704 236 705 L236 594 Q184 593 158 538 Q150 520 150 508 L150 195 Q150 141 206 115 Q223 107 235 107 L235 -5 Q178 -5 121 36 Q40 96 39 195 Z M290 -5 L290 107 Q316 107 344 131 Q374 158 375 195 L375 508 Q375 538 349 566 Q324 593 290 594 L290 705 Q391 705 452 618 Q487 568 487 524 L487 195 Q487 84 388 25 Q336 -5 290 -5 Z " />
<glyph glyph-name="P" unicode="P" horiz-adv-x="480" d="M42 0 L42 700 L154 700 L154 0 L42 0 Z M205 316 L205 425 L272 425 Q345 425 351 496 Q351 502 351 508 Q344 587 272 591 L205 591 L205 700 L281 700 Q463 697 464 510 Q464 365 372 329 Q334 316 281 316 Q279 316 205 316 Z " />
<glyph glyph-name="Q" unicode="Q" horiz-adv-x="527" d="M39 195 L39 524 Q39 577 83 631 Q144 704 237 705 L237 594 Q183 593 158 539 Q150 521 150 508 L150 195 Q150 135 214 112 Q228 107 236 107 L236 -5 Q177 -5 119 37 Q40 97 39 195 Z M288 -5 L288 107 Q309 107 338 127 Q374 153 375 195 L375 508 Q375 539 348 567 Q323 593 288 594 L288 705 Q391 705 452 618 Q487 568 487 524 L487 195 Q486 96 394 34 L449 -47 L361 -107 L288 -5 Z " />
<glyph glyph-name="R" unicode="R" horiz-adv-x="506" d="M42 0 L42 700 L154 700 L154 0 L42 0 Z M205 295 L205 395 L261 395 Q348 395 357 478 Q358 487 358 495 Q358 579 282 594 Q268 596 253 596 L205 596 L205 700 L266 700 Q399 697 445 601 Q464 561 464 509 Q463 398 396 348 Q448 318 462 241 Q464 228 465 217 L482 0 L378 0 L363 178 Q355 262 318 284 Q296 295 263 295 L205 295 Z " />
<glyph glyph-name="Racute" unicode="&#x154;" horiz-adv-x="506" d="M190 766 L227 918 L329 918 L263 766 L190 766 Z M42 0 L42 700 L154 700 L154 0 L42 0 Z M205 295 L205 395 L261 395 Q348 395 357 478 Q358 487 358 495 Q358 579 282 594 Q268 596 253 596 L205 596 L205 700 L266 700 Q399 697 445 601 Q464 561 464 509 Q463 398 396 348 Q448 318 462 241 Q464 228 465 217 L482 0 L378 0 L363 178 Q355 262 318 284 Q296 295 263 295 L205 295 Z " />
<glyph glyph-name="Rcaron" unicode="&#x158;" horiz-adv-x="506" d="M110 918 L178 918 L213 845 L249 918 L318 918 L241 766 L185 766 L110 918 Z M42 0 L42 700 L154 700 L154 0 L42 0 Z M205 295 L205 395 L261 395 Q348 395 357 478 Q358 487 358 495 Q358 579 282 594 Q268 596 253 596 L205 596 L205 700 L266 700 Q399 697 445 601 Q464 561 464 509 Q463 398 396 348 Q448 318 462 241 Q464 228 465 217 L482 0 L378 0 L363 178 Q355 262 318 284 Q296 295 263 295 L205 295 Z " />
<glyph glyph-name="S" unicode="S" horiz-adv-x="487" d="M23 158 L124 194 Q130 129 195 104 Q207 100 207 100 L207 -3 Q121 -3 61 71 Q24 118 23 158 Z M31 510 Q31 619 125 674 Q169 699 207 700 L207 595 Q176 590 153 559 Q138 537 138 512 Q138 460 213 429 Q231 422 269 410 Q317 395 336 386 Q423 343 449 284 Q464 249 464 207 Q464 119 396 54 Q335 -3 259 -3 L259 100 Q297 102 327 136 Q352 166 352 205 Q352 266 267 297 Q249 304 211 315 Q169 327 154 334 Q70 371 46 429 Q31 464 31 510 Z M259 595 L259 700 Q345 700 403 626 Q434 586 436 553 L333 519 Q329 549 310.5 568 Q292 587 276 591 L259 595 Z " />
<glyph glyph-name="Sacute" unicode="&#x15a;" horiz-adv-x="487" d="M194 766 L231 918 L333 918 L267 766 L194 766 Z M23 158 L124 194 Q130 129 195 104 Q207 100 207 100 L207 -3 Q121 -3 61 71 Q24 118 23 158 Z M31 510 Q31 619 125 674 Q169 699 207 700 L207 595 Q176 590 153 559 Q138 537 138 512 Q138 460 213 429 Q231 422 269 410 Q317 395 336 386 Q423 343 449 284 Q464 249 464 207 Q464 119 396 54 Q335 -3 259 -3 L259 100 Q297 102 327 136 Q352 166 352 205 Q352 266 267 297 Q249 304 211 315 Q169 327 154 334 Q70 371 46 429 Q31 464 31 510 Z M259 595 L259 700 Q345 700 403 626 Q434 586 436 553 L333 519 Q329 549 310.5 568 Q292 587 276 591 L259 595 Z " />
<glyph glyph-name="Scaron" unicode="&#x160;" horiz-adv-x="487" d="M118 918 L186 918 L221 845 L257 918 L326 918 L249 766 L193 766 L118 918 Z M16 158 L117 194 Q123 129 188 104 Q200 100 200 100 L200 -3 Q114 -3 54 71 Q17 118 16 158 Z M24 510 Q24 619 118 674 Q162 699 200 700 L200 595 Q169 590 146 559 Q131 537 131 512 Q131 460 206 429 Q224 422 262 410 Q310 395 329 386 Q416 343 442 284 Q457 249 457 207 Q457 119 389 54 Q328 -3 252 -3 L252 100 Q290 102 320 136 Q345 166 345 205 Q345 266 260 297 Q242 304 204 315 Q162 327 147 334 Q63 371 39 429 Q24 464 24 510 Z M252 595 L252 700 Q338 700 396 626 Q427 586 429 553 L326 519 Q322 549 303.5 568 Q285 587 268 591 L252 595 Z " />
<glyph glyph-name="T" unicode="T" horiz-adv-x="466" d="M16 591 L16 700 L449 700 L449 591 L289 591 L289 0 L177 0 L177 591 L16 591 Z " />
<glyph glyph-name="Tcaron" unicode="&#x164;" horiz-adv-x="466" d="M128 918 L196 918 L231 845 L267 918 L336 918 L259 766 L203 766 L128 918 Z M16 591 L16 700 L449 700 L449 591 L289 591 L289 0 L177 0 L177 591 L16 591 Z " />
<glyph glyph-name="Thorn" unicode="&#xde;" horiz-adv-x="474" d="M41 0 L41 700 L152 700 L152 0 L41 0 Z M205 208 L205 318 L241 318 Q334 320 335 398 Q334 480 241 480 L205 480 L205 590 Q379 592 425 508 Q447 467 448 401 Q449 265 349 227 Q294 206 205 208 Z " />
<glyph glyph-name="U" unicode="U" horiz-adv-x="516" d="M34 193 L34 700 L146 700 L146 193 Q147 137 207 113 Q222 107 232 107 L232 -5 Q175 -5 117 35 Q35 94 34 193 Z M284 -5 L284 107 Q310 107 338 129 Q369 155 370 193 L370 700 L481 700 L481 193 Q481 80 381 24 Q330 -5 284 -5 Z " />
<glyph glyph-name="Uacute" unicode="&#xda;" horiz-adv-x="516" d="M219 766 L256 918 L358 918 L292 766 L219 766 Z M34 193 L34 700 L146 700 L146 193 Q147 137 207 113 Q222 107 232 107 L232 -5 Q175 -5 117 35 Q35 94 34 193 Z M284 -5 L284 107 Q310 107 338 129 Q369 155 370 193 L370 700 L481 700 L481 193 Q481 80 381 24 Q330 -5 284 -5 Z " />
<glyph glyph-name="Ucircumflex" unicode="&#xdb;" horiz-adv-x="516" d="M152 766 L227 918 L283 918 L360 766 L291 766 L255 839 L220 766 L152 766 Z M34 193 L34 700 L146 700 L146 193 Q147 137 207 113 Q222 107 232 107 L232 -5 Q175 -5 117 35 Q35 94 34 193 Z M284 -5 L284 107 Q310 107 338 129 Q369 155 370 193 L370 700 L481 700 L481 193 Q481 80 381 24 Q330 -5 284 -5 Z " />
<glyph glyph-name="Udieresis" unicode="&#xdc;" horiz-adv-x="516" d="M119 827 Q119 865 153 882 Q166 889 180 889 Q219 889 235 853 Q241 840 241 827 Q241 788 207 772 Q194 766 180 766 Q141 766 125 801 Q119 814 119 827 Z M269 827 Q269 865 303 882 Q316 889 330 889 Q369 889 385 853 Q391 840 391 827 Q391 788 357 772 Q344 766 330 766 Q291 766 275 801 Q269 814 269 827 Z M34 193 L34 700 L146 700 L146 193 Q147 137 207 113 Q222 107 232 107 L232 -5 Q175 -5 117 35 Q35 94 34 193 Z M284 -5 L284 107 Q310 107 338 129 Q369 155 370 193 L370 700 L481 700 L481 193 Q481 80 381 24 Q330 -5 284 -5 Z " />
<glyph glyph-name="Ugrave" unicode="&#xd9;" horiz-adv-x="516" d="M147 918 L249 918 L286 766 L213 766 L147 918 Z M34 193 L34 700 L146 700 L146 193 Q147 137 207 113 Q222 107 232 107 L232 -5 Q175 -5 117 35 Q35 94 34 193 Z M284 -5 L284 107 Q310 107 338 129 Q369 155 370 193 L370 700 L481 700 L481 193 Q481 80 381 24 Q330 -5 284 -5 Z " />
<glyph glyph-name="Uhungarumlaut" unicode="&#x170;" horiz-adv-x="516" d="M306 766 L343 918 L445 918 L379 766 L306 766 Z M167 766 L204 918 L306 918 L240 766 L167 766 Z M34 193 L34 700 L146 700 L146 193 Q147 137 207 113 Q222 107 232 107 L232 -5 Q175 -5 117 35 Q35 94 34 193 Z M284 -5 L284 107 Q310 107 338 129 Q369 155 370 193 L370 700 L481 700 L481 193 Q481 80 381 24 Q330 -5 284 -5 Z " />
<glyph glyph-name="Umacron" unicode="&#x16a;" horiz-adv-x="516" d="M98 766 L98 832 L414 832 L414 766 L98 766 Z M34 193 L34 700 L146 700 L146 193 Q147 137 207 113 Q222 107 232 107 L232 -5 Q175 -5 117 35 Q35 94 34 193 Z M284 -5 L284 107 Q310 107 338 129 Q369 155 370 193 L370 700 L481 700 L481 193 Q481 80 381 24 Q330 -5 284 -5 Z " />
<glyph glyph-name="Uogonek" unicode="&#x172;" horiz-adv-x="516" d="M378 -191 Q266 -191 230 -103 Q218 -73 218 -40 L295 -40 Q295 -102 355 -114 Q367 -116 378 -116 L378 -191 Z M34 193 L34 700 L146 700 L146 193 Q147 137 207 113 Q222 107 232 107 L232 -5 Q175 -5 117 35 Q35 94 34 193 Z M284 -5 L284 107 Q310 107 338 129 Q369 155 370 193 L370 700 L481 700 L481 193 Q481 80 381 24 Q330 -5 284 -5 Z " />
<glyph glyph-name="Uring" unicode="&#x16e;" horiz-adv-x="516" d="M168 862 Q168 910 210 937 Q232 950 256 950 Q304 950 331 908 Q344 886 344 862 Q344 814 302 787 Q280 774 256 774 Q208 774 181 816 Q168 838 168 862 Z M224 862 Q224 838 246 831 Q252 830 256 830 Q280 830 287 852 Q288 858 288 862 Q288 886 266 893 Q260 894 256 894 Q232 894 225 872 Q224 866 224 862 Z M34 193 L34 700 L146 700 L146 193 Q147 137 207 113 Q222 107 232 107 L232 -5 Q175 -5 117 35 Q35 94 34 193 Z M284 -5 L284 107 Q310 107 338 129 Q369 155 370 193 L370 700 L481 700 L481 193 Q481 80 381 24 Q330 -5 284 -5 Z " />
<glyph glyph-name="V" unicode="V" horiz-adv-x="473" d="M9 700 L122 700 L291 122 L250 0 L212 0 L9 700 Z M259 413 L351 700 L465 700 Q456 670 422 564 Q340 307 320 239 L310 239 L259 413 Z " />
<glyph glyph-name="W" unicode="W" horiz-adv-x="792" d="M10 700 L213 0 L251 0 L292 125 L124 700 L10 700 Z M258 418 L309 244 L319 244 Q356 372 393 502 L534 0 L572 0 L613 123 L450 700 L337 700 L258 418 Z M585 417 L636 244 L646 244 L782 700 L668 700 L585 417 Z " />
<glyph glyph-name="X" unicode="X" horiz-adv-x="451" d="M19 0 L170 361 L31 700 L140 700 L225 505 L311 700 L419 700 L281 361 L431 0 L317 0 L225 213 L134 0 L19 0 Z " />
<glyph glyph-name="Y" unicode="Y" horiz-adv-x="461" d="M17 700 L133 700 L279 253 L279 0 L164 0 L164 252 L17 700 Z M256 505 L329 700 L444 700 L316 325 L308 325 L256 505 Z " />
<glyph glyph-name="Yacute" unicode="&#xdd;" horiz-adv-x="461" d="M189 766 L226 918 L328 918 L262 766 L189 766 Z M17 700 L133 700 L279 253 L279 0 L164 0 L164 252 L17 700 Z M256 505 L329 700 L444 700 L316 325 L308 325 L256 505 Z " />
<glyph glyph-name="Ydieresis" unicode="&#x178;" horiz-adv-x="461" d="M89 827 Q89 865 123 882 Q136 889 150 889 Q189 889 205 853 Q211 840 211 827 Q211 788 177 772 Q164 766 150 766 Q111 766 95 801 Q89 814 89 827 Z M239 827 Q239 865 273 882 Q286 889 300 889 Q339 889 355 853 Q361 840 361 827 Q361 788 327 772 Q314 766 300 766 Q261 766 245 801 Q239 814 239 827 Z M17 700 L133 700 L279 253 L279 0 L164 0 L164 252 L17 700 Z M256 505 L329 700 L444 700 L316 325 L308 325 L256 505 Z " />
<glyph glyph-name="Z" unicode="Z" horiz-adv-x="432" d="M33 0 L33 110 L276 590 L33 590 L33 700 L399 700 L399 593 L156 113 L399 113 L399 0 L33 0 Z " />
<glyph glyph-name="Zacute" unicode="&#x179;" horiz-adv-x="432" d="M177 766 L214 918 L316 918 L250 766 L177 766 Z M33 0 L33 110 L276 590 L33 590 L33 700 L399 700 L399 593 L156 113 L399 113 L399 0 L33 0 Z " />
<glyph glyph-name="Zcaron" unicode="&#x17d;" horiz-adv-x="432" d="M109 918 L177 918 L212 845 L248 918 L317 918 L240 766 L184 766 L109 918 Z M33 0 L33 110 L276 590 L33 590 L33 700 L399 700 L399 593 L156 113 L399 113 L399 0 L33 0 Z " />
<glyph glyph-name="Zdotaccent" unicode="&#x17b;" horiz-adv-x="432" d="M151 828 Q151 868 185 885 Q199 891 213 891 Q252 891 269 856 Q275 842 275 828 Q275 788 240 772 Q227 766 213 766 Q173 766 157 801 Q151 814 151 828 Z M33 0 L33 110 L276 590 L33 590 L33 700 L399 700 L399 593 L156 113 L399 113 L399 0 L33 0 Z " />
<glyph glyph-name="a" unicode="a" horiz-adv-x="470" d="M29 129 Q29 73 83 34 Q130 0 195 0 L195 99 Q121 100 120 151 L120 172 Q121 192 132 200 Q140 206 226 229 Q286 245 310 258 L310 159 Q310 111 265 101 Q256 99 246 99 L246 0 Q312 1 352 34 Q387 0 440 0 L440 100 Q414 102 413 132 L413 401 Q413 461 365 508 Q317 555 245 555 L245 457 Q290 457 305 420 Q310 408 310 395 L310 374 Q310 348 200 314 Q96 282 82 274 Q30 243 29 178 L29 129 Z M37 416 L129 381 Q129 438 173 453 Q184 457 195 457 L195 555 Q126 555 76 505 Q37 465 37 416 Z " />
<glyph glyph-name="aacute" unicode="&#xe1;" horiz-adv-x="470" d="M180 617 L217 769 L319 769 L253 617 L180 617 Z M29 129 Q29 73 83 34 Q130 0 195 0 L195 99 Q121 100 120 151 L120 172 Q121 192 132 200 Q140 206 226 229 Q286 245 310 258 L310 159 Q310 111 265 101 Q256 99 246 99 L246 0 Q312 1 352 34 Q387 0 440 0 L440 100 Q414 102 413 132 L413 401 Q413 461 365 508 Q317 555 245 555 L245 457 Q290 457 305 420 Q310 408 310 395 L310 374 Q310 348 200 314 Q96 282 82 274 Q30 243 29 178 L29 129 Z M37 416 L129 381 Q129 438 173 453 Q184 457 195 457 L195 555 Q126 555 76 505 Q37 465 37 416 Z " />
<glyph glyph-name="abreve" unicode="&#x103;" horiz-adv-x="470" d="M129 703 L184 703 Q184 679 206 672 Q212 671 216 671 Q240 671 247 693 Q248 699 248 703 L303 703 Q303 657 263 631 Q241 617 216 617 Q167 617 141 660 Q129 681 129 703 Z M29 129 Q29 73 83 34 Q130 0 195 0 L195 99 Q121 100 120 151 L120 172 Q121 192 132 200 Q140 206 226 229 Q286 245 310 258 L310 159 Q310 111 265 101 Q256 99 246 99 L246 0 Q312 1 352 34 Q387 0 440 0 L440 100 Q414 102 413 132 L413 401 Q413 461 365 508 Q317 555 245 555 L245 457 Q290 457 305 420 Q310 408 310 395 L310 374 Q310 348 200 314 Q96 282 82 274 Q30 243 29 178 L29 129 Z M37 416 L129 381 Q129 438 173 453 Q184 457 195 457 L195 555 Q126 555 76 505 Q37 465 37 416 Z " />
<glyph glyph-name="acircumflex" unicode="&#xe2;" horiz-adv-x="470" d="M112 617 L187 769 L243 769 L320 617 L251 617 L215 690 L180 617 L112 617 Z M29 129 Q29 73 83 34 Q130 0 195 0 L195 99 Q121 100 120 151 L120 172 Q121 192 132 200 Q140 206 226 229 Q286 245 310 258 L310 159 Q310 111 265 101 Q256 99 246 99 L246 0 Q312 1 352 34 Q387 0 440 0 L440 100 Q414 102 413 132 L413 401 Q413 461 365 508 Q317 555 245 555 L245 457 Q290 457 305 420 Q310 408 310 395 L310 374 Q310 348 200 314 Q96 282 82 274 Q30 243 29 178 L29 129 Z M37 416 L129 381 Q129 438 173 453 Q184 457 195 457 L195 555 Q126 555 76 505 Q37 465 37 416 Z " />
<glyph glyph-name="acute" unicode="&#xb4;" horiz-adv-x="370" d="M115 605 L152 757 L254 757 L188 605 L115 605 Z " />
<glyph glyph-name="adieresis" unicode="&#xe4;" horiz-adv-x="470" d="M80 677 Q80 715 114 732 Q127 739 141 739 Q180 739 196 703 Q202 690 202 677 Q202 638 168 622 Q155 616 141 616 Q102 616 86 651 Q80 664 80 677 Z M230 677 Q230 715 264 732 Q277 739 291 739 Q330 739 346 703 Q352 690 352 677 Q352 638 318 622 Q305 616 291 616 Q252 616 236 651 Q230 664 230 677 Z M29 129 Q29 73 83 34 Q130 0 195 0 L195 99 Q121 100 120 151 L120 172 Q121 192 132 200 Q140 206 226 229 Q286 245 310 258 L310 159 Q310 111 265 101 Q256 99 246 99 L246 0 Q312 1 352 34 Q387 0 440 0 L440 100 Q414 102 413 132 L413 401 Q413 461 365 508 Q317 555 245 555 L245 457 Q290 457 305 420 Q310 408 310 395 L310 374 Q310 348 200 314 Q96 282 82 274 Q30 243 29 178 L29 129 Z M37 416 L129 381 Q129 438 173 453 Q184 457 195 457 L195 555 Q126 555 76 505 Q37 465 37 416 Z " />
<glyph glyph-name="ae" unicode="&#xe6;" horiz-adv-x="599" d="M26 113 Q26 59 82 25 Q124 1 181 1 L181 92 Q111 94 110 147 L110 162 Q109 194 179 214 Q190 217 212 223 Q273 238 290 250 L290 149 Q290 111 255 97 Q242 92 228 92 L228 1 Q303 2 336 50 Q382 0 476 0 Q599 0 646 81 Q657 99 662 120 L581 150 Q564 88 474 87 Q418 87 394 122 Q384 137 384 154 L384 219 L661 219 L661 378 Q661 439 597 483 Q550 516 499 516 L499 424 Q539 424 560 393 Q569 378 569 362 L569 313 L384 313 L384 362 Q384 395 416 413 Q432 423 452 423 L452 516 Q385 515 339 470 Q292 519 206 519 Q125 519 75 466 Q40 428 40 379 L118 357 Q118 412 175 428 Q192 432 209 432 Q259 432 282 401 Q290 388 290 376 L290 354 Q290 327 225 305 Q213 301 187 293 Q87 263 55 234 Q26 208 26 173 L26 113 Z " />
<glyph glyph-name="agrave" unicode="&#xe0;" horiz-adv-x="470" d="M113 769 L215 769 L252 617 L179 617 L113 769 Z M29 129 Q29 73 83 34 Q130 0 195 0 L195 99 Q121 100 120 151 L120 172 Q121 192 132 200 Q140 206 226 229 Q286 245 310 258 L310 159 Q310 111 265 101 Q256 99 246 99 L246 0 Q312 1 352 34 Q387 0 440 0 L440 100 Q414 102 413 132 L413 401 Q413 461 365 508 Q317 555 245 555 L245 457 Q290 457 305 420 Q310 408 310 395 L310 374 Q310 348 200 314 Q96 282 82 274 Q30 243 29 178 L29 129 Z M37 416 L129 381 Q129 438 173 453 Q184 457 195 457 L195 555 Q126 555 76 505 Q37 465 37 416 Z " />
<glyph glyph-name="amacron" unicode="&#x101;" horiz-adv-x="470" d="M64 617 L64 683 L380 683 L380 617 L64 617 Z M29 129 Q29 73 83 34 Q130 0 195 0 L195 99 Q121 100 120 151 L120 172 Q121 192 132 200 Q140 206 226 229 Q286 245 310 258 L310 159 Q310 111 265 101 Q256 99 246 99 L246 0 Q312 1 352 34 Q387 0 440 0 L440 100 Q414 102 413 132 L413 401 Q413 461 365 508 Q317 555 245 555 L245 457 Q290 457 305 420 Q310 408 310 395 L310 374 Q310 348 200 314 Q96 282 82 274 Q30 243 29 178 L29 129 Z M37 416 L129 381 Q129 438 173 453 Q184 457 195 457 L195 555 Q126 555 76 505 Q37 465 37 416 Z " />
<glyph glyph-name="ampersand" unicode="&#x26;" horiz-adv-x="652" d="M319 137 Q287 109 249 109 Q194 109 162 153 Q144 179 144 210 Q145 255 183 288 L109 373 Q34 309 33 213 Q33 113 110 50 Q171 0 249 0 Q330 1 391 53 L319 137 Z M371 533 Q368 572 338 592 Q328 598 317 601 L317 706 Q400 695 445 624 Q464 593 471 559 L371 533 Z M262 601 Q228 596 214 562 Q208 548 208 533 Q208 502 241 465 Q243 463 243 463 L429 251 Q461 287 467 339 Q467 343 467 345 L580 345 Q572 244 507 162 L619 34 L506 4 L162 396 Q112 456 106 507 Q105 519 105 532 Q105 617 173 669 Q212 699 262 706 L262 601 Z " />
<glyph glyph-name="anusvara" unicode="&#xd82;" horiz-adv-x="463" d="M256 45 L256 149 Q313 149 322 207 Q325 224 325 248 L325 311 Q325 386 291 403 Q276 410 256 410 L256 514 L278 514 Q406 514 429 371 Q433 343 433 311 L433 248 Q433 83 327 52 Q304 45 278 45 L256 45 Z M185 45 Q57 45 34 188 Q30 216 30 248 L30 311 Q30 476 136 507 Q159 514 185 514 L206 514 L206 410 Q148 410 139 349 Q137 333 137 311 L137 248 Q137 170 175 155 Q189 149 206 149 L206 45 L185 45 Z " />
<glyph glyph-name="aogonek" unicode="&#x105;" horiz-adv-x="470" d="M479 -191 Q367 -191 331 -103 Q319 -73 319 -40 L396 -40 Q396 -102 456 -114 Q468 -116 479 -116 L479 -191 Z M29 129 Q29 73 83 34 Q130 0 195 0 L195 99 Q121 100 120 151 L120 172 Q121 192 132 200 Q140 206 226 229 Q286 245 310 258 L310 159 Q310 111 265 101 Q256 99 246 99 L246 0 Q312 1 352 34 Q387 0 440 0 L440 100 Q414 102 413 132 L413 401 Q413 461 365 508 Q317 555 245 555 L245 457 Q290 457 305 420 Q310 408 310 395 L310 374 Q310 348 200 314 Q96 282 82 274 Q30 243 29 178 L29 129 Z M37 416 L129 381 Q129 438 173 453 Q184 457 195 457 L195 555 Q126 555 76 505 Q37 465 37 416 Z " />
<glyph glyph-name="approxequal" unicode="&#x2248;" horiz-adv-x="568" d="M50 192 L50 297 Q111 332 163 332 Q206 332 272 297 Q337 262 375 259 Q382 259 387 259 Q445 260 518 304 L518 201 Q442 155 381 155 Q334 155 265 192 Q193 226 157 228 Q105 227 50 192 Z M50 402 L50 507 Q111 542 163 542 Q206 542 272 507 Q337 472 375 469 Q382 469 387 469 Q445 470 518 514 L518 411 Q442 365 381 365 Q334 365 265 402 Q193 436 157 438 Q105 437 50 402 Z " />
<glyph glyph-name="aring" unicode="&#xe5;" horiz-adv-x="470" d="M132 713 Q132 761 174 788 Q196 801 220 801 Q268 801 295 759 Q308 737 308 713 Q308 665 266 638 Q244 625 220 625 Q172 625 145 667 Q132 689 132 713 Z M188 713 Q188 689 210 682 Q216 681 220 681 Q244 681 251 703 Q252 709 252 713 Q252 737 230 744 Q224 745 220 745 Q196 745 189 723 Q188 717 188 713 Z M29 129 Q29 73 83 34 Q130 0 195 0 L195 99 Q121 100 120 151 L120 172 Q121 192 132 200 Q140 206 226 229 Q286 245 310 258 L310 159 Q310 111 265 101 Q256 99 246 99 L246 0 Q312 1 352 34 Q387 0 440 0 L440 100 Q414 102 413 132 L413 401 Q413 461 365 508 Q317 555 245 555 L245 457 Q290 457 305 420 Q310 408 310 395 L310 374 Q310 348 200 314 Q96 282 82 274 Q30 243 29 178 L29 129 Z M37 416 L129 381 Q129 438 173 453 Q184 457 195 457 L195 555 Q126 555 76 505 Q37 465 37 416 Z " />
<glyph glyph-name="asciicircum" unicode="&#x5e;" horiz-adv-x="483" d="M57 460 L206 756 L277 756 L426 460 L326 460 L240 632 L156 460 L57 460 Z " />
<glyph glyph-name="asciitilde" unicode="&#x7e;" horiz-adv-x="628" d="M80 286 L80 391 Q141 426 193 426 Q236 426 302 391 Q367 356 405 353 Q412 353 417 353 Q475 354 548 398 L548 295 Q472 249 411 249 Q364 249 295 286 Q223 320 187 322 Q135 321 80 286 Z " />
<glyph glyph-name="asterisk" unicode="&#x2a;" horiz-adv-x="333" d="M23 695 L59 745 L134 697 L134 785 L196 785 L196 694 L275 745 L311 695 L217 632 L310 568 L274 518 L196 574 L196 478 L134 478 L134 573 L58 521 L23 571 L116 633 L23 695 Z " />
<glyph glyph-name="at" unicode="&#x40;" horiz-adv-x="793" d="M23 309 Q23 469 132 581 Q246 697 423 704 Q433 704 443 704 Q572 704 665 630 Q768 547 769 412 Q769 232 649 161 Q594 129 531 129 Q488 129 461 162 Q455 171 452 178 Q419 132 347 131 Q285 131 245 192 Q217 237 217 293 Q217 410 305 473 Q355 509 408 509 Q466 508 500 471 L502 469 L510 494 L581 494 L533 308 Q526 283 525 266 Q523 238 544 230 Q549 228 555 228 Q599 228 633 271 Q673 322 673 412 Q673 510 584 570 Q519 613 445 613 Q312 613 217 527 Q121 439 120 311 Q120 152 229 70 Q305 12 411 12 Q549 13 667 95 L708 20 Q629 -49 498 -70 Q457 -77 418 -77 Q231 -77 122 38 Q23 143 23 309 Z " />
<glyph glyph-name="atilde" unicode="&#xe3;" horiz-adv-x="470" d="M78 634 L78 718 Q117 740 148 740 Q173 740 219 717 Q254 699 279 699 Q314 700 359 727 L359 644 Q313 616 275 616 Q248 616 201 639 Q167 656 144 656 Q113 655 78 634 Z M29 129 Q29 73 83 34 Q130 0 195 0 L195 99 Q121 100 120 151 L120 172 Q121 192 132 200 Q140 206 226 229 Q286 245 310 258 L310 159 Q310 111 265 101 Q256 99 246 99 L246 0 Q312 1 352 34 Q387 0 440 0 L440 100 Q414 102 413 132 L413 401 Q413 461 365 508 Q317 555 245 555 L245 457 Q290 457 305 420 Q310 408 310 395 L310 374 Q310 348 200 314 Q96 282 82 274 Q30 243 29 178 L29 129 Z M37 416 L129 381 Q129 438 173 453 Q184 457 195 457 L195 555 Q126 555 76 505 Q37 465 37 416 Z " />
<glyph glyph-name="b" unicode="b" horiz-adv-x="455" d="M41 0 L41 711 L151 711 L151 0 L41 0 Z M201 0 L201 103 L261 103 Q297 103 315 136 Q321 146 321 153 L321 401 Q321 422 297 439 Q280 450 262 451 L201 451 L201 554 L262 554 Q347 554 397 481 Q424 442 425 405 L425 151 Q425 105 386 58 Q336 1 261 0 L201 0 Z " />
<glyph glyph-name="backslash" unicode="&#x5c;" horiz-adv-x="359" d="M41 716 L143 716 L318 -23 L215 -23 L41 716 Z " />
<glyph glyph-name="bar" unicode="&#x7c;" horiz-adv-x="185" d="M50 -134 L50 754 L135 754 L135 -134 L50 -134 Z " />
<glyph glyph-name="braceleft" unicode="&#x7b;" horiz-adv-x="271" d="M15 348 Q58 366 67 377 Q76 389 77 408 L77 519 Q77 677 149 716 Q184 735 251 735 L251 654 Q204 654 191 623 Q179 593 179 469 L179 383 Q177 358 139 348 Q178 334 179 304 L179 207 Q179 80 208 54 Q222 42 251 42 L251 -38 Q168 -37 135 -14 Q77 30 77 176 L77 290 Q77 315 46 332 Q42 335 31 340 Q20 345 15 348 Z " />
<glyph glyph-name="braceright" unicode="&#x7d;" horiz-adv-x="271" d="M20 -38 L20 42 Q62 42 76 74 Q92 110 92 208 L92 304 Q94 335 132 348 Q93 359 92 384 L92 469 Q91 595 79 623 Q65 654 20 654 L20 735 Q111 735 148 696 Q194 646 194 519 L194 408 Q195 376 226 361 Q232 358 256 348 Q212 325 207 321 Q194 308 194 290 L194 176 Q194 15 118 -22 Q85 -38 20 -38 Z " />
<glyph glyph-name="bracketleft" unicode="&#x5b;" horiz-adv-x="235" d="M50 -36 L50 739 L211 739 L211 650 L156 650 L153 53 L211 53 L211 -36 L50 -36 Z " />
<glyph glyph-name="bracketright" unicode="&#x5d;" horiz-adv-x="230" d="M24 -36 L24 53 L82 53 L79 650 L24 650 L24 739 L185 739 L185 -36 L24 -36 Z " />
<glyph glyph-name="breve" unicode="&#x2d8;" horiz-adv-x="244" d="M35 526 L90 526 Q90 502 112 495 Q118 494 122 494 Q146 494 153 516 Q154 522 154 526 L209 526 Q209 480 169 454 Q147 440 122 440 Q73 440 47 483 Q35 503 35 526 Z " />
<glyph glyph-name="brokenbar" unicode="&#xa6;" horiz-adv-x="190" d="M42 -138 L42 218 L140 218 L140 -138 L42 -138 Z M42 405 L42 761 L140 761 L140 405 L42 405 Z " />
<glyph glyph-name="bullet" unicode="&#x2022;" horiz-adv-x="352" d="M52 344 Q52 411 106 448 Q138 470 176 470 Q242 470 279 416 Q300 383 300 344 Q300 278 247 241 Q215 220 176 220 Q111 220 74 273 Q52 305 52 344 Z " />
<glyph glyph-name="c" unicode="c" horiz-adv-x="449" d="M38 151 Q38 99 79 54 Q129 0 211 0 L211 102 Q159 102 146 137 Q143 144 143 151 L143 402 Q143 429 172 444 Q189 453 211 453 L211 554 Q113 554 63 476 Q39 439 38 404 L38 151 Z M256 452 Q304 452 314 407 Q316 399 316 391 L316 363 L414 400 Q414 474 354 521 Q310 554 256 554 L256 452 Z M256 -1 Q327 -3 381 52 Q426 98 426 154 L328 191 L328 164 Q323 102 256 101 L256 -1 Z " />
<glyph glyph-name="cacute" unicode="&#x107;" horiz-adv-x="449" d="M196 614 L233 766 L335 766 L269 614 L196 614 Z M38 151 Q38 99 79 54 Q129 0 211 0 L211 102 Q159 102 146 137 Q143 144 143 151 L143 402 Q143 429 172 444 Q189 453 211 453 L211 554 Q113 554 63 476 Q39 439 38 404 L38 151 Z M256 452 Q304 452 314 407 Q316 399 316 391 L316 363 L414 400 Q414 474 354 521 Q310 554 256 554 L256 452 Z M256 -1 Q327 -3 381 52 Q426 98 426 154 L328 191 L328 164 Q323 102 256 101 L256 -1 Z " />
<glyph glyph-name="caron" unicode="&#x2c7;" horiz-adv-x="270" d="M31 666 L99 666 L134 593 L170 666 L239 666 L162 514 L106 514 L31 666 Z " />
<glyph glyph-name="ccaron" unicode="&#x10d;" horiz-adv-x="449" d="M129 766 L197 766 L232 693 L268 766 L337 766 L260 614 L204 614 L129 766 Z M38 151 Q38 99 79 54 Q129 0 211 0 L211 102 Q159 102 146 137 Q143 144 143 151 L143 402 Q143 429 172 444 Q189 453 211 453 L211 554 Q113 554 63 476 Q39 439 38 404 L38 151 Z M256 452 Q304 452 314 407 Q316 399 316 391 L316 363 L414 400 Q414 474 354 521 Q310 554 256 554 L256 452 Z M256 -1 Q327 -3 381 52 Q426 98 426 154 L328 191 L328 164 Q323 102 256 101 L256 -1 Z " />
<glyph glyph-name="ccedilla" unicode="&#xe7;" horiz-adv-x="449" d="M113 -191 L113 -116 Q177 -116 192 -67 Q196 -54 196 -40 L273 -40 Q273 -123 212 -164 Q172 -191 113 -191 Z M38 151 Q38 99 79 54 Q129 0 211 0 L211 102 Q159 102 146 137 Q143 144 143 151 L143 402 Q143 429 172 444 Q189 453 211 453 L211 554 Q113 554 63 476 Q39 439 38 404 L38 151 Z M256 452 Q304 452 314 407 Q316 399 316 391 L316 363 L414 400 Q414 474 354 521 Q310 554 256 554 L256 452 Z M256 -1 Q327 -3 381 52 Q426 98 426 154 L328 191 L328 164 Q323 102 256 101 L256 -1 Z " />
<glyph glyph-name="cedilla" unicode="&#xb8;" horiz-adv-x="418" d="M123 -28 L123 47 Q187 47 202 96 Q206 109 206 123 L283 123 Q283 40 222 -1 Q182 -28 123 -28 Z " />
<glyph glyph-name="cent" unicode="&#xa2;" horiz-adv-x="446" d="M255 29 L255 -84 L301 -84 L301 5 Q372 25 407 86 Q426 119 426 154 L328 191 L328 184 Q328 177 328 170 L327 163 Q324 116 278 104 Q267 101 256 101 L256 29 L255 29 Z M255 637 L255 524 L256 524 L256 450 Q294 450 310 418 Q315 405 316 391 L316 362 L414 398 Q414 471 354 518 Q329 537 301 546 L301 637 L255 637 Z M165 637 L165 548 Q89 529 53 458 Q39 428 38 402 L38 151 Q38 98 80 53 Q114 16 165 5 L165 -84 L210 -84 L210 102 Q166 103 148 139 Q143 149 143 158 L143 391 Q143 426 175 443 Q191 451 210 451 L210 637 L165 637 Z " />
<glyph glyph-name="circumflex" unicode="&#x2c6;" horiz-adv-x="270" d="M31 514 L106 666 L162 666 L239 514 L170 514 L134 587 L99 514 L31 514 Z " />
<glyph glyph-name="colon" unicode="&#x3a;" horiz-adv-x="222" d="M50 105 Q50 143 84 160 Q97 167 111 167 Q149 167 166 133 Q172 119 172 105 Q172 68 139 52 Q125 45 111 45 Q72 45 56 79 Q50 92 50 105 Z M50 395 Q50 433 84 450 Q97 457 111 457 Q149 457 166 423 Q172 409 172 395 Q172 358 139 342 Q125 335 111 335 Q72 335 56 369 Q50 382 50 395 Z " />
<glyph glyph-name="comma" unicode="&#x2c;" horiz-adv-x="233" d="M48 -23 L85 129 L186 129 L149 -23 L48 -23 Z " />
<glyph glyph-name="copyright" unicode="&#xa9;" horiz-adv-x="807" d="M35 339 Q35 179 146 68 Q242 -27 369 -38 Q380 -39 389 -39 L389 36 Q272 40 188 131 Q107 221 107 339 Q107 477 207 568 Q290 643 389 644 L389 717 Q287 717 190 646 Q63 553 39 400 Q35 370 35 339 Z M263 236 Q263 187 299 149 Q334 112 389 112 L389 185 Q352 185 339 221 Q336 229 336 236 L336 441 Q336 467 358 484 Q372 493 389 493 L389 566 Q312 566 277 496 Q263 468 263 442 L263 236 Z M424 -39 Q548 -36 649 53 Q763 154 776 305 Q777 318 777 330 Q777 504 656 618 Q563 705 448 716 Q435 717 424 717 L424 644 Q528 643 610 563 Q705 470 705 334 Q705 216 620 127 Q536 40 424 36 L424 -39 Z M424 112 Q478 112 516 161 Q542 195 542 232 L470 258 L470 240 Q470 201 441 188 Q432 184 424 184 L424 112 Z M424 493 Q452 492 465 462 Q470 449 470 435 L470 419 L541 446 Q541 502 493 540 Q460 566 424 566 L424 493 Z " />
<glyph glyph-name="currency" unicode="&#xa4;" horiz-adv-x="632" d="M41 182 L131 264 Q129 268 129 284 L129 445 Q129 458 131 467 L40 548 L98 614 L174 548 Q220 595 293 595 L293 500 Q243 500 229 460 Q226 450 226 442 L226 286 Q226 253 258 236 Q274 228 293 228 L293 133 Q219 134 173 183 L98 117 L41 182 Z M334 133 L334 227 Q380 227 394 266 Q398 276 398 285 L398 442 Q398 476 367 493 Q352 500 334 500 L334 595 Q403 594 449 547 L524 614 L582 548 L490 466 Q493 460 493 446 L493 284 Q493 271 490 264 L581 182 L523 117 L449 182 Q404 133 334 133 Z " />
<glyph glyph-name="d" unicode="d" horiz-adv-x="451" d="M30 151 L30 404 Q31 455 75 501 Q124 552 192 553 L250 553 L250 449 L192 449 Q156 449 139 416 Q134 406 134 399 L134 153 Q134 131 160 114 Q176 103 194 103 L250 103 L250 0 L194 0 Q103 0 54 79 Q30 118 30 151 Z M300 0 L300 711 L410 711 L410 0 L300 0 Z " />
<glyph glyph-name="dagger" unicode="&#x2020;" horiz-adv-x="453" d="M26 462 L26 564 L171 564 L171 764 L282 764 L282 564 L427 564 L427 462 L282 462 L282 -56 L171 -56 L171 462 L26 462 Z " />
<glyph glyph-name="daggerdbl" unicode="&#x2021;" horiz-adv-x="453" d="M26 143 L26 245 L171 245 L171 463 L26 463 L26 565 L171 565 L171 764 L283 764 L283 565 L427 565 L427 463 L283 463 L283 245 L427 245 L427 143 L283 143 L283 -56 L171 -56 L171 143 L26 143 Z " />
<glyph glyph-name="dcaron" unicode="&#x10f;" horiz-adv-x="451" d="M497 589 L534 741 L635 741 L598 589 L497 589 Z M30 151 L30 404 Q31 455 75 501 Q124 552 192 553 L250 553 L250 449 L192 449 Q156 449 139 416 Q134 406 134 399 L134 153 Q134 131 160 114 Q176 103 194 103 L250 103 L250 0 L194 0 Q103 0 54 79 Q30 118 30 151 Z M300 0 L300 711 L410 711 L410 0 L300 0 Z " />
<glyph glyph-name="dslash" unicode="&#x111;" horiz-adv-x="414" d="M29 141 L29 377 Q30 426 73 470 Q118 515 180 516 L236 516 L236 421 L180 421 Q144 420 128 389 Q124 380 124 373 L124 143 Q124 122 150 105 Q165 95 182 95 L236 95 L236 0 L182 0 Q97 0 51 75 Q29 111 29 141 Z M205 575 L205 654 L283 654 L283 711 L384 711 L384 654 L448 654 L448 575 L384 575 L384 0 L283 0 L283 575 L205 575 Z " />
<glyph glyph-name="degree" unicode="&#xb0;" horiz-adv-x="274" d="M35 583 Q35 638 82 669 Q108 685 137 685 Q192 685 223 638 Q239 612 239 583 Q239 528 192 497 Q166 481 137 481 Q82 481 51 528 Q35 554 35 583 Z M99 583 Q99 556 124 547 Q131 545 137 545 Q165 545 174 571 Q176 577 176 583 Q176 611 150 620 Q144 622 137 622 Q111 622 102 597 Q99 590 99 583 Z " />
<glyph glyph-name="dieresis" unicode="&#xa8;" horiz-adv-x="382" d="M55 678 Q55 716 89 733 Q102 740 116 740 Q155 740 171 704 Q177 691 177 678 Q177 639 143 623 Q130 617 116 617 Q77 617 61 652 Q55 665 55 678 Z M205 678 Q205 716 239 733 Q252 740 266 740 Q305 740 321 704 Q327 691 327 678 Q327 639 293 623 Q280 617 266 617 Q227 617 211 652 Q205 665 205 678 Z " />
<glyph glyph-name="divide" unicode="&#xf7;" horiz-adv-x="650" d="M77 241 L77 342 L527 342 L527 241 L77 241 Z M246 464 Q246 504 281 522 Q295 529 310 529 Q350 529 368 493 Q375 479 375 464 Q375 424 339 406 Q325 399 310 399 Q272 399 254 433 Q246 448 246 464 Z M246 144 Q246 184 281 202 Q295 209 310 209 Q350 209 368 173 Q375 159 375 144 Q375 104 339 86 Q325 79 310 79 Q272 79 254 113 Q246 128 246 144 Z " />
<glyph glyph-name="dollar" unicode="&#x24;" horiz-adv-x="493" d="M26 158 L127 194 Q135 129 199 104 Q210 100 210 100 L210 -47 L151 -47 L151 9 Q82 33 44 102 Q27 133 26 158 Z M34 510 Q34 616 126 671 Q139 679 151 684 L151 750 L210 750 L210 595 Q179 590 156 559 Q141 537 141 512 Q142 462 210 435 L210 315 Q175 326 157 334 Q73 371 49 429 Q34 464 34 510 Z M262 -47 L262 100 Q300 102 330 136 Q355 166 355 205 Q355 262 277 292 Q270 294 262 297 L262 414 Q308 401 339 386 Q426 343 452 284 Q467 249 467 207 Q467 119 398 55 Q363 23 321 8 L321 -47 L262 -47 Z M262 595 L262 750 L321 750 L321 686 Q388 660 426 588 Q436 567 439 553 L335 519 Q330 549 311.5 568 Q293 587 278 591 L262 595 Z " />
<glyph glyph-name="dotaccent" unicode="&#x2d9;" horiz-adv-x="202" d="M39 678 Q39 718 73 735 Q87 741 101 741 Q140 741 157 706 Q163 692 163 678 Q163 638 128 622 Q115 616 101 616 Q61 616 45 651 Q39 664 39 678 Z " />
<glyph glyph-name="dotlessi" unicode="&#x131;" horiz-adv-x="174" d="M38 0 L38 516 L136 516 L136 0 L38 0 Z " />
<glyph glyph-name="dottedcircle" unicode="&#x25cc;" horiz-adv-x="636" d="M154 484 Q154 516 183 528 Q192 532 202 532 Q234 532 246 502 Q250 494 250 484 Q250 451 221 439 Q211 435 202 435 Q170 435 158 465 Q154 475 154 484 Z M68 398 Q68 430 98 442 Q106 446 116 446 Q149 446 161 417 Q165 408 165 398 Q165 366 135 354 Q125 350 116 350 Q84 350 72 379 Q68 389 68 398 Z M154 72 Q154 105 183 117 Q193 121 202 121 Q234 121 246 91 Q250 81 250 72 Q250 40 221 28 Q212 24 202 24 Q170 24 158 54 Q154 62 154 72 Z M68 158 Q68 190 98 202 Q106 206 116 206 Q149 206 161 177 Q165 168 165 158 Q165 126 135 114 Q125 110 116 110 Q84 110 72 139 Q68 149 68 158 Z M394 72 Q394 105 423 117 Q433 121 442 121 Q474 121 486 91 Q490 81 490 72 Q490 40 461 28 Q452 24 442 24 Q410 24 398 54 Q394 62 394 72 Z M479 158 Q479 190 509 202 Q519 206 528 206 Q560 206 572 177 Q576 168 576 158 Q576 126 546 114 Q537 110 528 110 Q495 110 483 139 Q479 148 479 158 Z M479 398 Q479 430 509 442 Q519 446 528 446 Q560 446 572 417 Q576 408 576 398 Q576 366 546 354 Q538 350 528 350 Q495 350 483 379 Q479 388 479 398 Z M394 484 Q394 516 423 528 Q432 532 442 532 Q474 532 486 502 Q490 494 490 484 Q490 451 461 439 Q451 435 442 435 Q410 435 398 465 Q394 475 394 484 Z M512 278 Q512 310 541 322 Q551 326 560 326 Q592 326 604 297 Q608 287 608 278 Q608 246 579 234 Q569 230 560 230 Q528 230 516 259 Q512 269 512 278 Z M274 40 Q274 72 303 84 Q313 88 322 88 Q354 88 366 59 Q370 49 370 40 Q370 8 341 -4 Q331 -8 322 -8 Q290 -8 278 21 Q274 31 274 40 Z M36 278 Q36 310 65 322 Q75 326 84 326 Q116 326 128 297 Q132 287 132 278 Q132 246 103 234 Q93 230 84 230 Q52 230 40 259 Q36 269 36 278 Z M274 516 Q274 548 303 560 Q313 564 322 564 Q354 564 366 535 Q370 525 370 516 Q370 484 341 472 Q331 468 322 468 Q290 468 278 497 Q274 507 274 516 Z " />
<glyph glyph-name="e" unicode="e" horiz-adv-x="475" d="M38 151 L38 405 Q40 454 83 500 Q136 553 211 554 L211 454 Q172 454 152 419 Q145 407 145 397 L145 337 L335 337 L335 396 Q335 438 289 451 Q276 455 263 455 L263 554 Q334 554 389 505 Q435 461 436 406 L436 234 L145 234 L145 151 Q145 125 174 108 Q192 98 213 98 L213 0 Q120 0 66 75 Q38 116 38 151 Z M263 0 L263 99 Q321 99 343 148 Q346 155 348 161 L437 129 Q419 61 356 24 Q313 0 263 0 Z " />
<glyph glyph-name="eacute" unicode="&#xe9;" horiz-adv-x="475" d="M201 614 L238 766 L340 766 L274 614 L201 614 Z M38 151 L38 405 Q40 454 83 500 Q136 553 211 554 L211 454 Q172 454 152 419 Q145 407 145 397 L145 337 L335 337 L335 396 Q335 438 289 451 Q276 455 263 455 L263 554 Q334 554 389 505 Q435 461 436 406 L436 234 L145 234 L145 151 Q145 125 174 108 Q192 98 213 98 L213 0 Q120 0 66 75 Q38 116 38 151 Z M263 0 L263 99 Q321 99 343 148 Q346 155 348 161 L437 129 Q419 61 356 24 Q313 0 263 0 Z " />
<glyph glyph-name="ecaron" unicode="&#x11b;" horiz-adv-x="475" d="M133 766 L201 766 L236 693 L272 766 L341 766 L264 614 L208 614 L133 766 Z M38 151 L38 405 Q40 454 83 500 Q136 553 211 554 L211 454 Q172 454 152 419 Q145 407 145 397 L145 337 L335 337 L335 396 Q335 438 289 451 Q276 455 263 455 L263 554 Q334 554 389 505 Q435 461 436 406 L436 234 L145 234 L145 151 Q145 125 174 108 Q192 98 213 98 L213 0 Q120 0 66 75 Q38 116 38 151 Z M263 0 L263 99 Q321 99 343 148 Q346 155 348 161 L437 129 Q419 61 356 24 Q313 0 263 0 Z " />
<glyph glyph-name="ecircumflex" unicode="&#xea;" horiz-adv-x="475" d="M133 614 L208 766 L264 766 L341 614 L272 614 L236 687 L201 614 L133 614 Z M38 151 L38 405 Q40 454 83 500 Q136 553 211 554 L211 454 Q172 454 152 419 Q145 407 145 397 L145 337 L335 337 L335 396 Q335 438 289 451 Q276 455 263 455 L263 554 Q334 554 389 505 Q435 461 436 406 L436 234 L145 234 L145 151 Q145 125 174 108 Q192 98 213 98 L213 0 Q120 0 66 75 Q38 116 38 151 Z M263 0 L263 99 Q321 99 343 148 Q346 155 348 161 L437 129 Q419 61 356 24 Q313 0 263 0 Z " />
<glyph glyph-name="edieresis" unicode="&#xeb;" horiz-adv-x="475" d="M101 674 Q101 712 135 729 Q148 736 162 736 Q201 736 217 700 Q223 687 223 674 Q223 635 189 619 Q176 613 162 613 Q123 613 107 648 Q101 661 101 674 Z M251 674 Q251 712 285 729 Q298 736 312 736 Q351 736 367 700 Q373 687 373 674 Q373 635 339 619 Q326 613 312 613 Q273 613 257 648 Q251 661 251 674 Z M38 151 L38 405 Q40 454 83 500 Q136 553 211 554 L211 454 Q172 454 152 419 Q145 407 145 397 L145 337 L335 337 L335 396 Q335 438 289 451 Q276 455 263 455 L263 554 Q334 554 389 505 Q435 461 436 406 L436 234 L145 234 L145 151 Q145 125 174 108 Q192 98 213 98 L213 0 Q120 0 66 75 Q38 116 38 151 Z M263 0 L263 99 Q321 99 343 148 Q346 155 348 161 L437 129 Q419 61 356 24 Q313 0 263 0 Z " />
<glyph glyph-name="edotaccent" unicode="&#x117;" horiz-adv-x="475" d="M175 676 Q175 716 209 733 Q223 739 237 739 Q276 739 293 704 Q299 690 299 676 Q299 636 264 620 Q251 614 237 614 Q197 614 181 649 Q175 662 175 676 Z M38 151 L38 405 Q40 454 83 500 Q136 553 211 554 L211 454 Q172 454 152 419 Q145 407 145 397 L145 337 L335 337 L335 396 Q335 438 289 451 Q276 455 263 455 L263 554 Q334 554 389 505 Q435 461 436 406 L436 234 L145 234 L145 151 Q145 125 174 108 Q192 98 213 98 L213 0 Q120 0 66 75 Q38 116 38 151 Z M263 0 L263 99 Q321 99 343 148 Q346 155 348 161 L437 129 Q419 61 356 24 Q313 0 263 0 Z " />
<glyph glyph-name="egrave" unicode="&#xe8;" horiz-adv-x="475" d="M134 766 L236 766 L273 614 L200 614 L134 766 Z M38 151 L38 405 Q40 454 83 500 Q136 553 211 554 L211 454 Q172 454 152 419 Q145 407 145 397 L145 337 L335 337 L335 396 Q335 438 289 451 Q276 455 263 455 L263 554 Q334 554 389 505 Q435 461 436 406 L436 234 L145 234 L145 151 Q145 125 174 108 Q192 98 213 98 L213 0 Q120 0 66 75 Q38 116 38 151 Z M263 0 L263 99 Q321 99 343 148 Q346 155 348 161 L437 129 Q419 61 356 24 Q313 0 263 0 Z " />
<glyph glyph-name="eight" unicode="8" horiz-adv-x="500" d="M221 -1 Q144 -1 86 62 Q33 121 33 198 Q33 303 100 347 Q102 348 103 349 Q45 386 35 472 Q34 485 34 498 Q34 590 105 652 Q159 699 222 699 L222 597 Q165 591 145 534 Q138 515 138 495 Q138 434 185 410 Q201 402 221 400 L221 298 Q163 292 143 243 Q136 225 136 204 Q136 136 189 110 Q204 103 221 101 L221 -1 Z M278 -1 L278 101 Q337 108 357 163 Q364 182 364 204 Q364 267 309 290 Q294 296 279 298 L279 400 Q339 405 357 462 Q362 478 362 495 Q362 553 321 582 Q301 594 278 597 L278 699 Q353 699 411 636 Q466 576 466 498 Q466 404 406 356 Q401 352 397 349 Q464 299 467 198 Q467 106 397 45 Q342 -1 278 -1 Z " />
<glyph glyph-name="ellipsis" unicode="&#x2026;" horiz-adv-x="624" d="M36 40 Q36 77 69 94 Q83 101 97 101 Q134 101 150 67 Q157 54 157 40 Q157 1 123 -15 Q110 -21 97 -21 Q58 -21 42 14 Q36 27 36 40 Z M252 40 Q252 77 285 94 Q298 101 312 101 Q349 101 366 67 Q373 54 373 40 Q373 1 338 -15 Q325 -21 312 -21 Q275 -21 259 12 Q252 26 252 40 Z M467 40 Q467 77 500 94 Q513 101 527 101 Q564 101 581 67 Q588 54 588 40 Q588 1 553 -15 Q540 -21 527 -21 Q490 -21 474 12 Q467 26 467 40 Z " />
<glyph glyph-name="emacron" unicode="&#x113;" horiz-adv-x="475" d="M79 614 L79 680 L395 680 L395 614 L79 614 Z M38 151 L38 405 Q40 454 83 500 Q136 553 211 554 L211 454 Q172 454 152 419 Q145 407 145 397 L145 337 L335 337 L335 396 Q335 438 289 451 Q276 455 263 455 L263 554 Q334 554 389 505 Q435 461 436 406 L436 234 L145 234 L145 151 Q145 125 174 108 Q192 98 213 98 L213 0 Q120 0 66 75 Q38 116 38 151 Z M263 0 L263 99 Q321 99 343 148 Q346 155 348 161 L437 129 Q419 61 356 24 Q313 0 263 0 Z " />
<glyph glyph-name="emdash" unicode="&#x2014;" horiz-adv-x="906" d="M26 243 L26 344 L880 344 L880 243 L26 243 Z " />
<glyph glyph-name="endash" unicode="&#x2013;" horiz-adv-x="532" d="M26 243 L26 344 L506 344 L506 243 L26 243 Z " />
<glyph glyph-name="eogonek" unicode="&#x119;" horiz-adv-x="475" d="M362 -191 L362 -116 Q298 -116 283 -67 Q279 -54 279 -40 L202 -40 Q202 -123 263 -164 Q303 -191 362 -191 Z M38 151 L38 405 Q40 454 83 500 Q136 553 211 554 L211 454 Q172 454 152 419 Q145 407 145 397 L145 337 L335 337 L335 396 Q335 438 289 451 Q276 455 263 455 L263 554 Q334 554 389 505 Q435 461 436 406 L436 234 L145 234 L145 151 Q145 125 174 108 Q192 98 213 98 L213 0 Q120 0 66 75 Q38 116 38 151 Z M263 0 L263 99 Q321 99 343 148 Q346 155 348 161 L437 129 Q419 61 356 24 Q313 0 263 0 Z " />
<glyph glyph-name="equal" unicode="&#x3d;" horiz-adv-x="418" d="M50 156 L50 258 L368 258 L368 156 L50 156 Z M50 325 L50 427 L368 427 L368 325 L50 325 Z " />
<glyph glyph-name="estimated" unicode="&#x212e;" horiz-adv-x="531" d="M231 -2 Q140 -2 79 68 Q30 125 30 200 L30 503 Q30 595 101 656 Q158 705 231 705 L231 595 Q175 591 152 536 Q141 510 141 476 L141 385 L376 385 L376 476 Q376 561 318 587 Q302 594 286 595 L286 705 Q376 705 437 636 Q487 577 487 503 L487 275 L141 275 L141 228 Q141 140 201 116 Q216 110 231 109 L231 -2 Z M286 -2 L286 109 Q335 111 362 153 Q373 169 376 189 L486 161 Q476 80 400 32 Q347 -2 286 -2 Z " />
<glyph glyph-name="eth" unicode="&#xf0;" horiz-adv-x="420" d="M28 141 L28 376 Q28 422 70 465 Q119 516 192 516 L192 421 Q142 421 128 380 Q125 371 125 363 L125 154 Q125 118 158 102 Q174 94 192 94 L192 -1 Q100 -1 51 73 Q28 109 28 141 Z M192 658 L192 714 Q282 697 332 638 L385 655 L401 603 L363 591 Q392 529 392 440 L392 141 Q392 94 351 50 Q304 0 233 -1 L233 94 Q280 94 294 134 Q297 144 297 152 L297 366 Q297 404 260 417 Q247 421 233 421 L233 516 Q269 516 294 500 Q292 540 282 566 L223 549 L207 600 L258 616 Q236 639 192 658 Z " />
<glyph glyph-name="exclam" unicode="&#x21;" horiz-adv-x="212" d="M45 44 Q45 82 79 99 Q92 106 106 106 Q144 106 161 72 Q167 58 167 44 Q167 6 132 -10 Q119 -16 106 -16 Q67 -16 51 18 Q45 31 45 44 Z M55 166 L55 700 L158 700 L158 166 L55 166 Z " />
<glyph glyph-name="exclamdown" unicode="&#xa1;" horiz-adv-x="214" d="M21 493 Q21 532 56 550 Q71 558 86 558 Q126 558 144 522 Q151 508 151 493 Q151 455 117 437 Q102 429 86 429 Q48 429 29 463 Q21 478 21 493 Z M33 -168 L33 385 L140 385 L140 -168 L33 -168 Z " />
<glyph glyph-name="f" unicode="f" horiz-adv-x="298" d="M19 403 L19 507 L87 507 L87 556 Q87 606 124 653 Q170 710 242 711 L293 711 L269 608 L242 608 Q199 599 194 556 L194 507 L264 507 L264 403 L194 403 L194 0 L87 0 L87 403 L19 403 Z " />
<glyph glyph-name="fi" unicode="&#xfb01;" horiz-adv-x="494" d="M38 411 L101 411 L101 0 L199 0 L199 411 L318 411 L318 0 L416 0 L416 504 L199 504 L199 552 Q199 596 239 602 Q241 602 243 602 L269 602 L291 696 L244 696 Q160 695 119 617 Q101 582 101 552 L101 505 L38 505 L38 411 Z M306 616 Q306 580 338 564 Q352 557 366 557 Q402 557 419 589 Q426 602 426 616 Q426 652 394 669 Q380 676 366 676 Q330 676 313 644 Q306 630 306 616 Z " />
<glyph glyph-name="five" unicode="5" horiz-adv-x="520" d="M44 354 L73 700 L430 700 L430 597 L169 596 L154 429 Q191 447 226 447 L226 349 Q166 344 137 299 L44 354 Z M278 0 L278 100 Q337 108 367 158 Q385 188 385 224 Q385 300 323 335 Q300 347 278 349 L278 447 Q402 445 457 344 Q487 290 487 223 Q487 103 399 40 Q345 2 278 0 Z M33 156 L129 179 Q141 128 194 109 Q210 104 224 103 L224 -1 Q142 -1 81 62 Q40 105 33 156 Z " />
<glyph glyph-name="fl" unicode="&#xfb02;" horiz-adv-x="434" d="M38 411 L101 411 L101 0 L199 0 L199 411 L264 411 L264 505 L199 504 L199 552 Q199 577 217 592 Q229 601 245 602 L320 602 L320 0 L421 0 L421 696 L244 696 Q160 695 119 617 Q101 582 101 552 L101 505 L38 505 L38 411 Z " />
<glyph glyph-name="florin" unicode="&#x192;" horiz-adv-x="382" d="M26 -168 L48 -82 L96 -82 Q134 -82 140 -46 Q141 -41 141 -38 L141 411 L78 411 L78 504 L141 504 L141 547 Q141 598 182 645 Q228 695 295 696 L356 696 L334 602 L303 602 Q249 601 240 557 Q239 551 239 545 L239 503 L305 504 L305 411 L239 411 L239 -30 Q239 -112 178 -148 Q143 -168 94 -168 L26 -168 Z " />
<glyph glyph-name="four" unicode="4" horiz-adv-x="494" d="M23 143 L23 246 L242 621 L242 422 L138 246 L242 246 L242 143 L23 143 Z M296 0 L296 701 L407 701 L407 246 L461 246 L461 143 L407 143 L407 0 L296 0 Z " />
<glyph glyph-name="fraction" unicode="&#x2044;" horiz-adv-x="533" d="M18 -1 L450 701 L515 701 L88 -1 L18 -1 Z " />
<glyph glyph-name="g" unicode="g" horiz-adv-x="449" d="M23 -187 L48 -89 L241 -89 Q288 -87 305 -50 Q309 -42 309 -36 L309 24 Q269 6 243 5 L243 104 Q287 104 304 138 Q309 148 309 157 L309 407 Q309 434 278 451 Q261 460 243 460 L243 559 Q278 559 309 540 L309 559 L412 559 L412 -36 Q412 -79 373 -126 Q322 -186 248 -187 L23 -187 Z M33 155 L33 411 Q34 458 75 504 Q125 558 200 559 L200 460 Q157 460 139 424 Q134 415 134 408 L134 156 Q134 130 163 114 Q180 105 200 105 L200 5 Q107 6 57 84 Q33 122 33 155 Z " />
<glyph glyph-name="gbreve" unicode="&#x11f;" horiz-adv-x="449" d="M131 706 L186 706 Q186 682 208 675 Q214 674 218 674 Q242 674 249 696 Q250 702 250 706 L305 706 Q305 660 265 634 Q243 620 218 620 Q169 620 143 663 Q131 684 131 706 Z M23 -187 L48 -89 L241 -89 Q288 -87 305 -50 Q309 -42 309 -36 L309 24 Q269 6 243 5 L243 104 Q287 104 304 138 Q309 148 309 157 L309 407 Q309 434 278 451 Q261 460 243 460 L243 559 Q278 559 309 540 L309 559 L412 559 L412 -36 Q412 -79 373 -126 Q322 -186 248 -187 L23 -187 Z M33 155 L33 411 Q34 458 75 504 Q125 558 200 559 L200 460 Q157 460 139 424 Q134 415 134 408 L134 156 Q134 130 163 114 Q180 105 200 105 L200 5 Q107 6 57 84 Q33 122 33 155 Z " />
<glyph glyph-name="germandbls" unicode="&#xdf;" horiz-adv-x="522" d="M26 0 L26 457 Q27 545 38 583 Q75 704 226 705 Q391 705 405 549 Q406 534 406 518 L406 405 L346 406 Q312 402 306 370 Q305 366 305 364 Q305 335 355 313 Q371 306 391 299 Q495 262 496 158 Q496 65 420 23 Q378 0 327 0 L199 0 L199 88 L319 88 Q377 90 396 126 Q402 139 402 153 Q402 190 368 209 Q359 214 338 224 Q318 233 308 238 Q247 268 228 303 Q212 332 212 371 Q212 450 291 481 Q303 486 315 489 L315 501 Q315 592 254 606 Q241 609 225 609 Q130 607 129 498 L129 0 L26 0 Z " />
<glyph glyph-name="grave" unicode="&#x60;" horiz-adv-x="291" d="M41 757 L143 757 L180 605 L107 605 L41 757 Z " />
<glyph glyph-name="greater" unicode="&#x3e;" horiz-adv-x="420" d="M33 79 L33 181 L247 292 L33 396 L33 500 L387 318 L387 263 L33 79 Z " />
<glyph glyph-name="greaterequal" unicode="&#x2265;" horiz-adv-x="457" d="M30 151 L30 253 L274 360 L30 466 L30 567 L427 385 L427 335 L30 151 Z M29 15 L29 102 L427 102 L427 15 L29 15 Z " />
<glyph glyph-name="guillemotleft" unicode="&#xab;" horiz-adv-x="462" d="M22 265 L22 315 L233 471 L233 367 L125 292 L233 210 L233 108 L22 265 Z M233 265 L233 315 L444 471 L444 367 L336 292 L444 210 L444 108 L233 265 Z " />
<glyph glyph-name="guillemotright" unicode="&#xbb;" horiz-adv-x="457" d="M15 114 L15 212 L129 292 L15 364 L15 465 L226 318 L226 262 L15 114 Z M226 114 L226 212 L340 292 L226 364 L226 465 L437 318 L437 262 L226 114 Z " />
<glyph glyph-name="guilsinglleft" unicode="&#x2039;" horiz-adv-x="338" d="M41 292 L172 500 L296 500 L165 292 L296 79 L172 79 L41 292 Z " />
<glyph glyph-name="guilsinglright" unicode="&#x203a;" horiz-adv-x="338" d="M41 79 L172 292 L41 500 L166 500 L297 292 L166 79 L41 79 Z " />
<glyph glyph-name="h" unicode="h" horiz-adv-x="465" d="M41 -5 L41 711 L141 711 L141 520 Q175 541 216 541 L216 442 Q175 442 150 406 Q142 394 142 384 L142 -5 L41 -5 Z M264 442 L264 541 Q359 541 407 473 Q432 436 432 394 L432 -5 L331 -5 L331 384 Q331 414 304 431 Q286 442 264 442 Z " />
<glyph glyph-name="hungarumlaut" unicode="&#x2dd;" horiz-adv-x="329" d="M189 605 L226 757 L328 757 L262 605 L189 605 Z M50 605 L87 757 L189 757 L123 605 L50 605 Z " />
<glyph glyph-name="hyphen" unicode="&#x2d;" horiz-adv-x="410" d="M47 243 L47 344 L363 344 L363 243 L47 243 Z " />
<glyph glyph-name="i" unicode="i" horiz-adv-x="214" d="M48 631 Q48 668 81 684 Q94 690 107 690 Q145 690 161 657 Q167 644 167 631 Q167 595 133 579 Q120 573 107 573 Q71 573 54 605 Q48 617 48 631 Z M55 0 L55 533 L162 533 L162 0 L55 0 Z " />
<glyph glyph-name="iacute" unicode="&#xed;" horiz-adv-x="174" d="M51 614 L88 766 L190 766 L124 614 L51 614 Z M38 0 L38 516 L136 516 L136 0 L38 0 Z " />
<glyph glyph-name="icircumflex" unicode="&#xee;" horiz-adv-x="174" d="M-17 614 L58 766 L114 766 L191 614 L122 614 L86 687 L51 614 L-17 614 Z M38 0 L38 516 L136 516 L136 0 L38 0 Z " />
<glyph glyph-name="idieresis" unicode="&#xef;" horiz-adv-x="174" d="M-49 674 Q-49 712 -15 729 Q-2 736 12 736 Q51 736 67 700 Q73 687 73 674 Q73 635 39 619 Q26 613 12 613 Q-27 613 -43 648 Q-49 661 -49 674 Z M101 674 Q101 712 135 729 Q148 736 162 736 Q201 736 217 700 Q223 687 223 674 Q223 635 189 619 Q176 613 162 613 Q123 613 107 648 Q101 661 101 674 Z M38 0 L38 516 L136 516 L136 0 L38 0 Z " />
<glyph glyph-name="igrave" unicode="&#xec;" horiz-adv-x="174" d="M-16 766 L86 766 L123 614 L50 614 L-16 766 Z M38 0 L38 516 L136 516 L136 0 L38 0 Z " />
<glyph glyph-name="imacron" unicode="&#x12b;" horiz-adv-x="174" d="M-71 614 L-71 680 L245 680 L245 614 L-71 614 Z M38 0 L38 516 L136 516 L136 0 L38 0 Z " />
<glyph glyph-name="infinity" unicode="&#x221e;" horiz-adv-x="798" d="M235 0 L235 95 Q271 96 284 120 L349 261 L285 397 Q272 421 235 422 L235 517 Q314 517 357 462 Q365 452 370 441 L402 370 L433 440 Q459 494 525 511 Q546 516 568 516 L568 422 Q531 421 518 397 L454 261 L519 121 Q533 96 568 95 L568 0 Q483 0 441 68 Q439 73 437 76 L402 154 L366 75 Q330 8 252 1 Q244 0 235 0 Z M194 0 Q102 0 53 74 Q30 110 30 142 L30 377 Q30 423 72 466 Q121 517 194 517 L194 422 Q144 422 130 381 Q127 372 127 364 L127 155 Q127 118 161 102 Q176 95 194 95 L194 0 Z M609 -1 L609 94 Q653 94 670 132 Q675 143 675 153 L675 363 Q675 404 637 418 Q624 422 609 422 L609 516 Q698 516 745 444 Q769 408 769 376 L769 141 Q769 95 729 51 Q681 0 609 -1 Z " />
<glyph glyph-name="integral" unicode="&#x222b;" horiz-adv-x="325" d="M22 -141 Q42 -146 72 -125 Q126 -88 127 -3 L127 625 Q127 738 214 789 Q260 816 303 812 L303 758 Q281 764 251 744 Q200 709 199 625 L199 -3 Q199 -116 114 -170 Q67 -199 22 -195 L22 -141 Z " />
<glyph glyph-name="iogonek" unicode="&#x12f;" horiz-adv-x="214" d="M230 -190 Q118 -190 82 -102 Q70 -72 70 -39 L147 -39 Q147 -101 207 -113 Q219 -115 230 -115 L230 -190 Z M48 631 Q48 668 81 684 Q94 690 107 690 Q145 690 161 657 Q167 644 167 631 Q167 595 133 579 Q120 573 107 573 Q71 573 54 605 Q48 617 48 631 Z M55 0 L55 533 L162 533 L162 0 L55 0 Z " />
<glyph glyph-name="j" unicode="j" horiz-adv-x="222" d="M63 533 L170 533 L170 -40 Q170 -87 130 -135 Q81 -193 7 -194 L-42 -194 L-18 -92 L6 -92 Q43 -90 59 -55 Q63 -47 63 -40 L63 533 Z M57 631 Q57 668 90 684 Q103 690 116 690 Q152 690 169 657 Q175 644 175 631 Q175 595 142 579 Q130 573 116 573 Q80 573 63 605 Q57 617 57 631 Z " />
<glyph glyph-name="k" unicode="k" horiz-adv-x="488" d="M41 0 L41 711 L151 711 L151 0 L41 0 Z M178 279 L345 554 L467 554 L297 279 L468 0 L347 0 L178 279 Z " />
<glyph glyph-name="l" unicode="l" horiz-adv-x="198" d="M42 0 L42 711 L156 711 L156 0 L42 0 Z " />
<glyph glyph-name="lacute" unicode="&#x13a;" horiz-adv-x="198" d="M62 802 L99 954 L201 954 L135 802 L62 802 Z M42 0 L42 711 L156 711 L156 0 L42 0 Z " />
<glyph glyph-name="lcaron" unicode="&#x13e;" horiz-adv-x="325" d="M192 589 L229 741 L330 741 L293 589 L192 589 Z M34 0 L34 711 L148 711 L148 0 L34 0 Z " />
<glyph glyph-name="less" unicode="&#x3c;" horiz-adv-x="420" d="M33 263 L33 318 L387 500 L387 396 L173 292 L387 181 L387 79 L33 263 Z " />
<glyph glyph-name="lessequal" unicode="&#x2264;" horiz-adv-x="457" d="M423 151 L26 334 L26 385 L423 567 L423 465 L178 359 L423 252 L423 151 Z M29 15 L29 102 L427 102 L427 15 L29 15 Z " />
<glyph glyph-name="logicalnot" unicode="&#xac;" horiz-adv-x="529" d="M40 339 L40 432 L479 432 L479 208 L383 208 L383 339 L40 339 Z " />
<glyph glyph-name="lozenge" unicode="&#x25ca;" horiz-adv-x="418" d="M-3 352 L181 706 L235 706 L418 352 L234 -2 L179 -2 L-3 352 Z M101 352 L205 138 L316 352 L206 566 L101 352 Z " />
<glyph glyph-name="lslash" unicode="&#x142;" horiz-adv-x="424" d="M168 -6 L282 -6 L282 359 L385 439 L326 514 L282 480 L282 704 L168 704 L168 391 L59 306 L118 231 L168 270 L168 -6 Z " />
<glyph glyph-name="m" unicode="m" horiz-adv-x="744" d="M38 0 L38 404 Q38 456 81 503 Q131 556 208 556 L208 450 Q158 450 148 406 Q146 398 146 390 L146 0 L38 0 Z M254 450 L254 556 Q326 555 372 510 Q419 556 490 556 L490 450 Q438 450 428 406 Q426 398 426 390 L426 0 L318 0 L318 390 Q318 435 277 447 Q266 450 254 450 Z M535 450 L535 556 Q630 556 681 478 Q706 439 706 404 L706 0 L598 0 L598 390 Q598 442 548 449 Q542 450 535 450 Z " />
<glyph glyph-name="overscore" unicode="&#xaf;" horiz-adv-x="510" d="M33 799 L483 799 L483 712 L33 712 L33 799 Z " />
<glyph glyph-name="minus" unicode="&#x2212;" horiz-adv-x="416" d="M47 243 L47 344 L363 344 L363 243 L47 243 Z " />
<glyph glyph-name="multiply" unicode="&#xd7;" horiz-adv-x="638" d="M176 177 L104 249 L272 417 L104 586 L175 658 L343 490 L511 657 L583 585 L415 418 L583 250 L511 178 L343 345 L176 177 Z " />
<glyph glyph-name="n" unicode="n" horiz-adv-x="476" d="M38 0 L38 404 Q38 452 82 499 Q136 555 216 556 L216 450 Q170 450 152 414 Q146 402 146 391 L146 0 L38 0 Z M260 450 L260 556 Q355 556 409 479 Q438 439 438 404 L438 0 L330 0 L330 391 Q330 421 301 439 Q283 450 260 450 Z " />
<glyph glyph-name="nacute" unicode="&#x144;" horiz-adv-x="476" d="M202 617 L239 769 L341 769 L275 617 L202 617 Z M38 0 L38 404 Q38 452 82 499 Q136 555 216 556 L216 450 Q170 450 152 414 Q146 402 146 391 L146 0 L38 0 Z M260 450 L260 556 Q355 556 409 479 Q438 439 438 404 L438 0 L330 0 L330 391 Q330 421 301 439 Q283 450 260 450 Z " />
<glyph glyph-name="ncaron" unicode="&#x148;" horiz-adv-x="476" d="M134 769 L202 769 L237 696 L273 769 L342 769 L265 617 L209 617 L134 769 Z M38 0 L38 404 Q38 452 82 499 Q136 555 216 556 L216 450 Q170 450 152 414 Q146 402 146 391 L146 0 L38 0 Z M260 450 L260 556 Q355 556 409 479 Q438 439 438 404 L438 0 L330 0 L330 391 Q330 421 301 439 Q283 450 260 450 Z " />
<glyph glyph-name="nine" unicode="9" horiz-adv-x="513" d="M275 0 Q448 -1 475 246 Q480 289 480 341 Q480 601 377 671 Q334 700 275 700 L275 596 Q332 589 353 530 Q361 509 361 488 Q361 411 305 386 Q290 380 275 378 L275 274 Q321 274 369 308 Q371 309 372 310 Q372 140 300 109 Q288 104 275 103 L275 0 Z M224 274 L224 378 Q163 386 144 446 Q138 466 138 487 Q138 542 177 575 Q198 592 224 596 L224 700 Q138 700 82 630 Q33 569 33 487 Q33 366 110 309 Q157 274 224 274 Z M55 108 Q99 21 187 3 Q206 0 224 0 L224 103 Q181 104 151 145 Q144 155 140 165 L55 108 Z " />
<glyph glyph-name="notequal" unicode="&#x2260;" horiz-adv-x="418" d="M66 -75 L168 -75 L222 156 L368 156 L368 258 L246 258 L262 325 L368 325 L368 427 L286 427 L342 664 L241 664 L185 427 L50 427 L50 325 L161 325 L145 258 L50 258 L50 156 L121 156 L66 -75 Z " />
<glyph glyph-name="ntilde" unicode="&#xf1;" horiz-adv-x="476" d="M97 634 L97 718 Q136 740 167 740 Q192 740 238 717 Q273 699 298 699 Q333 700 378 727 L378 644 Q332 616 294 616 Q267 616 220 639 Q186 656 163 656 Q132 655 97 634 Z M38 0 L38 404 Q38 452 82 499 Q136 555 216 556 L216 450 Q170 450 152 414 Q146 402 146 391 L146 0 L38 0 Z M260 450 L260 556 Q355 556 409 479 Q438 439 438 404 L438 0 L330 0 L330 391 Q330 421 301 439 Q283 450 260 450 Z " />
<glyph glyph-name="numbersign" unicode="&#x23;" horiz-adv-x="752" d="M31 188 L51 285 L200 285 L223 416 L65 416 L82 513 L240 513 L269 682 L367 682 L337 512 L466 512 L495 682 L593 682 L563 512 L713 512 L697 415 L546 416 L523 284 L678 284 L663 187 L506 188 L477 22 L380 22 L409 188 L280 188 L251 22 L153 22 L183 188 L31 188 Z M297 285 L426 284 L449 416 L320 416 L297 285 Z " />
<glyph glyph-name="o" unicode="o" horiz-adv-x="466" d="M38 151 L38 404 Q38 453 82 499 Q134 554 213 554 L213 451 Q161 451 146 408 Q143 399 143 390 L143 165 Q143 127 178 110 Q194 102 214 102 L214 -1 Q117 -1 64 77 Q38 116 38 151 Z M258 -1 L258 102 Q306 102 321 143 Q325 154 325 163 L325 390 Q325 432 286 446 Q273 451 257 451 L257 554 Q351 554 402 478 Q428 439 428 404 L428 151 Q428 102 386 55 Q335 0 258 -1 Z " />
<glyph glyph-name="oacute" unicode="&#xf3;" horiz-adv-x="466" d="M199 614 L236 766 L338 766 L272 614 L199 614 Z M38 151 L38 404 Q38 453 82 499 Q134 554 213 554 L213 451 Q161 451 146 408 Q143 399 143 390 L143 165 Q143 127 178 110 Q194 102 214 102 L214 -1 Q117 -1 64 77 Q38 116 38 151 Z M258 -1 L258 102 Q306 102 321 143 Q325 154 325 163 L325 390 Q325 432 286 446 Q273 451 257 451 L257 554 Q351 554 402 478 Q428 439 428 404 L428 151 Q428 102 386 55 Q335 0 258 -1 Z " />
<glyph glyph-name="ocircumflex" unicode="&#xf4;" horiz-adv-x="466" d="M132 614 L207 766 L263 766 L340 614 L271 614 L235 687 L200 614 L132 614 Z M38 151 L38 404 Q38 453 82 499 Q134 554 213 554 L213 451 Q161 451 146 408 Q143 399 143 390 L143 165 Q143 127 178 110 Q194 102 214 102 L214 -1 Q117 -1 64 77 Q38 116 38 151 Z M258 -1 L258 102 Q306 102 321 143 Q325 154 325 163 L325 390 Q325 432 286 446 Q273 451 257 451 L257 554 Q351 554 402 478 Q428 439 428 404 L428 151 Q428 102 386 55 Q335 0 258 -1 Z " />
<glyph glyph-name="odieresis" unicode="&#xf6;" horiz-adv-x="466" d="M99 674 Q99 712 133 729 Q146 736 160 736 Q199 736 215 700 Q221 687 221 674 Q221 635 187 619 Q174 613 160 613 Q121 613 105 648 Q99 661 99 674 Z M249 674 Q249 712 283 729 Q296 736 310 736 Q349 736 365 700 Q371 687 371 674 Q371 635 337 619 Q324 613 310 613 Q271 613 255 648 Q249 661 249 674 Z M38 151 L38 404 Q38 453 82 499 Q134 554 213 554 L213 451 Q161 451 146 408 Q143 399 143 390 L143 165 Q143 127 178 110 Q194 102 214 102 L214 -1 Q117 -1 64 77 Q38 116 38 151 Z M258 -1 L258 102 Q306 102 321 143 Q325 154 325 163 L325 390 Q325 432 286 446 Q273 451 257 451 L257 554 Q351 554 402 478 Q428 439 428 404 L428 151 Q428 102 386 55 Q335 0 258 -1 Z " />
<glyph glyph-name="oe" unicode="&#x153;" horiz-adv-x="696" d="M346 47 Q399 0 481 0 Q608 0 654 85 Q662 102 667 120 L586 150 Q569 88 479 87 Q425 87 400 121 Q389 137 389 154 L389 219 L666 219 L666 378 Q666 439 603 483 Q555 516 505 516 L505 424 Q543 424 564 393 Q574 378 574 362 L574 313 L389 313 L389 362 Q390 396 422 414 Q439 423 457 423 L457 516 Q389 515 345 470 Q300 516 232 516 L232 421 Q285 421 296 378 Q298 370 298 362 L298 151 Q298 116 266 99 Q251 91 232 91 L232 -1 Q302 0 346 47 Z M27 141 Q27 98 66 54 Q115 0 191 -1 L191 91 Q144 91 128 131 Q124 142 124 153 L124 363 Q124 404 163 417 Q176 421 191 421 L191 516 Q99 516 50 442 Q27 407 27 376 L27 141 Z " />
<glyph glyph-name="ogonek" unicode="&#x2db;" horiz-adv-x="219" d="M106 -191 Q-6 -191 -42 -103 Q-54 -73 -54 -40 L23 -40 Q23 -102 83 -114 Q95 -116 106 -116 L106 -191 Z " />
<glyph glyph-name="ograve" unicode="&#xf2;" horiz-adv-x="466" d="M132 766 L234 766 L271 614 L198 614 L132 766 Z M38 151 L38 404 Q38 453 82 499 Q134 554 213 554 L213 451 Q161 451 146 408 Q143 399 143 390 L143 165 Q143 127 178 110 Q194 102 214 102 L214 -1 Q117 -1 64 77 Q38 116 38 151 Z M258 -1 L258 102 Q306 102 321 143 Q325 154 325 163 L325 390 Q325 432 286 446 Q273 451 257 451 L257 554 Q351 554 402 478 Q428 439 428 404 L428 151 Q428 102 386 55 Q335 0 258 -1 Z " />
<glyph glyph-name="ohungarumlaut" unicode="&#x151;" horiz-adv-x="466" d="M277 614 L314 766 L416 766 L350 614 L277 614 Z M138 614 L175 766 L277 766 L211 614 L138 614 Z M38 151 L38 404 Q38 453 82 499 Q134 554 213 554 L213 451 Q161 451 146 408 Q143 399 143 390 L143 165 Q143 127 178 110 Q194 102 214 102 L214 -1 Q117 -1 64 77 Q38 116 38 151 Z M258 -1 L258 102 Q306 102 321 143 Q325 154 325 163 L325 390 Q325 432 286 446 Q273 451 257 451 L257 554 Q351 554 402 478 Q428 439 428 404 L428 151 Q428 102 386 55 Q335 0 258 -1 Z " />
<glyph glyph-name="omacron" unicode="&#x14d;" horiz-adv-x="466" d="M78 614 L78 680 L394 680 L394 614 L78 614 Z M38 151 L38 404 Q38 453 82 499 Q134 554 213 554 L213 451 Q161 451 146 408 Q143 399 143 390 L143 165 Q143 127 178 110 Q194 102 214 102 L214 -1 Q117 -1 64 77 Q38 116 38 151 Z M258 -1 L258 102 Q306 102 321 143 Q325 154 325 163 L325 390 Q325 432 286 446 Q273 451 257 451 L257 554 Q351 554 402 478 Q428 439 428 404 L428 151 Q428 102 386 55 Q335 0 258 -1 Z " />
<glyph glyph-name="one" unicode="1" horiz-adv-x="243" d="M33 546 L33 648 L98 700 L210 700 L210 0 L98 0 L98 546 L33 546 Z " />
<glyph glyph-name="onehalf" unicode="&#xbd;" horiz-adv-x="574" d="M307 0 L307 62 L533 62 L533 0 L307 0 Z M0 0 L432 700 L496 700 L69 0 L0 0 Z M53 623 L53 674 L86 700 L152 700 L152 350 L86 350 L86 623 L53 623 Z M304 252 Q305 305 353 334 Q377 349 404 350 L404 287 Q369 283 364 248 Q363 244 363 241 L304 252 Z M307 87 Q307 136 381 170 Q384 172 401 179 Q457 204 469 220 Q476 230 476 241 Q474 284 430 287 L430 350 Q510 350 534 285 Q541 265 541 241 Q540 182 471 148 Q462 143 442 135 Q394 115 387 98 Q385 92 385 87 L307 87 Z " />
<glyph glyph-name="onequarter" unicode="&#xbc;" horiz-adv-x="505" d="M380 0 L380 350 L446 350 L446 119 L473 119 L473 61 L446 61 L446 0 L380 0 Z M53 623 L53 674 L86 700 L152 700 L152 350 L86 350 L86 623 L53 623 Z M234 61 L234 119 L353 325 L353 205 L305 119 L353 119 L353 61 L234 61 Z M0 0 L432 700 L496 700 L69 0 L0 0 Z " />
<glyph glyph-name="onesuperior" unicode="&#xb9;" horiz-adv-x="138" d="M10 630 L10 676 L40 699 L93 699 L93 385 L40 385 L40 630 L10 630 Z " />
<glyph glyph-name="ordfeminine" unicode="&#xaa;" horiz-adv-x="243" d="M19 345 L19 398 L220 398 L220 345 L19 345 Z M16 492 Q16 457 53 438 Q74 427 100 427 L100 476 Q63 478 62 502 L62 513 Q63 523 68 527 Q70 529 124 544 Q147 550 157 556 L157 506 Q157 479 129 477 Q126 477 125 476 L125 427 Q158 428 178 444 Q196 427 222 427 L222 477 Q209 478 208 493 L208 628 Q208 665 175 689 Q153 704 124 704 L124 656 Q152 656 156 631 Q157 627 157 624 L157 614 Q157 600 89 580 Q52 569 43 564 Q17 549 16 516 L16 492 Z M20 635 L66 618 Q66 651 94 655 Q97 655 100 656 L100 704 Q59 704 34 673 Q21 655 20 635 Z " />
<glyph glyph-name="ordmasculine" unicode="&#xba;" horiz-adv-x="230" d="M26 376 L26 432 L204 432 L204 376 L26 376 Z M27 525 L27 638 Q27 667 55 689 Q77 705 105 705 L105 659 Q79 659 75 636 Q74 634 74 632 L74 531 Q74 509 97 504 Q102 503 106 503 L106 457 Q55 457 34 501 Q27 514 27 525 Z M126 457 L126 503 Q151 503 155 525 Q156 528 156 530 L156 632 Q150 656 125 659 L125 705 Q174 705 195 663 Q202 649 202 638 L202 525 Q202 496 174 473 Q153 457 126 457 Z " />
<glyph glyph-name="oslash" unicode="&#xf8;" horiz-adv-x="475" d="M4 78 L68 136 Q67 139 67 150 L67 376 Q67 422 108 465 Q158 516 231 516 L231 421 Q181 421 167 380 Q164 371 164 363 L164 224 L333 380 Q319 420 272 421 L272 516 Q360 515 405 446 L449 486 L495 435 L430 376 Q430 375 430 370 Q431 364 431 363 L431 141 Q431 94 390 50 Q342 0 272 -1 L272 94 Q319 94 333 134 Q336 144 336 152 L336 289 L168 135 Q181 95 231 94 L231 -1 Q140 0 95 68 L50 27 L4 78 Z " />
<glyph glyph-name="otilde" unicode="&#xf5;" horiz-adv-x="466" d="M95 631 L95 715 Q134 737 165 737 Q190 737 236 714 Q271 696 296 696 Q331 697 376 724 L376 641 Q330 613 292 613 Q265 613 218 636 Q184 653 161 653 Q130 652 95 631 Z M38 151 L38 404 Q38 453 82 499 Q134 554 213 554 L213 451 Q161 451 146 408 Q143 399 143 390 L143 165 Q143 127 178 110 Q194 102 214 102 L214 -1 Q117 -1 64 77 Q38 116 38 151 Z M258 -1 L258 102 Q306 102 321 143 Q325 154 325 163 L325 390 Q325 432 286 446 Q273 451 257 451 L257 554 Q351 554 402 478 Q428 439 428 404 L428 151 Q428 102 386 55 Q335 0 258 -1 Z " />
<glyph glyph-name="p" unicode="p" horiz-adv-x="470" d="M202 0 L202 103 L258 103 Q305 103 320 140 Q323 147 323 153 L323 401 Q323 421 300 437 Q281 451 255 451 L200 451 L200 554 L255 554 Q350 554 402 477 Q428 438 428 403 L428 151 Q428 103 386 56 Q335 1 258 0 L202 0 Z M40 -194 L40 554 L151 554 L151 -194 L40 -194 Z " />
<glyph glyph-name="paragraph" unicode="&#xb6;" horiz-adv-x="447" d="M35 517 Q35 402 112 353 Q152 329 204 329 L204 -5 L272 -5 L272 705 L204 705 Q116 705 67 630 Q35 580 35 517 Z M325 -5 L393 -5 L393 705 L325 705 L325 -5 Z " />
<glyph glyph-name="parenleft" unicode="&#x28;" horiz-adv-x="220" d="M40 189 Q40 97 82 48 Q118 6 194 -28 L194 41 Q144 72 131 133 Q125 162 125 198 L125 521 Q125 607 173 644 Q182 651 194 658 L193 726 Q109 692 78 651 Q40 601 40 510 L40 189 Z " />
<glyph glyph-name="parenright" unicode="&#x29;" horiz-adv-x="222" d="M26 -29 L26 40 Q71 69 86 115 Q97 150 97 204 L97 521 Q97 610 40 650 Q33 655 26 659 L27 727 Q126 689 159 626 Q182 580 182 510 L182 191 Q182 89 124 33 Q87 -3 26 -29 Z " />
<glyph glyph-name="partialdiff" unicode="&#x2202;" horiz-adv-x="420" d="M28 141 L28 376 Q28 422 70 465 Q119 516 192 516 L192 421 Q143 421 128 376 Q125 366 125 356 L125 154 Q125 118 158 102 Q174 94 192 94 L192 -1 Q100 -1 51 73 Q28 109 28 141 Z M70 658 L70 714 Q291 714 358 599 Q392 538 392 444 L392 141 Q392 94 351 50 Q304 0 233 -1 L233 94 Q279 94 293 136 Q297 146 297 156 L297 359 Q297 404 258 417 Q246 421 233 421 L233 516 Q269 516 294 500 Q294 600 186 639 Q135 658 70 658 Z " />
<glyph glyph-name="percent" unicode="&#x25;" horiz-adv-x="532" d="M34 578 Q34 627 77 651 Q97 662 119 662 Q167 662 191 621 Q203 600 203 578 Q203 531 163 506 Q142 494 119 494 Q71 494 46 535 Q34 555 34 578 Z M125 -20 L300 719 L401 719 L227 -20 L125 -20 Z M329 119 Q329 168 371 193 Q391 204 413 204 Q462 204 486 161 Q497 141 497 119 Q497 71 456 47 Q436 35 413 35 Q365 35 340 77 Q329 97 329 119 Z " />
<glyph glyph-name="period" unicode="&#x2e;" horiz-adv-x="195" d="M33 60 Q33 100 68 118 Q82 125 97 125 Q137 125 155 89 Q162 75 162 60 Q162 20 126 2 Q112 -5 97 -5 Q59 -5 41 29 Q33 44 33 60 Z " />
<glyph glyph-name="middot" unicode="&#xb7;" horiz-adv-x="222" d="M58 352 Q58 392 93 410 Q107 417 122 417 Q162 417 180 381 Q187 367 187 352 Q187 312 151 294 Q137 287 122 287 Q84 287 66 321 Q58 336 58 352 Z " />
<glyph glyph-name="perthousand" unicode="&#x2030;" horiz-adv-x="897" d="M121 352 L121 415 Q81 425 81 522 L81 538 Q82 631 121 639 L121 702 Q53 700 29 620 Q17 581 17 527 Q17 380 96 356 Q108 352 121 352 Z M150 352 Q212 352 239 424 Q254 466 254 527 Q254 676 173 699 Q161 702 150 702 L150 639 Q190 630 190 538 L190 522 Q189 424 150 415 L150 352 Z M488 0 L488 63 Q448 73 448 170 L448 186 Q449 279 488 287 L488 350 Q420 348 396 268 Q384 229 384 175 Q384 28 463 4 Q475 0 488 0 Z M517 0 Q579 0 606 72 Q621 114 621 175 Q621 324 540 347 Q528 350 517 350 L517 287 Q557 278 557 186 L557 170 Q556 72 517 63 L517 0 Z M747 0 L747 63 Q706 73 706 170 L706 186 Q707 279 747 287 L747 350 Q676 348 652 263 Q642 225 642 175 Q642 26 723 3 Q735 0 747 0 Z M775 0 Q837 0 864 70 Q880 112 880 175 Q880 322 799 346 Q787 350 775 350 L775 287 Q814 278 816 186 L816 170 Q815 72 775 63 L775 0 Z M72 0 L141 0 L568 700 L504 700 L72 0 Z " />
<glyph glyph-name="pi" unicode="&#x3c0;" horiz-adv-x="501" d="M13 415 L13 518 L488 518 L488 415 L420 415 L420 142 Q428 90 474 87 L474 -4 Q374 -4 338 69 Q324 98 324 133 L324 415 L180 415 L180 -1 L81 -1 L81 415 L13 415 Z " />
<glyph glyph-name="plus" unicode="&#x2b;" horiz-adv-x="420" d="M22 243 L22 344 L158 344 L158 498 L259 498 L259 344 L397 344 L397 243 L259 243 L259 87 L158 87 L158 243 L22 243 Z " />
<glyph glyph-name="plusminus" unicode="&#xb1;" horiz-adv-x="429" d="M27 66 L27 167 L403 167 L403 66 L27 66 Z M33 404 L33 505 L169 505 L169 659 L270 659 L270 505 L408 505 L408 404 L270 404 L270 248 L169 248 L169 404 L33 404 Z " />
<glyph glyph-name="product" unicode="&#x220f;" horiz-adv-x="512" d="M22 592 L22 698 L490 698 L490 592 L442 592 L442 -140 L339 -140 L339 592 L173 592 L173 -140 L70 -140 L70 592 L22 592 Z " />
<glyph glyph-name="q" unicode="q" horiz-adv-x="465" d="M209 0 Q115 0 65 77 Q39 116 39 151 L39 403 Q39 451 80 498 Q131 553 209 554 L265 554 L265 451 L209 451 Q161 451 147 413 Q144 406 144 401 L144 153 Q144 129 169 113 Q186 103 209 103 L263 103 L263 0 L209 0 Z M313 -194 L313 554 L425 554 L425 -194 L313 -194 Z " />
<glyph glyph-name="question" unicode="&#x3f;" horiz-adv-x="466" d="M33 611 Q91 684 171 699 Q195 703 221 703 Q346 703 401 609 Q431 558 433 491 Q433 436 414.5 393.5 Q396 351 369 330 Q342 309 315.5 295.5 Q289 282 270 279 L252 276 L252 138 L149 138 L149 366 Q270 368 307 411 Q331 441 331 492 Q331 556 276 586 Q248 601 215 601 Q143 600 99 543 L33 611 Z M139 39 Q139 78 174 94 Q187 100 200 100 Q239 100 255 65 Q261 52 261 39 Q261 0 226 -16 Q213 -22 200 -22 Q161 -22 145 13 Q139 26 139 39 Z " />
<glyph glyph-name="questiondown" unicode="&#xbf;" horiz-adv-x="445" d="M421 80 Q363 7 283 -8 Q259 -12 233 -12 Q108 -12 53 82 Q23 133 21 200 Q21 255 39.5 297.5 Q58 340 85 361 Q112 382 138.5 395.5 Q165 409 184 412 L202 415 L202 553 L305 553 L305 325 Q184 323 147 280 Q123 250 123 199 Q123 135 178 105 Q206 90 239 90 Q311 91 355 148 L421 80 Z M315 652 Q315 613 280 597 Q267 591 254 591 Q215 591 199 626 Q193 639 193 652 Q193 691 228 707 Q241 713 254 713 Q293 713 309 678 Q315 665 315 652 Z " />
<glyph glyph-name="quotedbl" unicode="&#x22;" horiz-adv-x="340" d="M42 465 L42 736 L144 736 L144 465 L42 465 Z M197 465 L197 736 L299 736 L299 465 L197 465 Z " />
<glyph glyph-name="quotedblbase" unicode="&#x201e;" horiz-adv-x="321" d="M164 -23 L201 129 L302 129 L265 -23 L164 -23 Z M13 -23 L50 129 L151 129 L114 -23 L13 -23 Z " />
<glyph glyph-name="quotedblleft" unicode="&#x201c;" horiz-adv-x="322" d="M33 465 L33 736 L135 736 L135 465 L33 465 Z M188 465 L188 736 L290 736 L290 465 L188 465 Z " />
<glyph glyph-name="quotedblright" unicode="&#x201d;" horiz-adv-x="322" d="M33 465 L33 736 L135 736 L135 465 L33 465 Z M188 465 L188 736 L290 736 L290 465 L188 465 Z " />
<glyph glyph-name="quoteleft" unicode="&#x2018;" horiz-adv-x="168" d="M33 465 L33 736 L135 736 L135 465 L33 465 Z " />
<glyph glyph-name="quoteright" unicode="&#x2019;" horiz-adv-x="168" d="M33 465 L33 736 L135 736 L135 465 L33 465 Z " />
<glyph glyph-name="quotesinglbase" unicode="&#x201a;" horiz-adv-x="168" d="M33 465 L33 736 L135 736 L135 465 L33 465 Z " />
<glyph glyph-name="quotesingle" unicode="&#x27;" horiz-adv-x="185" d="M42 465 L42 736 L144 736 L144 465 L42 465 Z " />
<glyph glyph-name="r" unicode="r" horiz-adv-x="324" d="M42 0 L42 554 L150 554 L150 485 Q178 529 234 548 Q260 557 285 557 L311 557 L286 452 Q227 451 183 395 Q150 352 150 306 L150 0 L42 0 Z " />
<glyph glyph-name="racute" unicode="&#x155;" horiz-adv-x="324" d="M157 614 L194 766 L296 766 L230 614 L157 614 Z M42 0 L42 554 L150 554 L150 485 Q178 529 234 548 Q260 557 285 557 L311 557 L286 452 Q227 451 183 395 Q150 352 150 306 L150 0 L42 0 Z " />
<glyph glyph-name="radical" unicode="&#x221a;" horiz-adv-x="616" d="M6 513 L199 585 L360 187 L494 819 L606 819 L434 -1 L320 -1 L131 463 L35 429 L6 513 Z " />
<glyph glyph-name="rcaron" unicode="&#x159;" horiz-adv-x="324" d="M73 766 L141 766 L176 693 L212 766 L281 766 L204 614 L148 614 L73 766 Z M42 0 L42 554 L150 554 L150 485 Q178 529 234 548 Q260 557 285 557 L311 557 L286 452 Q227 451 183 395 Q150 352 150 306 L150 0 L42 0 Z " />
<glyph glyph-name="registered" unicode="&#xae;" horiz-adv-x="398" d="M189 513 L189 544 L197 544 Q226 545 227 569 Q225 595 194 596 L189 596 L189 628 Q252 628 258 580 Q259 575 259 570 Q258 541 239 529 Q257 516 259 492 L262 431 L232 431 L228 481 Q227 509 203 512 Q197 513 189 513 Z M190 358 Q119 360 69 420 Q31 468 31 526 Q31 622 108 671 Q149 697 192 698 L192 662 Q133 661 94 611 Q66 574 66 527 Q67 460 120 420 Q152 397 189 395 L190 358 Z M208 358 L208 395 Q269 398 307 450 Q332 486 332 527 Q332 599 275 639 Q243 661 208 662 L208 698 Q273 696 322 644 Q367 595 367 528 Q367 442 299 391 Q257 361 208 358 Z M140 431 L140 627 L174 627 L174 431 L140 431 Z " />
<glyph glyph-name="ring" unicode="&#x2da;" horiz-adv-x="244" d="M34 526 Q34 574 76 601 Q98 614 122 614 Q170 614 197 572 Q210 550 210 526 Q210 478 168 451 Q146 438 122 438 Q74 438 47 480 Q34 502 34 526 Z M90 526 Q90 502 112 495 Q118 494 122 494 Q146 494 153 516 Q154 522 154 526 Q154 550 132 557 Q126 558 122 558 Q98 558 91 536 Q90 530 90 526 Z " />
<glyph glyph-name="s" unicode="s" horiz-adv-x="443" d="M20 146 L119 164 Q119 125 160 105 Q178 96 195 96 L195 -5 Q89 -5 42 70 Q20 106 20 146 Z M25 400 Q25 492 110 537 Q151 558 192 558 L192 459 Q144 459 128 421 Q124 410 124 400 Q124 370 176 347 Q220 329 310 308 Q379 294 408 237 Q423 206 423 169 Q423 70 343 23 Q297 -5 238 -5 L238 95 Q278 95 304 122 Q320 141 320 164 Q320 199 242 223 Q226 228 192 237 Q141 249 120 257 Q46 290 30 354 Q25 375 25 400 Z M237 459 L237 558 Q325 558 379 493 Q413 451 413 405 L314 388 Q314 439 259 455 Q247 459 237 459 Z " />
<glyph glyph-name="sacute" unicode="&#x15b;" horiz-adv-x="443" d="M179 615 L216 767 L318 767 L252 615 L179 615 Z M20 146 L119 164 Q119 125 160 105 Q178 96 195 96 L195 -5 Q89 -5 42 70 Q20 106 20 146 Z M25 400 Q25 492 110 537 Q151 558 192 558 L192 459 Q144 459 128 421 Q124 410 124 400 Q124 370 176 347 Q220 329 310 308 Q379 294 408 237 Q423 206 423 169 Q423 70 343 23 Q297 -5 238 -5 L238 95 Q278 95 304 122 Q320 141 320 164 Q320 199 242 223 Q226 228 192 237 Q141 249 120 257 Q46 290 30 354 Q25 375 25 400 Z M237 459 L237 558 Q325 558 379 493 Q413 451 413 405 L314 388 Q314 439 259 455 Q247 459 237 459 Z " />
<glyph glyph-name="scaron" unicode="&#x161;" horiz-adv-x="443" d="M112 767 L180 767 L215 694 L251 767 L320 767 L243 615 L187 615 L112 767 Z M21 146 L120 164 Q120 125 161 105 Q179 96 196 96 L196 -5 Q90 -5 43 70 Q21 106 21 146 Z M26 400 Q26 492 111 537 Q152 558 193 558 L193 459 Q145 459 129 421 Q125 410 125 400 Q125 370 177 347 Q221 329 311 308 Q380 294 409 237 Q424 206 424 169 Q424 70 344 23 Q298 -5 239 -5 L239 95 Q279 95 305 122 Q321 141 321 164 Q321 199 243 223 Q227 228 193 237 Q142 249 121 257 Q47 290 31 354 Q26 375 26 400 Z M238 459 L238 558 Q326 558 380 493 Q414 451 414 405 L315 388 Q315 439 260 455 Q248 459 238 459 Z " />
<glyph glyph-name="section" unicode="&#xa7;" horiz-adv-x="603" d="M54 352 Q55 446 127 500 Q116 528 116 572 Q116 690 212 738 Q253 759 297 759 L405 759 L405 655 L311 655 Q235 654 222 597 Q220 587 220 577 Q221 534 275 507 L275 384 Q254 390 239 396 Q207 411 195 420 Q167 397 166 355 Q166 298 251 266 Q262 262 275 258 L275 142 Q199 167 181 176 Q98 220 72 272 Q54 307 54 352 Z M198 -31 L290 -31 Q359 -32 377 18 Q382 32 382 48 Q381 93 327 119 L327 241 Q350 234 363 228 Q394 217 410 203 Q437 229 437 267 Q437 326 358 356 Q344 362 327 367 L327 483 Q406 456 421 448 Q506 406 532 350 Q549 315 549 270 Q548 178 477 121 Q487 92 487 50 Q487 -57 403 -108 Q357 -136 305 -136 L198 -136 L198 -31 Z " />
<glyph glyph-name="semicolon" unicode="&#x3b;" horiz-adv-x="264" d="M50 -23 L87 129 L188 129 L151 -23 L50 -23 Z M93 346 Q93 385 128 401 Q141 407 154 407 Q191 407 207 374 Q214 360 214 346 Q214 307 180 291 Q167 285 154 285 Q115 285 99 320 Q93 333 93 346 Z " />
<glyph glyph-name="seven" unicode="7" horiz-adv-x="446" d="M432 596 L33 596 L33 700 L432 700 L432 596 Z M165 0 Q171 224 264 449 Q286 500 309 544 L423 544 Q307 323 282 73 Q278 35 277 0 L165 0 Z " />
<glyph glyph-name="si_A" unicode="&#xd85;" horiz-adv-x="543" d="M335 -169 L439 -169 L439 0 L494 0 L494 111 L439 111 L439 382 Q439 433 478 454 Q494 461 513 466 L490 580 Q422 558 386 525 Q326 578 239 578 Q144 578 92 517 Q70 491 61 458 L156 427 Q169 469 223 478 Q234 480 243 480 Q303 480 326 439 Q333 426 335 411 L335 402 L256 402 Q110 402 56 306 Q30 260 30 198 Q30 72 139 23 Q191 0 257 0 L280 0 L280 108 L257 108 Q172 108 150 164 Q144 180 144 198 Q146 291 253 292 L335 292 L335 -169 Z " />
<glyph glyph-name="si_Aa" unicode="&#xd86;" horiz-adv-x="806" d="M335 -169 L439 -169 L439 0 L494 0 L494 111 L439 111 L439 382 Q439 433 478 454 Q494 461 513 466 L490 580 Q422 558 386 525 Q326 578 239 578 Q144 578 92 517 Q70 491 61 458 L156 427 Q169 469 223 478 Q234 480 243 480 Q303 480 326 439 Q333 426 335 411 L335 402 L256 402 Q110 402 56 306 Q30 260 30 198 Q30 72 139 23 Q191 0 257 0 L280 0 L280 108 L257 108 Q172 108 150 164 Q144 180 144 198 Q146 291 253 292 L335 292 L335 -169 Z M564 0 L584 0 Q748 0 772 149 Q776 174 776 200 L776 361 Q776 528 639 556 Q613 561 584 561 L564 561 L564 450 L584 450 Q663 448 664 354 L664 200 Q662 112 584 111 L564 111 L564 0 Z " />
<glyph glyph-name="si_Aae" unicode="&#xd88;" horiz-adv-x="805" d="M335 -169 L439 -169 L439 0 L494 0 L494 111 L439 111 L439 382 Q439 433 478 454 Q494 461 513 466 L490 580 Q422 558 386 525 Q326 578 239 578 Q144 578 92 517 Q70 491 61 458 L156 427 Q169 469 223 478 Q234 480 243 480 Q303 480 326 439 Q333 426 335 411 L335 402 L256 402 Q110 402 56 306 Q30 260 30 198 Q30 72 139 23 Q191 0 257 0 L280 0 L280 108 L257 108 Q172 108 150 164 Q144 180 144 198 Q146 291 253 292 L335 292 L335 -169 Z M564 213 L564 173 Q564 26 703 4 Q726 0 751 0 L775 0 L775 113 L751 113 Q677 115 676 190 L676 213 Q676 242 692 259 Q708 276 775 325 L775 415 L694 415 L775 484 L775 574 L564 574 L564 484 L643 484 L564 415 L564 325 L633 325 Q575 280 567 248 Q564 235 564 213 Z " />
<glyph glyph-name="si_Ae" unicode="&#xd87;" horiz-adv-x="804" d="M335 -169 L439 -169 L439 0 L494 0 L494 111 L439 111 L439 382 Q439 433 478 454 Q494 461 513 466 L490 580 Q422 558 386 525 Q326 578 239 578 Q144 578 92 517 Q70 491 61 458 L156 427 Q169 469 223 478 Q234 480 243 480 Q303 480 326 439 Q333 426 335 411 L335 402 L256 402 Q110 402 56 306 Q30 260 30 198 Q30 72 139 23 Q191 0 257 0 L280 0 L280 108 L257 108 Q172 108 150 164 Q144 180 144 198 Q146 291 253 292 L335 292 L335 -169 Z M750 0 L774 0 L774 113 L750 113 Q682 113 676 183 Q675 190 675 196 L675 266 Q675 319 692 350 Q706 377 774 469 L774 574 L563 574 L563 464 L645 464 Q583 383 572 350 Q563 321 563 274 L563 201 Q563 49 679 11 Q711 0 750 0 Z " />
<glyph glyph-name="si_Ai" unicode="&#xd93;" horiz-adv-x="1047" d="M249 460 Q312 460 325 411 Q326 408 326 406 L424 431 Q416 491 367 531 Q325 564 270 564 L208 564 Q77 564 41 446 Q30 410 30 371 L30 198 Q30 61 108 15 Q142 -5 188 -5 L209 -5 L209 99 Q148 99 139 166 Q137 180 137 198 L137 371 Q137 437 186 455 Q200 460 216 460 L249 460 Z M233 250 L269 250 Q308 250 316 233 Q320 225 320 214 L320 161 Q318 100 257 99 L257 -5 L286 -5 Q371 -5 408 71 Q427 109 427 157 L427 255 Q427 346 339 353 Q330 354 320 354 L233 354 L233 250 Z M516 401 L598 380 Q610 409 650 411 Q693 411 705 376 Q708 367 708 357 L683 353 L477 353 L477 269 L538 269 Q517 238 517 192 Q517 104 584 46 Q644 -4 729 -4 L729 111 Q654 111 633 165 Q627 179 627 194 Q627 254 676 266 Q686 269 696 269 L793 269 L793 351 Q792 419 757 456 Q717 495 650 496 Q571 496 533 439 Q522 421 516 401 Z M864 457 L864 530 Q785 542 784 622 L784 645 Q872 645 894 581 Q905 550 905 498 L905 247 Q904 112 785 111 L785 -4 Q1016 -1 1017 247 L1017 517 Q1017 742 810 754 Q797 755 784 755 L716 755 L716 623 Q716 511 807 472 Q833 461 864 457 Z " />
<glyph glyph-name="si_Au" unicode="&#xd96;" horiz-adv-x="1021" d="M192 -6 Q260 -5 299 42 Q339 -6 406 -6 Q501 -6 544 63 Q568 102 568 152 L568 518 Q568 678 470 727 Q413 755 318 755 L318 645 Q401 645 430 614 Q459 582 459 510 L459 160 Q459 123 426 108 Q413 103 399 103 Q358 103 345 140 Q341 150 341 160 L341 199 L258 199 L258 160 Q258 124 226 109 Q214 103 200 103 Q158 103 143 139 Q139 150 139 160 L139 339 Q139 367 162 373 Q167 374 170 374 Q194 374 199 349 Q200 344 200 340 L200 317 Q200 258 253 237 Q273 229 293 229 Q349 229 378 273 Q394 298 394 331 L394 469 L317 469 L317 338 Q313 319 294 315 Q274 319 271 338 L271 366 Q271 438 208 465 Q184 475 157 475 Q91 475 54 426 Q30 393 30 349 L30 152 Q30 59 103 17 Q142 -6 192 -6 Z M144 537 Q144 622 223 641 Q241 645 261 645 L261 755 Q165 755 96 695 Q36 640 35 565 L144 537 Z M824 -8 Q913 -8 966 51 Q1005 97 1005 161 L1005 445 Q1003 526 941 558 Q916 570 889 570 Q826 570 795 523 Q779 497 779 463 L779 434 Q775 409 752 406 Q728 412 725 434 L725 564 L648 564 L648 408 Q648 333 708 305 Q730 295 754 295 Q809 295 836 337 Q849 359 849 386 L849 435 Q849 461 871 465 Q874 466 876 466 Q900 460 903 435 L903 161 Q903 108 854 94 Q842 90 829 90 Q780 90 759 126 Q750 142 750 161 L750 202 L648 202 L648 161 Q648 59 732 14 Q774 -8 824 -8 Z " />
<glyph glyph-name="si_Ba" unicode="&#xdb6;" horiz-adv-x="602" d="M30 184 Q30 38 138 8 Q170 0 211 0 L211 111 Q153 111 140 152 Q136 167 136 188 L136 272 Q136 321 175 335 Q184 338 194 338 Q233 338 248 302 Q253 288 253 272 L253 139 Q253 49 327 11 Q363 -7 404 -7 Q486 -7 535 52 Q572 98 572 165 L572 504 Q572 705 419 746 Q383 755 341 755 L323 755 L323 645 L341 645 Q446 645 459 529 Q461 509 461 488 L461 164 Q461 123 426 112 Q418 110 411 110 Q377 110 365 141 Q361 152 361 164 L361 275 Q361 385 280 429 Q243 449 200 449 Q119 449 69 392 Q30 346 30 283 L30 184 Z M41 565 L150 537 Q150 622 229 641 Q247 645 267 645 L267 755 Q171 755 102 695 Q42 640 41 565 Z " />
<glyph glyph-name="si_Bha" unicode="&#xdb7;" horiz-adv-x="751" d="M402 335 L402 354 Q402 450 471 451 L471 564 Q371 563 325 497 Q294 554 221 563 Q210 564 200 564 Q124 564 84 508 Q72 490 65 469 L147 448 Q160 478 198 480 Q248 480 256 436 Q257 428 257 421 L30 421 L30 325 L89 325 Q69 296 69 253 L69 197 Q69 67 157 17 Q201 -8 262 -8 L262 105 Q191 105 181 179 Q180 189 180 198 L180 245 Q182 324 262 325 L291 325 L291 250 L331 250 Q393 247 393 178 Q391 106 318 105 L318 -8 Q491 -6 492 160 L492 201 Q492 309 424 331 Q413 334 402 335 Z M527 -8 Q665 -8 707 111 Q720 152 721 203 L721 349 Q721 500 618 546 Q579 564 527 564 L527 451 Q608 449 609 349 L609 203 Q607 106 527 105 L527 -8 Z " />
<glyph glyph-name="si_Ca" unicode="&#xda0;" horiz-adv-x="600" d="M282 -4 Q170 -4 109 76 Q70 128 70 192 Q71 240 91 269 L30 269 L30 353 L236 353 L261 357 Q261 400 219 409 Q211 411 203 411 Q165 411 153 385 Q152 383 151 380 L69 401 Q93 482 180 494 Q192 496 203 496 Q271 495 310 456 Q346 417 346 351 L346 269 L249 269 Q204 269 187 226 Q181 211 181 195 Q181 143 227 119 Q251 107 282 107 L282 -4 Z M338 -4 L338 107 Q458 109 459 247 L459 503 Q459 610 399 635 Q374 645 338 645 L338 755 Q563 755 570 533 Q570 525 570 518 L570 247 Q568 -2 338 -4 Z M176 537 L67 565 Q67 649 144 707 Q208 755 282 755 L282 645 Q221 645 192 597 Q176 571 176 537 Z " />
<glyph glyph-name="si_Cha" unicode="&#xda1;" horiz-adv-x="645" d="M287 -10 L342 -10 Q573 -10 591 166 Q593 182 593 199 L593 263 Q593 337 526 342 Q519 343 512 343 L426 343 Q387 343 369 378 Q363 392 363 406 Q363 444 397 461 Q411 468 426 468 Q465 468 482 432 Q485 425 486 419 L584 423 Q578 497 516 540 Q498 552 478 559 L631 761 L516 791 L315 526 L310 521 Q270 571 189 571 Q94 571 48 502 Q37 485 30 465 L125 433 Q139 471 191 472 Q234 472 253 437 Q261 421 261 402 L197 402 Q77 402 47 325 Q34 293 34 248 L144 248 Q152 303 206 306 L294 306 Q342 244 425 243 L482 244 L482 199 Q482 103 365 97 Q356 97 348 97 L279 97 Q151 97 144 188 Q144 194 144 199 L33 199 Q33 46 160 6 Q212 -10 287 -10 Z " />
<glyph glyph-name="si_Da" unicode="&#xdaf;" horiz-adv-x="546" d="M367 -204 Q258 -204 211 -132 Q186 -94 186 -45 L295 -45 Q295 -81 334 -97 Q351 -103 368 -103 Q415 -103 434 -69 Q438 -61 440 -53 L546 -80 Q521 -167 435 -194 Q403 -204 367 -204 Z M30 198 Q30 334 143 382 Q193 402 256 402 L336 402 Q336 457 281 474 Q263 480 244 480 Q187 480 163 443 Q158 435 156 427 L61 458 Q81 536 165 566 Q201 579 240 579 Q337 579 394 517 Q439 468 439 396 L439 292 L253 292 Q145 290 144 198 Q144 129 218 112 Q236 108 257 108 L295 108 Q371 109 396 165 L497 138 Q469 48 376 14 Q336 0 295 0 L257 0 Q129 0 68 77 Q30 126 30 198 Z " />
<glyph glyph-name="si_Dda" unicode="&#xda9;" horiz-adv-x="630" d="M241 -6 Q303 -5 338 42 Q378 -6 446 -6 Q535 -6 577 63 Q600 102 600 152 L600 518 Q600 699 472 741 Q427 755 365 755 L365 645 Q449 645 472 596 Q487 564 487 503 L487 158 Q487 127 461 112 Q447 105 431 105 Q387 105 378 145 Q376 152 376 158 L376 199 L292 199 L292 158 Q292 125 264 111 Q252 105 237 105 Q194 105 183 145 Q181 152 181 158 L181 224 Q183 267 227 268 L376 268 L376 350 Q375 418 340 455 Q300 494 233 495 Q154 495 116 438 Q105 420 99 400 L181 379 Q191 409 233 410 Q278 410 289 371 Q291 362 291 352 L30 352 L30 268 L86 268 Q73 259 73 224 L73 152 Q73 60 147 17 Q188 -6 241 -6 Z M78 565 L186 537 Q186 617 262 639 Q285 645 309 645 L309 755 Q214 755 144 696 Q79 641 78 565 Z " />
<glyph glyph-name="si_Ddha" unicode="&#xdaa;" horiz-adv-x="630" d="M241 -6 Q303 -5 338 42 Q378 -6 446 -6 Q535 -6 577 63 Q600 102 600 152 L600 517 Q600 742 393 754 Q381 755 367 755 L299 755 L299 623 Q299 511 390 472 Q416 461 447 457 L447 530 Q368 542 367 622 L367 645 Q455 645 477 581 Q488 550 488 498 L488 158 Q488 127 461 112 Q448 105 431 105 Q387 105 378 145 Q376 152 376 158 L376 199 L292 199 L292 158 Q292 125 264 111 Q252 105 237 105 Q194 105 183 145 Q181 152 181 158 L181 224 Q183 267 227 268 L376 268 L376 350 Q375 418 340 455 Q300 494 233 495 Q154 495 116 438 Q105 420 99 400 L181 379 Q191 409 233 410 Q278 410 289 371 Q291 362 291 352 L30 352 L30 268 L86 268 Q73 259 73 224 L73 152 Q73 60 147 17 Q188 -6 241 -6 Z " />
<glyph glyph-name="si_Dha" unicode="&#xdb0;" horiz-adv-x="589" d="M200 -6 Q262 -5 297 42 Q338 -6 405 -6 Q494 -6 536 63 Q559 102 559 152 L559 518 Q559 697 434 740 Q388 755 324 755 L324 645 Q408 645 432 596 Q447 564 447 503 L447 158 Q447 127 421 112 Q407 105 391 105 Q346 105 337 145 Q335 152 335 158 L335 199 L252 199 L252 158 Q252 125 224 111 Q212 105 197 105 Q153 105 142 145 Q140 152 140 158 L140 273 Q140 351 207 364 Q219 366 232 366 L259 366 L259 476 L232 476 Q31 475 30 275 L30 152 Q30 60 104 17 Q146 -6 200 -6 Z M37 565 L146 537 Q146 617 223 639 Q244 645 268 645 L268 755 Q174 755 103 696 Q38 641 37 565 Z " />
<glyph glyph-name="si_E" unicode="&#xd91;" horiz-adv-x="600" d="M69 401 L151 380 Q163 409 203 411 Q246 411 258 376 Q261 367 261 357 L236 353 L30 353 L30 269 L91 269 Q70 238 70 192 Q70 104 137 46 Q197 -4 282 -4 L282 111 Q207 111 186 165 Q180 179 180 194 Q180 254 229 266 Q239 269 249 269 L346 269 L346 351 Q345 419 310 456 Q270 495 203 496 Q124 496 86 439 Q75 421 69 401 Z M417 457 L417 530 Q338 542 337 622 L337 645 Q425 645 447 581 Q458 550 458 498 L458 247 Q457 112 338 111 L338 -4 Q569 -1 570 247 L570 517 Q570 742 363 754 Q350 755 337 755 L269 755 L269 623 Q269 511 360 472 Q386 461 417 457 Z " />
<glyph glyph-name="si_Ee" unicode="&#xd92;" horiz-adv-x="600" d="M30 269 L91 269 Q70 238 70 192 Q70 104 137 46 Q197 -4 282 -4 L282 111 Q207 111 186 165 Q180 179 180 194 Q180 254 229 266 Q239 269 249 269 L346 269 L346 351 Q345 419 310 456 Q270 495 203 496 Q124 496 86 439 Q75 421 69 401 L151 380 Q163 409 203 411 Q246 411 258 376 Q261 367 261 357 L236 353 L30 353 L30 269 Z M269 623 Q269 511 360 472 Q386 461 417 457 L417 530 Q338 542 337 622 L337 645 Q425 645 447 581 Q458 550 458 498 L458 247 Q457 112 338 111 L338 -4 Q569 -1 570 247 L570 517 Q570 538 569 548 L569 819 L460 819 L460 732 Q409 755 337 755 L269 755 L269 623 Z " />
<glyph glyph-name="si_Fa" unicode="&#xdc6;" horiz-adv-x="644" d="M30 248 L30 404 Q30 507 115 546 Q154 564 203 564 Q282 563 324 513 Q366 564 440 564 Q540 564 588 495 Q614 455 614 404 L614 248 L504 248 L504 396 Q504 438 462 450 Q451 453 439 453 Q391 453 377 417 Q373 406 373 395 L373 248 L271 248 L271 395 Q271 439 226 450 Q216 453 205 453 Q158 453 144 418 Q140 407 140 396 L140 248 L30 248 Z M30 199 L140 199 Q147 117 225 113 L225 0 Q81 0 42 118 Q30 155 30 199 Z M419 0 L419 113 Q503 114 504 199 L614 199 Q614 64 516 19 Q474 0 419 0 Z " />
<glyph glyph-name="si_Ga" unicode="&#xd9c;" horiz-adv-x="713" d="M224 -8 L224 105 Q143 107 142 203 L142 346 Q144 450 224 451 L224 564 Q85 564 44 446 Q30 405 30 353 L30 203 Q30 61 127 12 Q169 -8 224 -8 Z M489 -8 Q628 -8 669 110 Q683 151 683 203 L683 353 Q683 495 586 544 Q544 564 489 564 L489 451 Q570 449 571 346 L571 203 Q569 106 489 105 L489 -8 Z M253 250 L300 250 Q355 244 355 178 Q353 106 280 105 L280 -8 Q454 -6 455 160 L455 201 Q455 311 382 332 Q373 335 364 336 L364 353 Q364 438 414 449 Q423 451 433 451 L433 564 Q254 562 253 353 L253 250 Z " />
<glyph glyph-name="si_Gha" unicode="&#xd9d;" horiz-adv-x="684" d="M223 -8 Q329 -8 336 78 Q336 84 336 89 Q338 119 362 120 Q387 118 388 89 Q388 1 482 -7 Q491 -8 501 -8 Q588 -8 630 59 Q654 99 654 152 L654 197 L544 197 L544 158 Q544 121 513 108 Q502 104 491 104 Q439 106 438 159 Q436 203 394 204 L330 204 Q287 203 286 159 Q284 105 233 104 Q194 104 183 140 Q180 149 180 158 L180 197 L70 197 L70 152 Q70 56 141 13 Q177 -8 223 -8 Z M80 465 L175 433 Q189 471 240 472 Q286 472 304 435 Q311 420 311 402 L30 402 L30 306 L81 306 Q71 299 71 277 Q70 271 70 248 L180 248 L180 262 Q182 305 230 306 L496 306 Q543 304 544 262 L544 248 L654 248 L654 282 Q652 401 511 402 L414 402 Q414 453 460 468 Q472 472 484 472 Q537 471 550 433 L645 465 Q617 548 529 567 Q507 572 485 572 Q410 571 362 525 Q314 571 239 571 Q146 571 100 505 Q87 487 80 465 Z " />
<glyph glyph-name="si_Ha" unicode="&#xdc4;" horiz-adv-x="712" d="M363 335 L363 355 Q365 450 432 451 L432 564 Q336 563 291 502 Q256 558 182 563 Q175 564 169 564 Q90 564 50 505 Q39 488 33 469 L115 448 Q128 479 167 480 Q219 480 224 436 Q225 431 225 427 L214 427 Q52 422 33 279 Q30 261 30 241 L30 197 Q30 66 120 16 Q164 -8 224 -8 L224 105 Q151 105 143 181 Q142 189 142 197 L142 234 Q142 307 208 313 Q216 314 224 314 L253 314 L253 250 L293 250 Q354 247 354 178 Q352 106 279 105 L279 -8 Q453 -6 454 160 L454 201 Q454 310 385 331 Q374 334 363 335 Z M488 -8 Q627 -8 668 110 Q682 151 682 203 L682 353 Q682 495 585 544 Q543 564 488 564 L488 451 Q570 449 571 346 L571 203 Q569 106 488 105 L488 -8 Z " />
<glyph glyph-name="si_Halant" unicode="&#xdca;" horiz-adv-x="168" d="M30 619 L30 819 L138 819 L138 619 L30 619 Z " />
<glyph glyph-name="si_I" unicode="&#xd89;" horiz-adv-x="565" d="M195 0 L286 0 Q408 0 479 82 Q535 149 535 249 L535 386 Q535 485 451 539 Q395 575 327 575 L311 575 L311 464 Q425 462 426 354 L426 270 Q426 136 303 108 Q274 102 242 102 L195 102 L195 0 Z M67 -80 Q89 -161 170 -191 Q207 -204 249 -204 Q356 -204 406 -134 Q433 -95 433 -45 L324 -45 Q324 -80 284 -96 Q266 -103 248 -103 Q201 -103 180 -70 Q174 -62 172 -53 L67 -80 Z M27 316 Q27 234 95 197 Q134 176 187 176 Q336 178 338 281 L338 365 L234 365 L234 331 Q234 293 197 288 Q191 287 187 287 Q145 287 138 324 Q137 330 137 336 L137 376 Q137 434 198 456 Q219 464 240 464 L256 464 L256 575 L240 575 Q147 575 83 515 Q27 463 27 388 L27 316 Z " />
<glyph glyph-name="si_Ii" unicode="&#xd8a;" horiz-adv-x="585" d="M30 239 Q30 68 146 14 Q190 -6 241 -6 L241 109 Q164 109 147 176 Q141 200 141 235 L141 419 Q141 468 156 492 Q170 513 199 540 L436 764 L319 793 L100 593 Q36 534 31 459 Q30 447 30 427 L30 239 Z M193 462 L193 458 L301 458 Q366 458 384 417 Q395 390 395 337 L395 235 Q395 142 350 119 Q329 109 297 109 L297 -5 Q467 -5 498 149 Q506 188 506 234 L506 366 Q504 563 348 564 L295 564 L193 462 Z M430 661 Q430 620 467 599 Q484 589 503 589 Q546 589 567 627 Q576 643 576 661 Q576 704 538 725 Q521 734 503 734 Q460 734 439 696 Q430 679 430 661 Z M50 769 Q50 728 87 707 Q104 697 123 697 Q166 697 187 735 Q196 751 196 769 Q196 812 158 833 Q141 842 123 842 Q80 842 59 804 Q50 787 50 769 Z " />
<glyph glyph-name="si_Ja" unicode="&#xda2;" horiz-adv-x="643" d="M30 465 L125 433 Q139 471 191 472 Q237 472 255 435 Q262 420 262 402 L197 402 Q77 402 47 325 Q34 293 34 248 L144 248 Q144 298 188 305 Q196 306 205 306 L425 306 Q476 306 482 267 Q483 259 483 248 L593 248 Q593 360 518 389 Q482 402 422 402 L364 402 Q364 454 411 468 Q423 472 435 472 Q487 471 500 433 L595 465 Q567 546 481 567 L628 761 L514 791 L312 525 Q265 571 190 571 Q93 571 47 501 Q37 484 30 465 Z M286 -10 L342 -10 Q584 -10 593 184 Q593 192 593 199 L482 199 Q478 98 347 97 L278 97 Q154 97 145 183 Q144 191 144 199 L33 199 Q33 48 156 7 Q209 -10 286 -10 Z " />
<glyph glyph-name="si_Jha" unicode="&#xda3;" horiz-adv-x="1128" d="M30 170 L42 173 Q65 172 65 129 L65 108 Q65 49 124 14 Q159 -6 197 -6 Q254 -5 286 36 Q324 -6 384 -6 Q451 -6 492 45 Q521 81 521 130 L521 224 Q521 321 452 356 Q439 363 424 368 L344 303 Q403 287 414 249 Q418 234 418 213 L418 148 Q418 116 386 106 Q378 104 371 104 Q338 104 329 133 Q327 141 327 148 L327 199 L245 199 L245 147 Q245 113 213 106 Q208 105 203 105 Q171 105 162 132 Q159 139 159 147 L159 192 Q159 201 154 214 L403 419 Q465 470 546 470 Q614 469 650 435 Q569 394 569 275 L569 152 Q569 60 643 17 Q685 -6 739 -6 Q801 -5 836 42 Q876 -6 944 -6 Q1033 -6 1075 63 Q1098 102 1098 152 L1098 518 Q1098 708 950 745 Q908 755 856 755 L856 645 Q946 645 971 591 Q986 559 986 503 L986 158 Q986 127 959 112 Q946 105 929 105 Q885 105 876 145 Q874 152 874 158 L874 199 L791 199 L791 158 Q791 126 763 111 Q750 105 735 105 Q692 105 681 145 Q679 152 679 158 L679 273 Q679 351 746 364 Q758 366 771 366 L792 366 Q783 508 663 557 Q612 578 550 578 Q428 577 331 505 L328 502 Q301 548 233 562 Q213 566 193 566 Q113 566 65 513 Q40 483 31 443 L125 413 Q134 455 174 465 Q183 468 193 468 Q233 467 250 438 L30 255 L30 170 Z M594 638 L702 600 Q726 645 800 645 L800 755 Q698 755 633 693 Q608 668 594 638 Z " />
<glyph glyph-name="si_Jnya" unicode="&#xda5;" horiz-adv-x="1074" d="M786 -6 L824 -6 Q919 -6 981 57 Q1012 89 1026 132 L925 159 Q899 102 824 102 L786 102 Q713 102 689 153 Q681 169 681 187 Q681 244 738 261 Q758 267 782 267 L969 267 L969 371 Q969 555 751 566 Q732 567 705 567 L705 453 Q786 453 819 436 Q855 415 856 375 L781 375 Q661 374 605 295 Q579 331 542 336 L542 353 Q544 443 615 453 Q622 454 629 454 L650 454 L650 567 L629 567 Q466 566 437 416 Q432 386 432 353 L432 250 L477 250 Q533 244 533 178 Q531 106 458 105 L458 -8 Q574 -7 614 68 Q674 -6 786 -6 Z M30 200 Q30 88 77 10 Q90 -11 106 -32 L211 1 Q152 71 142 133 Q138 159 138 200 L138 287 Q138 391 163 424 Q185 450 225 451 Q208 406 208 353 L208 203 Q209 59 307 12 Q348 -8 402 -8 L402 105 Q321 107 320 203 L320 346 Q322 450 402 451 L402 564 L265 564 Q105 564 58 464 Q30 405 30 287 L30 200 Z M894 -210 Q1007 -210 1057 -126 Q1068 -106 1074 -85 L968 -58 Q959 -97 914 -107 Q905 -109 895 -109 Q850 -109 830 -77 Q822 -64 822 -51 L713 -51 Q713 -142 789 -185 Q834 -210 894 -210 Z " />
<glyph glyph-name="si_Ka" unicode="&#xd9a;" horiz-adv-x="788" d="M31 443 L125 413 Q134 455 174 465 Q183 468 193 468 Q232 467 251 437 L30 255 L30 170 L42 173 Q65 172 65 129 L65 108 Q65 49 124 14 Q159 -6 197 -6 Q254 -5 286 36 Q324 -6 384 -6 Q451 -6 492 45 Q521 81 521 130 L521 224 Q521 321 452 356 Q439 363 424 368 L344 303 Q403 287 414 249 Q418 234 418 213 L418 148 Q418 116 386 106 Q378 104 371 104 Q338 104 329 133 Q327 141 327 148 L327 199 L245 199 L245 147 Q245 113 213 106 Q208 105 203 105 Q171 105 162 132 Q159 139 159 147 L159 192 Q159 201 154 214 L403 419 Q449 459 506 459 Q579 459 620 401 Q647 362 647 309 L647 201 Q645 113 568 112 L568 -1 Q757 1 758 201 L758 319 Q758 470 651 535 Q593 570 520 570 Q413 569 328 502 Q301 548 233 562 Q213 566 193 566 Q113 566 65 513 Q40 483 31 443 Z " />
<glyph glyph-name="si_Kha" unicode="&#xd9b;" horiz-adv-x="614" d="M432 -6 Q517 -6 558 66 Q584 113 584 182 L584 504 Q584 723 411 751 Q383 755 352 755 L326 755 L326 645 L352 645 Q440 645 462 580 Q472 550 472 504 L472 166 Q472 127 436 117 Q428 115 421 115 Q386 115 374 145 Q370 155 370 166 L370 295 Q370 387 292 429 Q252 450 204 450 Q119 450 69 391 Q30 344 30 276 L30 186 Q30 38 141 8 Q173 0 213 0 L213 111 Q154 111 142 156 Q138 172 138 195 L138 268 Q138 318 178 334 Q189 338 200 338 Q239 338 255 302 Q262 286 262 268 L262 -65 L370 -65 L370 5 Q402 -6 432 -6 Z M154 537 Q154 623 233 641 Q251 645 270 645 L270 755 Q175 755 107 695 Q46 640 45 565 L154 537 Z " />
<glyph glyph-name="si_La" unicode="&#xdbd;" horiz-adv-x="620" d="M256 220 Q256 114 339 79 Q373 65 418 65 Q524 65 568 147 Q590 189 590 246 L590 332 Q590 568 352 574 Q346 574 340 574 L340 463 Q479 461 480 332 L480 246 Q480 196 441 182 Q430 178 418 178 Q369 178 360 221 Q359 228 359 235 L359 262 L411 262 L411 355 L205 355 L205 262 L256 262 L256 220 Z M279 -170 L279 -59 Q167 -59 145 32 Q141 52 141 74 L141 329 Q141 439 239 459 Q257 463 279 463 L279 574 Q105 574 52 449 Q30 397 30 329 L30 74 Q30 -108 181 -156 Q226 -170 279 -170 Z M340 -61 L340 -172 Q533 -172 578 -16 Q580 -9 581 -4 L474 26 Q446 -60 340 -61 Z " />
<glyph glyph-name="si_Lla" unicode="&#xdc5;" horiz-adv-x="609" d="M113 419 L207 432 Q209 481 250 482 Q287 482 292 441 Q292 438 292 436 L363 436 Q363 471 392 479 Q398 481 404 481 Q443 475 446 437 L540 437 Q540 528 469 560 Q441 572 406 572 Q356 571 329 539 Q298 572 247 572 Q159 572 127 506 Q113 478 113 443 L113 419 Z M30 77 Q30 -92 160 -148 Q214 -170 283 -170 L283 -59 Q166 -59 145 36 Q141 55 141 76 L141 160 Q141 185 145 200 Q171 124 242 92 Q279 76 322 76 L361 76 Q469 76 522 159 Q533 177 541 196 L449 220 Q430 177 369 172 Q363 172 358 172 L328 172 Q269 172 235 227 Q220 251 215 280 Q227 283 239 283 L541 283 L541 388 L216 387 Q140 387 85 332 Q30 277 30 194 L30 77 Z M344 -59 L344 -170 Q532 -170 580 -31 Q586 -15 589 1 L482 31 Q458 -58 344 -59 Z " />
<glyph glyph-name="si_Ma" unicode="&#xdb8;" horiz-adv-x="591" d="M30 252 L30 310 Q30 414 99 456 Q129 473 161 473 Q220 473 247 425 Q261 400 261 369 L261 338 Q264 317 284 315 Q304 319 307 338 L307 469 L384 469 L384 331 Q384 260 325 236 Q306 229 286 229 Q230 229 203 270 Q190 291 190 317 L190 343 Q190 369 168 373 Q165 374 163 374 Q140 374 133 345 Q132 338 132 330 L132 252 Q134 108 256 107 L256 -4 Q73 -4 37 171 Q30 209 30 252 Z M312 -4 L312 107 Q407 107 435 165 Q450 198 450 249 L450 503 Q450 614 374 637 Q349 644 312 644 L312 754 Q560 752 561 503 L561 249 Q559 -3 312 -4 Z M33 564 Q33 652 115 709 Q180 754 256 754 L256 644 Q179 644 152 588 Q142 565 142 536 L33 564 Z " />
<glyph glyph-name="si_MatraAa" unicode="&#xdcf;" horiz-adv-x="272" d="M30 0 L30 113 L50 113 Q129 115 130 203 L130 361 Q125 455 50 458 L30 458 L30 571 L50 571 Q215 571 239 417 Q242 393 242 368 L242 203 Q242 31 102 5 Q77 0 50 0 L30 0 Z " />
<glyph glyph-name="si_MatraAae" unicode="&#xdd1;" horiz-adv-x="277" d="M36 213 L36 173 Q36 26 175 4 Q198 0 223 0 L247 0 L247 113 L223 113 Q149 115 148 190 L148 213 Q148 242 164 259 Q180 276 247 325 L247 415 L166 415 L247 484 L247 574 L36 574 L36 484 L115 484 L36 415 L36 325 L104 325 Q47 280 39 248 Q36 235 36 213 Z " />
<glyph glyph-name="si_MatraAe" unicode="&#xdd0;" horiz-adv-x="271" d="M217 0 L241 0 L241 113 L217 113 Q149 113 143 183 Q142 190 142 196 L142 266 Q142 319 159 350 Q173 377 241 469 L241 574 L30 574 L30 464 L112 464 Q50 383 39 350 Q30 321 30 274 L30 201 Q30 49 146 11 Q178 0 217 0 Z " />
<glyph glyph-name="si_MatraAi" unicode="&#xddb;" horiz-adv-x="888" d="M249 460 Q312 460 325 411 Q326 408 326 406 L424 431 Q416 491 367 531 Q325 564 270 564 L208 564 Q77 564 41 446 Q30 410 30 371 L30 198 Q30 61 108 15 Q142 -5 188 -5 L209 -5 L209 99 Q148 99 139 166 Q137 180 137 198 L137 371 Q137 437 186 455 Q200 460 216 460 L249 460 Z M233 250 L269 250 Q308 250 316 233 Q320 225 320 214 L320 161 Q318 100 257 99 L257 -5 L286 -5 Q371 -5 408 71 Q427 109 427 157 L427 255 Q427 346 339 353 Q330 354 320 354 L233 354 L233 250 Z M680 463 Q743 463 756 414 Q757 411 757 409 L855 434 Q847 494 798 534 Q756 567 701 567 L639 567 Q508 567 472 449 Q461 413 461 374 L461 201 Q461 64 539 18 Q573 -2 619 -2 L640 -2 L640 102 Q579 102 570 169 Q568 183 568 201 L568 374 Q568 440 617 458 Q631 463 647 463 L680 463 Z M664 253 L700 253 Q739 253 747 236 Q751 228 751 217 L751 164 Q749 103 688 102 L688 -2 L717 -2 Q802 -2 839 74 Q858 112 858 160 L858 258 Q858 349 770 356 Q761 357 751 357 L664 357 L664 253 Z " />
<glyph glyph-name="si_MatraAu" unicode="&#xdde;" horiz-adv-x="1017" d="M249 460 Q312 460 325 411 Q326 408 326 406 L424 431 Q416 491 367 531 Q325 564 270 564 L208 564 Q77 564 41 446 Q30 410 30 371 L30 198 Q30 61 108 15 Q142 -5 188 -5 L209 -5 L209 99 Q148 99 139 166 Q137 180 137 198 L137 371 Q137 437 186 455 Q200 460 216 460 L249 460 Z M233 250 L269 250 Q308 250 316 233 Q320 225 320 214 L320 161 Q318 100 257 99 L257 -5 L286 -5 Q371 -5 408 71 Q427 109 427 157 L427 255 Q427 346 339 353 Q330 354 320 354 L233 354 L233 250 Z M820 -8 Q909 -8 962 51 Q1001 97 1001 161 L1001 445 Q1000 525 938 557 Q913 570 885 570 Q822 570 791 523 Q775 497 775 463 L775 434 Q771 409 748 406 Q726 406 722 426 Q721 431 721 434 L721 564 L644 564 L644 408 Q644 333 704 305 Q726 295 750 295 Q806 295 833 337 Q846 359 846 386 L846 435 Q850 463 873 466 Q894 466 898 443 Q899 438 899 435 L899 161 Q899 108 850 94 Q838 90 825 90 Q776 90 755 126 Q746 142 746 161 L746 202 L644 202 L644 161 Q644 59 728 14 Q770 -8 820 -8 Z " />
<glyph glyph-name="si_MatraE" unicode="&#xdd9;" horiz-adv-x="457" d="M249 460 Q312 460 325 411 Q326 408 326 406 L424 431 Q416 491 367 531 Q325 564 270 564 L208 564 Q77 564 41 446 Q30 410 30 371 L30 198 Q30 61 108 15 Q142 -5 188 -5 L209 -5 L209 99 Q148 99 139 166 Q137 180 137 198 L137 371 Q137 437 186 455 Q200 460 216 460 L249 460 Z M233 250 L269 250 Q308 250 316 233 Q320 225 320 214 L320 161 Q318 100 257 99 L257 -5 L286 -5 Q371 -5 408 71 Q427 109 427 157 L427 255 Q427 346 339 353 Q330 354 320 354 L233 354 L233 250 Z " />
<glyph glyph-name="si_MatraEe" unicode="&#xdda;" horiz-adv-x="768" d="M249 460 Q312 460 325 411 Q326 408 326 406 L424 431 Q416 491 367 531 Q325 564 270 564 L208 564 Q77 564 41 446 Q30 410 30 371 L30 198 Q30 61 108 15 Q142 -5 188 -5 L209 -5 L209 99 Q148 99 139 166 Q137 180 137 198 L137 371 Q137 437 186 455 Q200 460 216 460 L249 460 Z M233 250 L269 250 Q308 250 316 233 Q320 225 320 214 L320 161 Q318 100 257 99 L257 -5 L286 -5 Q371 -5 408 71 Q427 109 427 157 L427 255 Q427 346 339 353 Q330 354 320 354 L233 354 L233 250 Z M630 619 L738 619 L738 819 L630 819 L630 619 Z " />
<glyph glyph-name="si_MatraI" unicode="&#xdd2;" d="M-576 602 L-576 630 Q-576 714 -506 759 Q-460 789 -400 789 L-229 789 Q-137 789 -86 726 Q-53 684 -53 630 L-53 602 L-157 602 Q-157 683 -243 685 Q-244 685 -245 685 L-384 685 Q-471 682 -472 602 L-576 602 Z " />
<glyph glyph-name="si_MatraIi" unicode="&#xdd3;" d="M-150 568 Q-90 568 -64 621 Q-52 646 -52 674 Q-52 747 -116 783 Q-153 803 -198 803 L-425 803 Q-512 803 -564 739 Q-601 693 -601 635 L-601 602 L-497 602 Q-497 668 -449 691 Q-431 699 -409 699 L-254 699 Q-242 699 -232 698 Q-246 676 -246 654 Q-246 604 -200 580 Q-177 568 -150 568 Z " />
<glyph glyph-name="si_MatraLl" unicode="&#xdf3;" horiz-adv-x="411" d="M203 -8 Q112 -8 62 53 Q26 98 26 161 L26 202 L128 202 L128 161 Q128 113 175 96 Q191 90 207 90 Q259 90 276 130 Q282 145 282 161 L282 435 Q282 461 260 465 Q257 466 255 466 Q231 460 228 435 L228 386 Q228 327 175 304 Q154 295 132 295 Q73 295 43 343 Q26 371 26 408 L26 564 L103 564 L103 434 Q107 409 130 406 Q154 412 157 434 L157 463 Q157 533 217 560 Q241 570 267 570 Q328 570 362 520 Q382 488 383 445 L383 161 Q383 62 300 16 Q256 -8 203 -8 Z " />
<glyph glyph-name="si_MatraLs" unicode="&#xddf;" horiz-adv-x="411" d="M200 -8 Q111 -8 60 53 Q24 97 24 161 L24 202 L126 202 L126 161 Q126 113 173 96 Q189 90 205 90 Q254 90 272 129 Q279 144 279 161 L279 435 Q275 463 253 466 Q229 460 226 435 L226 386 Q226 327 173 304 Q152 295 130 295 Q71 295 41 343 Q24 371 24 408 L24 564 L101 564 L101 434 Q105 409 128 406 Q152 412 155 434 L155 463 Q155 533 215 560 Q239 570 265 570 Q326 570 360 520 Q380 488 381 445 L381 161 Q381 63 298 17 Q253 -8 200 -8 Z " />
<glyph glyph-name="si_MatraO" unicode="&#xddc;" horiz-adv-x="796" d="M249 460 Q312 460 325 411 Q326 408 326 406 L424 431 Q416 491 367 531 Q325 564 270 564 L208 564 Q77 564 41 446 Q30 410 30 371 L30 198 Q30 61 108 15 Q142 -5 188 -5 L209 -5 L209 99 Q148 99 139 166 Q137 180 137 198 L137 371 Q137 437 186 455 Q200 460 216 460 L249 460 Z M233 250 L269 250 Q308 250 316 233 Q320 225 320 214 L320 161 Q318 100 257 99 L257 -5 L286 -5 Q371 -5 408 71 Q427 109 427 157 L427 255 Q427 346 339 353 Q330 354 320 354 L233 354 L233 250 Z M554 0 L574 0 Q739 0 763 154 Q766 177 766 203 L766 368 Q766 540 626 566 Q601 571 574 571 L554 571 L554 458 L574 458 Q649 458 654 372 Q654 366 654 361 L654 203 Q652 114 574 113 L554 113 L554 0 Z " />
<glyph glyph-name="si_MatraOo" unicode="&#xddd;" horiz-adv-x="796" d="M249 460 Q312 460 325 411 Q326 408 326 406 L424 431 Q416 491 367 531 Q325 564 270 564 L208 564 Q77 564 41 446 Q30 410 30 371 L30 198 Q30 61 108 15 Q142 -5 188 -5 L209 -5 L209 99 Q148 99 139 166 Q137 180 137 198 L137 371 Q137 437 186 455 Q200 460 216 460 L249 460 Z M233 250 L269 250 Q308 250 316 233 Q320 225 320 214 L320 161 Q318 100 257 99 L257 -5 L286 -5 Q371 -5 408 71 Q427 109 427 157 L427 255 Q427 346 339 353 Q330 354 320 354 L233 354 L233 250 Z M554 0 L574 0 Q739 0 763 154 Q766 177 766 203 L766 368 Q766 540 626 566 Q601 571 574 571 L554 571 L554 458 L574 458 Q649 458 654 372 Q654 366 654 361 L654 203 Q652 114 574 113 L554 113 L554 0 Z M553 619 L661 619 L661 819 L553 819 L553 619 Z " />
<glyph glyph-name="si_MatraR" unicode="&#xdd8;" horiz-adv-x="357" d="M176 0 Q100 0 55 57 Q24 97 24 151 Q24 234 85 275 Q122 300 176 300 L188 300 L188 207 L176 207 Q134 207 122 171 Q119 161 119 151 Q119 117 151 102 Q163 96 176 96 Q210 96 225 127 Q230 139 230 151 L230 387 Q228 466 165 467 L75 467 L75 571 L177 571 Q261 571 302 498 Q327 454 327 398 L327 151 Q327 64 256 22 Q220 0 176 0 Z " />
<glyph glyph-name="si_MatraRr" unicode="&#xdf2;" horiz-adv-x="706" d="M182 0 Q106 0 61 57 Q30 97 30 151 Q30 233 90 274 Q129 300 182 300 L194 300 L194 207 L182 207 Q140 207 128 171 Q125 161 125 151 Q125 118 156 102 Q169 96 182 96 Q217 96 232 127 Q237 139 237 151 L237 387 Q233 466 171 467 L81 467 L81 571 L184 571 Q268 571 309 498 Q333 454 333 398 L333 151 Q333 63 263 22 Q226 0 182 0 Z M524 0 Q448 0 403 57 Q372 97 372 151 Q372 233 432 274 Q471 300 524 300 L536 300 L536 207 L524 207 Q484 207 471 172 Q467 162 467 151 Q467 118 498 102 Q511 96 524 96 Q559 96 574 127 Q579 138 579 151 L579 387 Q575 466 514 467 L424 467 L424 571 L526 571 Q610 571 651 498 Q676 454 676 398 L676 151 Q676 63 605 21 Q567 0 524 0 Z " />
<glyph glyph-name="si_MatraU" unicode="&#xdd4;" d="M-150 126 L-150 -94 L-249 -94 L-249 -205 L-39 -205 L-39 126 L-150 126 Z M-487 -94 L-487 -205 L-305 -205 L-305 -94 L-487 -94 Z " />
<glyph glyph-name="si_MatraUu" unicode="&#xdd6;" d="M-495 -63 L-495 -175 Q-457 -203 -423 -203 Q-404 -203 -351 -186 Q-323 -177 -305 -177 L-305 -65 Q-324 -65 -374 -82 Q-403 -92 -423 -92 Q-459 -91 -495 -63 Z M-151 -205 L-40 -205 L-40 123 L-151 123 L-151 -90 Q-197 -65 -249 -65 L-249 -177 Q-198 -178 -151 -205 Z " />
<glyph glyph-name="si_Mba" unicode="&#xdb9;" horiz-adv-x="600" d="M189 -11 Q96 -11 53 64 Q30 106 30 160 L30 347 Q30 426 95 460 Q124 475 157 475 Q224 475 254 426 Q270 400 270 366 L270 338 Q274 319 293 315 Q313 319 316 338 L316 469 L393 469 L393 331 Q393 260 334 236 Q315 229 295 229 Q240 229 213 270 Q200 291 200 317 L200 340 Q200 368 176 373 Q172 374 169 374 Q145 374 139 350 Q138 344 138 339 L138 166 Q138 127 169 110 Q180 104 192 104 Q222 106 223 138 Q223 183 236 195 Q246 204 261 204 L336 204 Q375 196 374 138 Q376 105 405 104 Q439 104 454 140 Q459 153 459 167 L459 504 Q459 625 367 642 Q348 645 325 645 L325 755 Q569 753 570 513 L570 160 Q570 59 499 14 Q460 -11 409 -11 Q357 -10 340 25 Q327 45 327 88 Q326 119 299 120 Q272 118 271 88 Q271 45 258 25 Q240 -10 189 -11 Z M151 537 L43 565 Q43 655 126 712 Q191 755 268 755 L268 645 Q182 645 158 581 Q151 561 151 537 Z " />
<glyph glyph-name="si_Na" unicode="&#xdb1;" horiz-adv-x="749" d="M529 -6 Q718 -4 719 196 L719 337 Q719 465 618 530 Q554 571 475 571 Q380 570 317 515 Q286 551 226 563 Q210 566 195 566 Q112 566 65 512 Q40 483 32 443 L127 413 Q135 455 175 465 Q185 468 195 468 Q233 468 251 439 Q253 436 254 434 Q245 422 229 398 Q214 377 209 370 Q154 292 126 290 L126 344 L30 344 L30 256 Q30 103 135 33 Q197 -7 279 -7 Q396 -7 458 76 Q499 131 499 201 Q499 296 432 347 Q415 360 396 368 L334 286 Q386 260 387 204 Q387 146 337 117 Q310 101 277 101 Q177 102 142 180 Q189 187 252 264 Q264 279 281 301 L359 404 Q403 460 470 461 Q539 461 580 408 Q608 372 608 323 L608 196 Q606 108 529 107 L529 -6 Z " />
<glyph glyph-name="si_Nda" unicode="&#xdb3;" horiz-adv-x="722" d="M434 0 L472 0 Q568 0 630 63 Q660 95 674 138 L573 165 Q547 108 472 108 L434 108 Q349 108 327 164 Q321 180 321 198 Q323 291 430 292 L616 292 L617 386 Q617 514 512 558 Q470 576 418 576 Q343 575 292 542 Q265 547 245 547 Q144 547 83 469 Q30 400 30 295 L30 209 Q30 98 66 30 Q80 3 100 -23 L205 10 Q149 76 141 138 Q138 162 138 209 L138 295 Q138 397 209 429 Q234 440 262 440 Q295 440 327 428 L330 427 Q351 475 418 478 Q471 478 498 444 Q513 425 513 399 L433 399 Q283 399 230 301 Q207 257 207 198 Q207 72 316 23 Q368 0 434 0 Z M542 -204 Q655 -204 705 -121 Q716 -101 722 -80 L616 -53 Q607 -93 560 -101 Q551 -103 543 -103 Q497 -103 477 -70 Q470 -59 470 -45 L361 -45 Q361 -138 439 -180 Q484 -204 542 -204 Z " />
<glyph glyph-name="si_Ndja" unicode="&#xda6;" horiz-adv-x="810" d="M452 -10 L508 -10 Q750 -10 759 184 Q759 192 759 199 L648 199 Q646 98 514 97 L445 97 Q322 97 311 180 Q310 190 310 199 L199 199 Q199 48 322 7 Q375 -10 452 -10 Z M103 -31 L207 2 Q148 72 139 134 Q135 160 135 200 L135 319 Q135 441 215 449 Q220 449 225 449 Q241 449 256 445 L292 433 Q306 471 357 472 Q403 472 421 435 Q428 420 428 402 L363 402 Q243 402 213 325 Q200 293 200 248 L310 248 Q310 298 354 305 Q362 306 371 306 L591 306 Q642 306 648 267 Q649 259 649 248 L759 248 Q759 360 684 389 Q648 402 588 402 L530 402 Q530 454 577 468 Q589 472 601 472 Q654 471 667 433 L762 465 Q732 546 647 567 L794 761 L680 791 L478 525 Q431 571 356 571 Q310 571 273 553 Q247 556 219 556 Q127 556 72 480 Q30 421 30 337 L30 197 Q30 91 67 23 Q82 -3 103 -31 Z " />
<glyph glyph-name="si_Nga" unicode="&#xd9e;" horiz-adv-x="589" d="M200 -6 Q262 -5 297 42 Q338 -6 405 -6 Q494 -6 536 63 Q559 102 559 152 L559 517 Q559 697 432 739 Q386 754 323 754 L323 643 Q406 643 431 597 Q447 565 447 501 L447 158 Q447 127 421 112 Q407 105 391 105 Q346 105 337 145 Q335 152 335 158 L335 199 L252 199 L252 158 Q252 125 224 111 Q212 105 197 105 Q153 105 142 145 Q140 152 140 158 L140 220 Q140 258 173 265 Q186 268 204 268 L244 268 Q316 268 345 329 Q357 355 357 383 Q357 446 309 478 Q281 497 244 497 L173 497 Q91 497 63 433 Q53 409 53 382 L134 382 Q139 412 174 414 L239 414 Q266 414 270 389 Q271 385 271 383 Q271 358 247 352 Q242 351 238 351 L166 351 Q61 351 39 282 Q30 254 30 206 L30 152 Q30 60 104 17 Q146 -6 200 -6 Z M36 564 L144 535 Q144 616 222 638 Q243 644 267 644 L267 754 Q174 754 103 696 Q37 640 36 564 Z " />
<glyph glyph-name="si_Nna" unicode="&#xdab;" horiz-adv-x="1001" d="M3 20 L109 -7 Q122 22 157 30 Q167 32 176 32 Q199 32 271 11 Q311 0 335 0 Q434 0 479 92 Q505 147 505 224 L505 355 Q504 485 453 543 L618 760 L502 790 L356 598 Q320 606 279 606 Q177 606 114 540 Q60 483 60 398 Q60 289 135 233 Q182 199 240 199 L314 199 L314 306 L261 306 Q191 306 172 370 Q168 385 168 399 Q168 448 206 478 Q235 501 279 501 Q399 499 400 355 L400 224 Q399 112 314 111 Q296 111 229 127 Q189 137 159 137 Q81 137 27 63 Q12 42 3 20 Z M652 248 L759 248 L759 389 Q759 440 798 449 Q804 450 810 450 Q860 448 861 389 L861 248 L971 248 L971 413 Q971 522 881 553 Q852 563 817 563 Q747 562 709 518 Q673 562 612 563 Q553 563 523 533 L558 432 Q573 450 600 450 Q638 450 649 404 Q652 390 652 374 L652 248 Z M546 163 Q546 68 631 22 Q684 -6 758 -6 Q871 -6 930 61 Q971 108 971 175 L971 199 L861 199 L861 178 Q861 119 793 103 Q776 99 757 99 Q696 99 669 138 Q657 156 657 179 L657 199 L546 199 L546 163 Z " />
<glyph glyph-name="si_Nndda" unicode="&#xdac;" horiz-adv-x="771" d="M382 -6 Q444 -5 479 42 Q520 -6 588 -6 Q675 -6 717 61 Q741 101 741 152 L741 518 Q741 697 616 740 Q570 755 506 755 L506 645 Q590 645 614 596 Q629 564 629 503 L629 158 Q629 127 603 112 Q589 105 573 105 Q530 105 519 144 Q517 151 517 158 L517 199 L434 199 L434 158 Q434 125 406 111 Q394 105 379 105 Q335 105 324 145 Q322 152 322 158 L322 209 Q324 253 369 254 L517 254 L517 336 Q517 426 452 469 Q413 495 358 495 Q316 495 282 479 Q249 488 219 488 Q127 488 73 417 Q30 360 30 281 L30 196 Q30 88 70 18 Q82 -2 97 -22 L202 11 Q144 79 135 140 Q132 163 132 195 L132 259 Q132 372 207 385 Q216 386 224 386 Q250 385 291 370 L294 369 Q311 400 358 400 Q398 400 415 368 Q422 354 422 338 L186 338 L186 254 L228 254 Q214 245 214 209 L214 152 Q214 60 288 17 Q329 -6 382 -6 Z M219 565 L328 537 Q328 616 404 639 Q426 645 450 645 L450 755 Q356 755 285 696 Q220 641 219 565 Z " />
<glyph glyph-name="si_Nnga" unicode="&#xd9f;" horiz-adv-x="891" d="M30 209 Q30 98 66 30 Q80 3 100 -23 L205 10 Q149 76 141 138 Q138 162 138 209 L138 287 Q138 391 163 424 Q185 450 225 451 Q208 406 208 353 L208 203 Q209 59 307 12 Q348 -8 402 -8 L402 105 Q321 107 320 203 L320 346 Q322 450 402 451 L402 564 L265 564 Q105 564 58 464 Q30 405 30 287 L30 209 Z M667 -8 Q806 -8 847 110 Q861 151 861 203 L861 353 Q861 495 764 544 Q722 564 667 564 L667 451 Q749 449 750 346 L750 203 Q748 106 667 105 L667 -8 Z M432 250 L477 250 Q533 244 533 178 Q531 106 458 105 L458 -8 Q632 -6 633 160 L633 201 Q633 315 556 334 Q549 335 542 336 L542 353 Q544 427 578 444 Q592 451 611 451 L611 564 Q433 562 432 353 L432 250 Z " />
<glyph glyph-name="si_Nya" unicode="&#xda4;" horiz-adv-x="1152" d="M197 170 L209 173 Q232 172 232 129 L232 108 Q232 49 290 15 Q326 -6 365 -6 Q421 -5 453 36 Q491 -6 551 -6 Q617 -6 658 43 Q670 58 677 74 Q738 -1 864 -1 L902 -1 Q997 -1 1059 61 Q1091 94 1105 137 L1003 164 Q977 107 902 107 L864 107 Q778 107 757 165 Q751 180 751 198 Q753 290 860 291 L1047 291 L1047 395 Q1047 563 851 588 Q819 592 784 592 L784 488 Q933 486 934 398 L863 398 Q725 397 668 313 Q644 350 591 368 L511 303 Q570 287 581 249 Q585 234 585 213 L585 148 Q585 116 554 106 Q546 104 539 104 Q505 104 496 134 Q494 141 494 148 L494 199 L412 199 L412 147 Q412 113 380 106 Q375 105 370 105 Q339 105 329 132 Q326 139 326 147 L326 192 Q326 201 321 214 L570 419 Q658 486 729 488 L729 593 Q623 593 531 529 Q514 516 495 501 Q470 545 406 561 Q383 566 360 566 Q298 565 254 533 Q239 536 217 536 Q129 536 76 462 Q30 398 30 297 L30 196 Q30 85 75 9 Q89 -14 106 -36 L211 -3 Q152 67 142 128 Q138 154 138 196 L138 297 Q143 424 223 429 Q241 429 269 420 L292 413 Q301 455 341 465 Q350 468 360 468 Q399 467 418 437 L197 255 L197 170 Z M973 -205 Q1084 -205 1134 -122 Q1145 -102 1152 -80 L1046 -53 Q1037 -92 992 -102 Q983 -104 974 -104 Q927 -104 908 -71 Q901 -59 901 -46 L792 -46 Q792 -137 868 -180 Q913 -205 973 -205 Z " />
<glyph glyph-name="si_Oo" unicode="&#xd95;" horiz-adv-x="598" d="M192 -6 Q260 -5 299 42 Q339 -6 406 -6 Q501 -6 544 63 Q568 102 568 152 L568 474 Q568 606 454 639 Q410 652 348 652 L222 652 Q185 652 177 679 Q176 684 176 688 Q176 720 211 724 Q217 725 222 725 L280 725 L280 819 L190 819 Q131 819 94 772 Q72 743 72 713 Q73 677 101 652 L66 652 L66 548 L348 548 Q426 548 447 513 Q459 492 459 458 L459 160 Q459 123 426 108 Q413 103 399 103 Q358 103 345 140 Q341 150 341 160 L341 199 L258 199 L258 160 Q258 124 226 109 Q214 103 200 103 Q158 103 143 139 Q139 150 139 160 L139 339 Q139 367 162 373 Q167 374 170 374 Q194 374 199 349 Q200 344 200 340 L200 317 Q200 261 252 238 Q273 229 296 229 Q355 229 381 276 Q394 300 394 331 L394 469 L317 469 L317 338 Q313 319 294 315 Q274 319 271 338 L271 366 Q271 438 208 465 Q184 475 157 475 Q91 475 54 426 Q30 393 30 349 L30 152 Q30 59 103 17 Q142 -6 192 -6 Z M453 673 L561 673 Q561 759 515 791 Q474 819 392 819 L336 819 L336 725 L370 725 Q428 725 442 709 Q453 696 453 673 Z " />
<glyph glyph-name="si_Os" unicode="&#xd94;" horiz-adv-x="598" d="M192 -6 Q260 -5 299 42 Q339 -6 406 -6 Q501 -6 544 63 Q568 102 568 152 L568 518 Q568 678 470 727 Q413 755 318 755 L318 645 Q401 645 430 614 Q459 582 459 510 L459 160 Q459 123 426 108 Q413 103 399 103 Q358 103 345 140 Q341 150 341 160 L341 199 L258 199 L258 160 Q258 124 226 109 Q214 103 200 103 Q158 103 143 139 Q139 150 139 160 L139 339 Q139 367 162 373 Q167 374 170 374 Q194 374 199 349 Q200 344 200 340 L200 317 Q200 258 253 237 Q273 229 293 229 Q349 229 378 273 Q394 298 394 331 L394 469 L317 469 L317 338 Q313 319 294 315 Q274 319 271 338 L271 366 Q271 438 208 465 Q184 475 157 475 Q91 475 54 426 Q30 393 30 349 L30 152 Q30 59 103 17 Q142 -6 192 -6 Z M144 537 Q144 622 223 641 Q241 645 261 645 L261 755 Q165 755 96 695 Q36 640 35 565 L144 537 Z " />
<glyph glyph-name="si_Pa" unicode="&#xdb4;" horiz-adv-x="626" d="M30 465 L125 433 Q139 471 191 472 Q237 472 255 435 Q262 420 262 402 L197 402 Q77 402 47 325 Q34 293 34 248 L144 248 Q144 298 188 305 Q196 306 205 306 L425 306 Q476 306 482 267 Q483 259 483 248 L593 248 Q593 360 518 389 Q482 402 422 402 L364 402 Q364 454 411 468 Q423 472 435 472 Q487 471 500 433 L595 465 Q569 545 483 566 Q460 572 436 572 Q361 571 313 525 Q265 571 190 571 Q93 571 47 501 Q37 484 30 465 Z M286 -10 L342 -10 Q584 -10 593 184 Q593 192 593 199 L482 199 Q478 98 347 97 L278 97 Q154 97 145 183 Q144 191 144 199 L33 199 Q33 48 156 7 Q209 -10 286 -10 Z " />
<glyph glyph-name="si_Pha" unicode="&#xdb5;" horiz-adv-x="562" d="M244 -4 L244 111 Q173 111 149 160 Q142 176 142 191 Q142 253 194 265 Q213 269 239 269 L313 269 L313 365 Q313 442 246 478 Q213 495 171 495 Q79 495 45 421 Q40 411 37 400 L118 379 Q129 409 171 410 Q215 410 226 378 Q228 370 228 363 Q131 362 84 322 Q35 283 32 210 Q32 200 32 189 Q32 103 101 45 Q161 -4 244 -4 Z M231 623 Q231 514 318 474 Q346 461 379 457 L379 530 Q301 541 300 622 L300 645 Q388 645 410 581 Q421 550 421 498 L421 247 Q420 112 300 111 L300 -4 Q531 -1 532 247 L532 517 Q532 746 318 755 Q309 755 300 755 L231 755 L231 623 Z " />
<glyph glyph-name="si_Ra" unicode="&#xdbb;" horiz-adv-x="536" d="M30 239 Q30 68 146 14 Q190 -6 241 -6 L241 109 Q164 109 147 176 Q141 200 141 235 L141 419 Q141 468 156 492 Q170 513 199 540 L436 764 L319 793 L100 593 Q36 534 31 459 Q30 447 30 427 L30 239 Z M193 462 L193 458 L301 458 Q366 458 384 417 Q395 390 395 337 L395 235 Q395 142 350 119 Q329 109 297 109 L297 -5 Q467 -5 498 149 Q506 188 506 234 L506 366 Q504 563 348 564 L295 564 L193 462 Z " />
<glyph glyph-name="si_Sa" unicode="&#xdc3;" horiz-adv-x="684" d="M70 154 Q70 62 144 19 Q188 -6 244 -6 Q319 -5 360 45 Q403 -6 481 -6 Q588 -6 632 68 Q654 105 654 154 L654 199 L544 199 L544 162 Q544 119 501 108 Q490 105 479 105 Q432 105 417 140 Q413 152 413 164 L413 199 L311 199 L311 164 Q311 119 266 108 Q256 105 245 105 Q198 105 184 140 Q180 151 180 162 L180 199 L70 199 L70 154 Z M80 465 L175 433 Q189 471 240 472 Q286 472 304 435 Q311 420 311 402 L30 402 L30 306 L81 306 Q71 299 71 274 Q70 269 70 248 L180 248 Q181 270 186 276 Q192 306 230 306 L496 306 Q532 304 538 277 Q544 271 544 248 L654 248 L654 282 Q652 401 511 402 L414 402 Q414 453 460 468 Q472 472 484 472 Q537 471 550 433 L645 465 Q617 548 529 567 Q507 572 485 572 Q410 571 362 525 Q314 571 239 571 Q146 571 100 505 Q87 487 80 465 Z " />
<glyph glyph-name="si_Sha" unicode="&#xdc1;" horiz-adv-x="713" d="M489 -8 Q628 -8 669 110 Q683 151 683 203 L683 353 Q683 495 586 544 Q544 564 489 564 L489 451 Q570 449 571 346 L571 203 Q569 106 489 105 L489 -8 Z M224 -8 L224 105 Q143 107 142 203 L142 346 Q144 450 224 451 L224 564 Q85 564 44 446 Q30 405 30 353 L30 203 Q30 61 127 12 Q169 -8 224 -8 Z M253 250 L293 250 Q354 248 355 178 Q353 106 280 105 L280 -8 Q454 -6 455 167 L455 170 Q467 234 554 235 L554 320 Q470 319 430 287 Q406 319 368 325 L364 325 L364 353 Q364 450 433 451 L433 564 Q254 562 253 353 L253 250 Z " />
<glyph glyph-name="si_Ssa" unicode="&#xdc2;" horiz-adv-x="648" d="M43 465 L138 433 Q152 471 204 472 Q251 472 268 432 Q273 420 274 406 L194 406 Q74 406 44 327 Q31 294 31 248 L141 248 Q141 299 181 307 Q190 309 202 309 L314 309 Q255 248 255 168 L362 169 Q363 246 441 309 L450 309 Q501 309 507 268 Q508 259 508 248 L618 248 Q618 363 543 392 Q507 406 447 406 L377 406 Q380 458 429 470 Q438 472 448 472 Q500 471 513 433 L608 465 Q582 545 496 566 Q473 572 449 572 Q373 571 326 525 Q278 571 202 571 Q107 571 61 502 Q50 485 43 465 Z M283 -10 L367 -10 Q598 -10 616 166 Q618 182 618 199 L507 199 Q507 103 390 97 Q381 97 373 97 L275 97 Q151 97 142 183 Q141 191 141 199 L30 199 Q30 48 153 7 Q206 -10 283 -10 Z " />
<glyph glyph-name="si_Ta" unicode="&#xdad;" horiz-adv-x="768" d="M30 166 Q37 168 46 168 Q72 168 93 133 Q95 129 100 120 Q108 106 112 100 Q184 -6 301 -7 Q420 -7 475 78 Q506 126 506 186 Q506 320 407 356 Q405 357 404 357 L324 292 Q388 273 398 223 Q400 210 400 193 Q400 136 350 112 Q326 101 299 101 Q234 101 194 159 Q187 168 176 186 Q162 209 154 219 L403 420 Q444 452 497 452 Q567 452 603 395 Q626 358 626 309 L626 201 Q624 113 547 112 L547 -1 Q736 1 737 201 L737 319 Q737 462 636 528 Q577 566 504 566 Q419 565 339 509 Q314 543 255 559 Q231 566 208 566 Q125 566 78 512 Q53 483 45 443 L140 413 Q148 455 188 465 Q198 468 208 468 Q240 467 259 445 L30 255 L30 166 Z " />
<glyph glyph-name="si_Tha" unicode="&#xdae;" horiz-adv-x="556" d="M225 623 Q225 514 312 474 Q340 461 373 457 L373 530 Q294 542 293 622 L293 645 Q381 645 403 582 Q414 551 414 498 L414 247 Q413 112 294 111 L294 -4 Q525 -1 526 247 L526 517 Q526 742 319 754 Q306 755 293 755 L225 755 L225 623 Z M30 264 L30 206 Q30 122 86 60 Q144 -4 238 -4 L238 111 Q175 111 150 168 Q140 191 140 216 L140 264 Q140 356 226 363 Q232 363 238 363 L238 473 Q31 472 30 264 Z " />
<glyph glyph-name="si_Tta" unicode="&#xda7;" horiz-adv-x="556" d="M32 264 Q35 472 240 473 L240 363 Q149 363 142 276 Q142 270 142 264 L142 216 Q142 153 186 123 Q210 107 240 107 L240 -4 Q122 -4 64 92 Q32 146 32 206 L32 264 Z M297 -4 L297 107 Q383 107 405 175 Q415 204 415 246 L415 510 Q415 623 338 641 Q320 645 297 645 L297 755 Q486 755 519 598 Q526 562 526 518 L526 238 Q526 46 378 6 Q341 -4 297 -4 Z M30 565 Q30 650 106 708 Q168 755 240 755 L240 645 Q181 645 154 597 Q139 571 139 537 L30 565 Z " />
<glyph glyph-name="si_Ttha" unicode="&#xda8;" horiz-adv-x="593" d="M204 -6 Q266 -5 301 42 Q341 -6 409 -6 Q498 -6 540 63 Q563 102 563 152 L563 517 Q563 742 356 754 Q343 755 330 755 L262 755 L262 623 Q262 514 349 474 Q377 461 410 457 L410 530 Q331 542 330 622 L330 645 Q418 645 440 582 Q451 551 451 498 L451 158 Q451 127 424 112 Q411 105 394 105 Q350 105 341 145 Q339 152 339 158 L339 199 L256 199 L256 158 Q256 126 228 111 Q215 105 200 105 Q157 105 146 145 Q144 152 144 158 L144 273 Q144 351 211 364 Q223 366 236 366 L263 366 L263 476 L236 476 Q35 475 34 275 L34 152 Q34 60 108 17 Q150 -6 204 -6 Z " />
<glyph glyph-name="si_U" unicode="&#xd8b;" horiz-adv-x="562" d="M324 -57 Q439 -55 462 34 L569 4 Q537 -149 363 -166 Q344 -168 324 -168 L324 -57 Z M128 464 Q148 533 233 562 Q272 575 313 575 Q430 575 483 497 Q512 452 513 388 L513 286 L268 286 Q165 286 147 188 Q142 163 142 133 L142 85 Q142 -18 230 -49 Q251 -56 268 -57 L268 -169 Q181 -169 111 -106 Q30 -32 30 85 L30 133 Q32 396 265 397 L409 397 Q406 456 344 473 Q328 477 314 477 Q251 477 227 442 Q223 436 221 429 L128 464 Z " />
<glyph glyph-name="si_Uu" unicode="&#xd8c;" horiz-adv-x="958" d="M324 -57 Q439 -55 462 34 L569 4 Q537 -149 363 -166 Q344 -168 324 -168 L324 -57 Z M128 464 Q148 533 233 562 Q272 575 313 575 Q430 575 483 497 Q512 452 513 388 L513 286 L268 286 Q165 286 147 188 Q142 163 142 133 L142 85 Q142 -18 230 -49 Q251 -56 268 -57 L268 -169 Q181 -169 111 -106 Q30 -32 30 85 L30 133 Q32 396 265 397 L409 397 Q406 456 344 473 Q328 477 314 477 Q251 477 227 442 Q223 436 221 429 L128 464 Z M761 -8 Q672 -8 621 53 Q585 97 585 161 L585 202 L687 202 L687 161 Q687 113 734 96 Q750 90 766 90 Q815 90 833 129 Q840 144 840 161 L840 435 Q836 463 813 466 Q792 466 787 444 Q786 439 786 435 L786 386 Q786 327 733 304 Q713 295 691 295 Q632 295 602 343 Q585 371 585 408 L585 564 L662 564 L662 434 Q666 409 689 406 Q711 406 715 426 Q716 431 716 434 L716 463 Q716 533 776 560 Q800 570 826 570 Q888 570 921 519 Q941 487 942 445 L942 161 Q942 63 859 17 Q814 -8 761 -8 Z " />
<glyph glyph-name="si_Va" unicode="&#xdc0;" horiz-adv-x="563" d="M245 -4 Q140 -4 77 70 Q33 123 33 189 Q33 263 62 299 Q72 312 85 322 Q132 363 229 363 Q229 400 189 408 Q181 410 172 410 Q129 409 119 379 L38 400 Q63 486 155 494 Q163 495 172 495 Q252 495 292 439 Q314 407 314 365 L314 269 L240 269 Q168 269 151 232 Q143 215 143 191 Q143 143 188 120 Q213 107 245 107 L245 -4 Z M301 -4 L301 107 Q421 109 422 247 L422 503 Q422 610 362 635 Q337 645 301 645 L301 755 Q512 755 531 560 Q533 540 533 518 L533 247 Q531 -2 301 -4 Z M30 565 Q30 649 107 707 Q171 755 245 755 L245 645 Q184 645 155 597 Q139 571 139 537 L30 565 Z " />
<glyph glyph-name="si_Ya" unicode="&#xdba;" horiz-adv-x="648" d="M30 154 Q30 62 104 19 Q148 -6 204 -6 Q279 -5 320 45 Q363 -6 441 -6 Q548 -6 592 68 Q614 105 614 154 L614 199 L504 199 L504 162 Q504 119 461 108 Q450 105 439 105 Q392 105 377 140 Q373 152 373 164 L373 199 L271 199 L271 164 Q271 119 226 108 Q216 105 205 105 Q158 105 144 140 Q140 151 140 162 L140 199 L30 199 L30 154 Z M294 306 L452 306 Q496 306 502 280 Q503 274 503 267 L503 248 L614 248 L614 277 Q612 401 479 402 L397 402 Q399 467 460 468 Q509 467 527 433 L616 464 Q573 564 460 565 Q328 565 301 444 Q294 414 294 380 L294 306 Z M30 248 L140 248 L140 324 Q140 447 228 458 Q237 459 245 459 L265 459 L265 563 L248 563 Q132 563 72 483 Q30 426 30 340 L30 248 Z " />
<glyph glyph-name="si_kundaliya" unicode="&#xdf4;" horiz-adv-x="1608" d="M569 479 L650 434 Q526 191 495 141 Q437 48 380 20 Q337 0 270 0 L150 0 L150 91 L270 91 Q337 91 380 136 Q421 180 501 341 Q504 347 569 479 Z M738 503 L819 459 L593 0 L511 45 L738 503 Z M838 386 L919 341 L750 0 L669 45 L838 386 Z M908 0 L827 45 L942 279 Q1145 150 1226 118 Q1295 92 1358 92 L1475 92 L1475 0 L1358 0 Q1228 0 1072 89 Q1032 112 979 146 L908 0 Z " />
<glyph glyph-name="si_vocalicL" unicode="&#xd8f;" horiz-adv-x="951" d="M449 -10 L504 -10 Q670 -9 726 80 Q728 30 772 5 Q793 -6 815 -6 Q866 -6 892 38 Q894 42 895 45 Q921 105 921 202 L816 202 Q816 181 815 171 Q776 170 750 142 Q755 172 755 199 L644 199 Q644 103 527 97 Q518 97 510 97 L441 97 Q313 97 306 188 Q306 194 306 199 L195 199 Q195 166 199 144 Q173 171 136 171 Q135 182 135 202 L30 202 Q30 101 56 45 Q77 0 125 -5 Q131 -6 136 -6 Q185 -6 212 37 Q223 56 225 76 Q281 -10 449 -10 Z M196 248 L306 248 Q306 298 350 305 Q358 306 367 306 L587 306 Q638 306 644 267 Q645 259 645 248 L755 248 Q755 360 680 389 Q644 402 584 402 L527 402 Q527 453 573 468 Q585 472 597 472 Q650 471 663 433 L702 446 Q715 449 728 449 Q801 449 814 361 Q816 344 816 326 L816 251 L921 251 L921 343 Q921 455 849 516 Q801 556 739 556 Q715 556 688 550 Q649 572 598 572 Q523 571 475 525 Q428 571 352 571 Q301 570 263 549 Q237 556 212 556 Q121 556 68 479 Q30 421 30 343 L30 251 L135 251 L135 326 Q136 448 223 449 Q238 449 250 446 L288 433 Q302 471 353 472 Q399 472 417 435 Q424 420 424 402 L359 402 Q239 402 209 325 Q196 293 196 248 Z " />
<glyph glyph-name="si_vocalicLL" unicode="&#xd90;" horiz-adv-x="1364" d="M30 202 Q30 101 56 45 Q77 0 125 -5 Q131 -6 136 -6 Q185 -6 212 37 Q223 56 225 76 Q281 -10 449 -10 L504 -10 Q670 -9 726 80 Q728 30 772 5 Q793 -6 815 -6 Q866 -6 892 38 Q894 42 895 45 Q921 105 921 202 L816 202 Q816 181 815 171 Q776 170 750 142 Q755 172 755 199 L644 199 Q644 103 527 97 Q518 97 510 97 L441 97 Q313 97 306 188 Q306 194 306 199 L195 199 Q195 166 199 144 Q173 171 136 171 Q135 182 135 202 L30 202 Z M196 248 L306 248 Q306 298 350 305 Q358 306 367 306 L587 306 Q638 306 644 267 Q645 259 645 248 L755 248 Q755 360 680 389 Q644 402 584 402 L527 402 Q527 453 573 468 Q585 472 597 472 Q650 471 663 433 L702 446 Q715 449 728 449 Q801 449 814 361 Q816 344 816 326 L816 251 L921 251 L921 343 Q921 455 849 516 Q801 556 739 556 Q715 556 688 550 Q649 572 598 572 Q523 571 475 525 Q428 571 352 571 Q301 570 263 549 Q237 556 212 556 Q121 556 68 479 Q30 421 30 343 L30 251 L135 251 L135 326 Q136 448 223 449 Q238 449 250 446 L288 433 Q302 471 353 472 Q399 472 417 435 Q424 420 424 402 L359 402 Q239 402 209 325 Q196 293 196 248 Z M1167 -8 Q1256 -8 1309 51 Q1348 97 1348 161 L1348 445 Q1346 526 1284 558 Q1259 570 1232 570 Q1169 570 1138 523 Q1122 497 1122 463 L1122 434 Q1118 409 1095 406 Q1071 412 1068 434 L1068 564 L991 564 L991 408 Q991 333 1051 305 Q1073 295 1097 295 Q1152 295 1179 337 Q1192 358 1192 386 L1192 435 Q1192 461 1214 465 Q1217 466 1219 466 Q1243 460 1246 435 L1246 161 Q1246 108 1196 93 Q1184 90 1171 90 Q1122 90 1101 127 Q1093 143 1093 161 L1093 202 L991 202 L991 161 Q991 59 1075 14 Q1117 -8 1167 -8 Z " />
<glyph glyph-name="si_vocalicR" unicode="&#xd8d;" horiz-adv-x="1008" d="M840 0 Q916 0 960 56 Q992 95 992 151 L992 398 Q992 495 928 543 Q890 571 842 571 L740 571 L740 467 L830 467 Q893 465 895 387 L895 151 Q895 114 862 100 Q851 96 840 96 Q804 96 789 128 Q783 139 783 151 Q783 191 819 204 Q830 207 840 207 L852 207 L852 300 L840 300 Q742 300 704 223 Q688 190 688 151 Q688 67 756 24 Q795 0 840 0 Z M30 154 Q30 62 104 19 Q148 -6 204 -6 Q279 -5 320 45 Q363 -6 441 -6 Q548 -6 592 68 Q614 105 614 154 L614 199 L504 199 L504 162 Q504 119 461 108 Q450 105 439 105 Q392 105 377 140 Q373 152 373 164 L373 199 L271 199 L271 164 Q271 119 226 108 Q216 105 205 105 Q158 105 144 140 Q140 151 140 162 L140 199 L30 199 L30 154 Z M40 465 L135 433 Q149 471 200 472 Q246 472 264 435 Q271 420 271 402 L173 402 Q31 400 30 282 L30 248 L140 248 Q140 264 141 267 Q145 305 188 306 L456 306 Q501 304 503 267 Q504 265 504 248 L614 248 L614 282 Q612 401 471 402 L373 402 Q373 454 420 468 Q432 472 444 472 Q497 471 510 433 L605 465 Q577 548 489 567 Q467 572 445 572 Q370 571 322 525 Q274 571 199 571 Q106 571 60 505 Q47 487 40 465 Z " />
<glyph glyph-name="si_vocalicRr" unicode="&#xd8e;" horiz-adv-x="1371" d="M30 154 Q30 62 104 19 Q148 -6 204 -6 Q279 -5 320 45 Q363 -6 441 -6 Q548 -6 592 68 Q614 105 614 154 L614 199 L504 199 L504 162 Q504 119 461 108 Q450 105 439 105 Q392 105 377 140 Q373 152 373 164 L373 199 L271 199 L271 164 Q271 119 226 108 Q216 105 205 105 Q158 105 144 140 Q140 151 140 162 L140 199 L30 199 L30 154 Z M40 465 L135 433 Q149 471 200 472 Q246 472 264 435 Q271 420 271 402 L173 402 Q31 400 30 282 L30 248 L140 248 Q140 264 141 267 Q145 305 188 306 L456 306 Q501 304 503 267 Q504 265 504 248 L614 248 L614 282 Q612 401 471 402 L373 402 Q373 454 420 468 Q432 472 444 472 Q497 471 510 433 L605 465 Q577 548 489 567 Q467 572 445 572 Q370 571 322 525 Q274 571 199 571 Q106 571 60 505 Q47 487 40 465 Z M840 0 Q916 0 960 56 Q992 95 992 151 L992 398 Q992 495 928 543 Q890 571 842 571 L740 571 L740 467 L830 467 Q893 465 895 387 L895 151 Q895 114 862 100 Q851 96 840 96 Q804 96 789 128 Q783 139 783 151 Q783 191 819 204 Q830 207 840 207 L852 207 L852 300 L840 300 Q742 300 704 223 Q688 190 688 151 Q688 67 756 24 Q795 0 840 0 Z M1204 0 Q1280 0 1324 56 Q1355 96 1355 151 L1355 398 Q1355 497 1291 544 Q1254 571 1206 571 L1103 571 L1103 467 L1193 467 Q1257 465 1259 387 L1258 151 Q1258 114 1225 100 Q1215 96 1204 96 Q1167 96 1152 129 Q1147 140 1147 151 Q1147 193 1184 204 Q1194 207 1204 207 L1216 207 L1216 300 L1204 300 Q1105 300 1067 222 Q1052 190 1052 151 Q1052 66 1120 24 Q1158 0 1204 0 Z " />
<glyph glyph-name="six" unicode="6" horiz-adv-x="513" d="M236 -1 L236 102 Q178 109 158 172 Q151 192 151 212 Q151 276 195 307 Q214 319 236 322 L236 425 Q172 424 140 386 Q140 569 226 594 Q231 595 236 596 L236 699 Q76 695 41 473 Q33 419 33 355 Q33 100 134 29 Q176 0 236 -1 Z M291 -1 Q377 -1 433 69 Q481 129 481 211 Q481 328 408 387 Q359 425 291 425 L291 322 Q344 314 366 263 Q376 239 376 212 Q376 156 337 122 Q316 106 291 102 L291 -1 Z M371 536 L456 594 Q423 661 352 688 Q321 699 290 699 L290 596 Q334 596 360 557 Q367 547 371 536 Z " />
<glyph glyph-name="slash" unicode="&#x2f;" horiz-adv-x="370" d="M47 -20 L222 719 L323 719 L149 -20 L47 -20 Z " />
<glyph glyph-name="space" unicode="&#x20;" horiz-adv-x="233" d="" />
<glyph glyph-name="sterling" unicode="&#xa3;" horiz-adv-x="434" d="M20 298 L78 298 L78 0 L409 0 L409 88 L183 88 L183 299 L325 299 L325 386 L184 386 L184 528 Q184 596 239 606 Q247 607 255 607 Q309 606 333 547 L414 587 Q394 659 326 690 Q322 691 320 692 Q287 705 251 705 L249 705 Q135 705 95 611 Q78 572 78 525 L78 385 L20 385 L20 298 Z " />
<glyph glyph-name="summation" unicode="&#x2211;" horiz-adv-x="642" d="M262 590 L185 692 L185 701 L528 701 L528 590 L262 590 Z M30 -140 L30 -23 L270 304 L30 624 L30 701 L114 701 L412 301 L170 -22 L528 -22 L528 -140 L30 -140 Z " />
<glyph glyph-name="t" unicode="t" horiz-adv-x="303" d="M16 448 L16 551 L84 551 L84 711 L190 711 L190 551 L256 551 L256 447 L190 447 L191 170 Q193 110 251 109 L272 109 L296 0 L249 0 Q122 0 94 97 Q84 132 84 180 L84 448 L16 448 Z " />
<glyph glyph-name="tcaron" unicode="&#x165;" horiz-adv-x="458" d="M235 591 L272 743 L373 743 L336 591 L235 591 Z M16 448 L16 551 L84 551 L84 711 L190 711 L190 551 L256 551 L256 447 L190 447 L191 170 Q193 110 251 109 L272 109 L296 0 L249 0 Q122 0 94 97 Q84 132 84 180 L84 448 L16 448 Z " />
<glyph glyph-name="thorn" unicode="&#xfe;" horiz-adv-x="422" d="M30 -182 L30 700 L130 700 L130 -182 L30 -182 Z M173 423 L173 518 L228 518 Q318 518 369 450 Q396 412 396 377 L396 139 Q396 87 351 45 Q304 0 232 0 L180 0 L180 95 L234 95 Q295 102 299 147 L299 372 Q299 405 260 418 Q245 423 228 423 L173 423 Z " />
<glyph glyph-name="three" unicode="3" horiz-adv-x="504" d="M269 -1 L269 102 Q341 105 361 159 Q367 176 367 196 Q367 275 287 293 Q261 298 229 298 L229 401 Q357 401 366 485 Q367 494 367 502 Q367 573 301 592 Q285 596 269 597 L269 700 Q363 700 421 638 Q471 585 471 504 Q470 398 400 349 Q470 299 471 195 Q471 80 378 27 Q328 -1 269 -1 Z M33 178 L130 197 Q136 125 196 106 Q207 102 214 102 L214 -1 Q130 1 74 70 Q35 120 33 178 Z M33 521 Q36 598 98 653 Q149 698 214 700 L214 597 Q138 584 130 505 Q130 503 130 502 L33 521 Z " />
<glyph glyph-name="threequarters" unicode="&#xbe;" horiz-adv-x="589" d="M161 349 L161 413 Q194 413 200 443 Q201 449 201 453 Q201 482 175 492 Q165 496 154 496 L138 496 L138 554 L154 554 Q193 554 200 588 Q201 592 201 596 Q201 628 172 636 Q166 637 161 637 L161 700 Q212 700 243 660 Q262 634 262 601 Q261 547 227 525 Q261 500 262 448 Q262 390 210 362 Q186 349 161 349 Z M464 0 L464 350 L530 350 L530 119 L557 119 L557 61 L530 61 L530 0 L464 0 Z M318 61 L318 119 L437 325 L437 205 L389 119 L437 119 L437 61 L318 61 Z M33 447 L92 458 Q94 418 132 412 Q133 412 134 412 L134 349 Q82 350 51 394 Q34 419 33 447 Z M33 601 Q35 656 84 685 Q108 699 134 700 L134 637 Q98 633 93 597 Q92 593 92 590 L33 601 Z M84 0 L516 700 L581 700 L153 0 L84 0 Z " />
<glyph glyph-name="threesuperior" unicode="&#xb3;" horiz-adv-x="230" d="M120 387 L120 436 Q152 438 160 463 Q162 470 162 476 Q160 518 102 519 L102 568 Q161 569 162 612 Q162 645 127 651 Q123 652 120 652 L120 701 Q171 701 197 662 Q211 640 211 613 Q210 566 180 544 Q210 522 211 475 Q211 416 158 394 Q139 387 120 387 Z M16 466 L62 475 Q68 442 96 436 L96 387 Q52 388 28 428 Q17 447 16 466 Z M16 622 Q17 663 54 688 Q74 700 96 701 L96 652 Q65 646 62 616 Q62 614 62 613 L16 622 Z " />
<glyph glyph-name="tilde" unicode="&#x2dc;" horiz-adv-x="333" d="M26 113 L26 197 Q65 219 96 219 Q121 219 167 196 Q202 178 227 178 Q262 179 307 206 L307 123 Q261 95 223 95 Q196 95 149 118 Q115 135 92 135 Q61 134 26 113 Z " />
<glyph glyph-name="trademark" unicode="&#x2122;" horiz-adv-x="420" d="M26 660 L26 700 L163 700 L163 660 L115 660 L115 484 L74 484 L74 660 L26 660 Z M186 484 L186 632 L189 632 L226 544 L226 484 L186 484 Z M186 676 L186 700 L218 700 L279 553 L319 644 L324 644 L324 558 L292 484 L266 484 L186 676 Z M337 484 L337 700 L377 700 L377 484 L337 484 Z " />
<glyph glyph-name="two" unicode="2" horiz-adv-x="499" d="M33 521 Q36 598 98 653 Q149 698 214 700 L214 597 Q185 597 159 571 Q134 545 130 502 L33 521 Z M54 0 L54 109 L458 109 L458 0 L54 0 Z M54 158 Q54 246 168 322 Q182 332 208 348 Q232 363 241 369 Q249 374 265 385 Q333 430 350 459 Q363 479 363 500 Q363 571 304 591 Q286 597 266 597 L266 700 Q400 700 447 597 Q466 554 466 501 Q466 420 406 364 Q382 342 346 318 Q331 308 299 289 Q220 243 197 212 Q178 186 177 158 L54 158 Z " />
<glyph glyph-name="twosuperior" unicode="&#xb2;" horiz-adv-x="225" d="M12 624 Q13 665 51 690 Q71 702 93 703 L93 654 Q73 654 63 634 Q59 625 58 615 L12 624 Z M20 389 L20 440 L201 440 L201 389 L20 389 Z M20 462 Q20 503 80 542 Q103 556 104 557 Q146 585 153 600 Q157 608 157 615 Q157 645 128 653 Q122 654 116 654 L116 703 Q185 703 202 645 Q206 630 206 615 Q206 571 162 538 Q155 534 148 529 Q141 524 127 516 Q88 492 81 475 Q79 468 79 462 L20 462 Z " />
<glyph glyph-name="u" unicode="u" horiz-adv-x="476" d="M38 147 L38 554 L146 554 L146 159 Q146 127 178 110 Q195 101 216 101 L216 -5 Q119 -5 65 71 Q38 110 38 147 Z M260 -5 L260 101 Q310 101 326 140 Q330 150 330 159 L330 554 L438 554 L438 147 Q438 100 396 54 Q341 -4 260 -5 Z " />
<glyph glyph-name="uacute" unicode="&#xfa;" horiz-adv-x="476" d="M248 614 L285 766 L387 766 L321 614 L248 614 Z M38 147 L38 554 L146 554 L146 159 Q146 127 178 110 Q195 101 216 101 L216 -5 Q119 -5 65 71 Q38 110 38 147 Z M260 -5 L260 101 Q310 101 326 140 Q330 150 330 159 L330 554 L438 554 L438 147 Q438 100 396 54 Q341 -4 260 -5 Z " />
<glyph glyph-name="ucircumflex" unicode="&#xfb;" horiz-adv-x="476" d="M134 614 L209 766 L265 766 L342 614 L273 614 L237 687 L202 614 L134 614 Z M38 147 L38 554 L146 554 L146 159 Q146 127 178 110 Q195 101 216 101 L216 -5 Q119 -5 65 71 Q38 110 38 147 Z M260 -5 L260 101 Q310 101 326 140 Q330 150 330 159 L330 554 L438 554 L438 147 Q438 100 396 54 Q341 -4 260 -5 Z " />
<glyph glyph-name="udieresis" unicode="&#xfc;" horiz-adv-x="476" d="M102 674 Q102 712 136 729 Q149 736 163 736 Q202 736 218 700 Q224 687 224 674 Q224 635 190 619 Q177 613 163 613 Q124 613 108 648 Q102 661 102 674 Z M252 674 Q252 712 286 729 Q299 736 313 736 Q352 736 368 700 Q374 687 374 674 Q374 635 340 619 Q327 613 313 613 Q274 613 258 648 Q252 661 252 674 Z M38 147 L38 554 L146 554 L146 159 Q146 127 178 110 Q195 101 216 101 L216 -5 Q119 -5 65 71 Q38 110 38 147 Z M260 -5 L260 101 Q310 101 326 140 Q330 150 330 159 L330 554 L438 554 L438 147 Q438 100 396 54 Q341 -4 260 -5 Z " />
<glyph glyph-name="ugrave" unicode="&#xf9;" horiz-adv-x="476" d="M135 766 L237 766 L274 614 L201 614 L135 766 Z M38 147 L38 554 L146 554 L146 159 Q146 127 178 110 Q195 101 216 101 L216 -5 Q119 -5 65 71 Q38 110 38 147 Z M260 -5 L260 101 Q310 101 326 140 Q330 150 330 159 L330 554 L438 554 L438 147 Q438 100 396 54 Q341 -4 260 -5 Z " />
<glyph glyph-name="uhungarumlaut" unicode="&#x171;" horiz-adv-x="476" d="M277 614 L314 766 L416 766 L350 614 L277 614 Z M138 614 L175 766 L277 766 L211 614 L138 614 Z M38 147 L38 554 L146 554 L146 159 Q146 127 178 110 Q195 101 216 101 L216 -5 Q119 -5 65 71 Q38 110 38 147 Z M260 -5 L260 101 Q310 101 326 140 Q330 150 330 159 L330 554 L438 554 L438 147 Q438 100 396 54 Q341 -4 260 -5 Z " />
<glyph glyph-name="umacron" unicode="&#x16b;" horiz-adv-x="476" d="M80 614 L80 680 L396 680 L396 614 L80 614 Z M38 147 L38 554 L146 554 L146 159 Q146 127 178 110 Q195 101 216 101 L216 -5 Q119 -5 65 71 Q38 110 38 147 Z M260 -5 L260 101 Q310 101 326 140 Q330 150 330 159 L330 554 L438 554 L438 147 Q438 100 396 54 Q341 -4 260 -5 Z " />
<glyph glyph-name="underscore" unicode="&#x5f;" horiz-adv-x="516" d="M33 -118 L483 -118 L483 -205 L33 -205 L33 -118 Z " />
<glyph glyph-name="uni00AD" unicode="&#xad;" horiz-adv-x="376" d="M27 243 L27 344 L343 344 L343 243 L27 243 Z " />
<glyph glyph-name="uni00B5" unicode="&#xb5;" horiz-adv-x="500" d="M44 0 L144 0 L144 204 Q187 191 210 191 L210 288 Q158 288 146 314 Q144 319 144 323 L144 698 L44 698 L44 0 Z M252 191 Q320 192 365 226 Q404 193 460 193 L460 290 Q419 291 418 324 L418 700 L319 700 L319 323 Q319 302 285 292 Q269 288 252 288 L252 191 Z " />
<glyph glyph-name="uni0122" unicode="&#x122;" horiz-adv-x="509" d="M185 -218 L222 -66 L323 -66 L286 -218 L185 -218 Z M39 192 Q39 80 138 24 Q189 -5 236 -5 L236 106 Q211 106 182 128 Q151 154 150 192 L150 508 Q150 549 184 576 Q207 593 236 594 L236 705 Q127 705 69 611 Q43 567 39 524 L39 192 Z M287 -5 Q351 -4 414 57 Q473 117 474 176 L474 353 L287 353 L287 250 L361 250 L361 190 Q361 146 315 117 Q298 106 287 106 L287 -5 Z M287 594 Q324 593 348 559 Q362 537 364 508 L364 476 L474 516 Q474 593 410 653 Q353 705 287 705 L287 594 Z " />
<glyph glyph-name="uni0123" unicode="&#x123;" horiz-adv-x="449" d="M230 620 L267 772 L369 772 L303 620 L230 620 Z M23 -187 L48 -89 L241 -89 Q288 -87 305 -50 Q309 -42 309 -36 L309 24 Q269 6 243 5 L243 104 Q287 104 304 138 Q309 148 309 157 L309 407 Q309 434 278 451 Q261 460 243 460 L243 559 Q278 559 309 540 L309 559 L412 559 L412 -36 Q412 -79 373 -126 Q322 -186 248 -187 L23 -187 Z M33 155 L33 411 Q34 458 75 504 Q125 558 200 559 L200 460 Q157 460 139 424 Q134 415 134 408 L134 156 Q134 130 163 114 Q180 105 200 105 L200 5 Q107 6 57 84 Q33 122 33 155 Z " />
<glyph glyph-name="uni0136" unicode="&#x136;" horiz-adv-x="489" d="M172 -213 L209 -61 L310 -61 L273 -213 L172 -213 Z M41 0 L41 700 L153 700 L153 0 L41 0 Z M195 341 L355 700 L468 700 L308 341 L472 0 L360 0 L195 341 Z " />
<glyph glyph-name="uni0137" unicode="&#x137;" horiz-adv-x="488" d="M170 -213 L207 -61 L308 -61 L271 -213 L170 -213 Z M41 0 L41 711 L151 711 L151 0 L41 0 Z M178 279 L345 554 L467 554 L297 279 L468 0 L347 0 L178 279 Z " />
<glyph glyph-name="uni013B" unicode="&#x13b;" horiz-adv-x="434" d="M158 -213 L195 -61 L296 -61 L259 -213 L158 -213 Z M41 0 L41 700 L153 700 L153 110 L417 110 L417 0 L41 0 Z " />
<glyph glyph-name="uni013C" unicode="&#x13c;" horiz-adv-x="198" d="M21 -219 L58 -67 L159 -67 L122 -219 L21 -219 Z M53 0 L53 711 L167 711 L167 0 L53 0 Z " />
<glyph glyph-name="uni0145" unicode="&#x145;" horiz-adv-x="529" d="M192 -213 L229 -61 L330 -61 L293 -213 L192 -213 Z M42 0 L42 522 L50 522 L154 355 L154 0 L42 0 Z M42 628 L42 700 L135 700 L487 135 L487 0 L433 0 L42 628 Z M375 408 L375 700 L487 700 L487 241 L479 241 L375 408 Z " />
<glyph glyph-name="uni0146" unicode="&#x146;" horiz-adv-x="476" d="M166 -213 L203 -61 L304 -61 L267 -213 L166 -213 Z M38 0 L38 404 Q38 452 82 499 Q136 555 216 556 L216 450 Q170 450 152 414 Q146 402 146 391 L146 0 L38 0 Z M260 450 L260 556 Q355 556 409 479 Q438 439 438 404 L438 0 L330 0 L330 391 Q330 421 301 439 Q283 450 260 450 Z " />
<glyph glyph-name="uni0156" unicode="&#x156;" horiz-adv-x="506" d="M188 -213 L225 -61 L326 -61 L289 -213 L188 -213 Z M42 0 L42 700 L154 700 L154 0 L42 0 Z M205 295 L205 395 L261 395 Q348 395 357 478 Q358 487 358 495 Q358 579 282 594 Q268 596 253 596 L205 596 L205 700 L266 700 Q399 697 445 601 Q464 561 464 509 Q463 398 396 348 Q448 318 462 241 Q464 228 465 217 L482 0 L378 0 L363 178 Q355 262 318 284 Q296 295 263 295 L205 295 Z " />
<glyph glyph-name="uni0157" unicode="&#x157;" horiz-adv-x="324" d="M8 -213 L45 -61 L146 -61 L109 -213 L8 -213 Z M42 0 L42 554 L150 554 L150 485 Q178 529 234 548 Q260 557 285 557 L311 557 L286 452 Q227 451 183 395 Q150 352 150 306 L150 0 L42 0 Z " />
<glyph glyph-name="uni015E" unicode="&#x15e;" horiz-adv-x="487" d="M112 -191 L112 -116 Q176 -116 191 -67 Q195 -54 195 -40 L272 -40 Q272 -123 211 -164 Q171 -191 112 -191 Z M23 158 L124 194 Q130 129 195 104 Q207 100 207 100 L207 -3 Q121 -3 61 71 Q24 118 23 158 Z M31 510 Q31 619 125 674 Q169 699 207 700 L207 595 Q176 590 153 559 Q138 537 138 512 Q138 460 213 429 Q231 422 269 410 Q317 395 336 386 Q423 343 449 284 Q464 249 464 207 Q464 119 396 54 Q335 -3 259 -3 L259 100 Q297 102 327 136 Q352 166 352 205 Q352 266 267 297 Q249 304 211 315 Q169 327 154 334 Q70 371 46 429 Q31 464 31 510 Z M259 595 L259 700 Q345 700 403 626 Q434 586 436 553 L333 519 Q329 549 310.5 568 Q292 587 276 591 L259 595 Z " />
<glyph glyph-name="uni015F" unicode="&#x15f;" horiz-adv-x="443" d="M125 -191 L125 -116 Q189 -116 204 -67 Q208 -54 208 -40 L285 -40 Q285 -123 224 -164 Q184 -191 125 -191 Z M20 146 L119 164 Q119 125 160 105 Q178 96 195 96 L195 -5 Q89 -5 42 70 Q20 106 20 146 Z M25 400 Q25 492 110 537 Q151 558 192 558 L192 459 Q144 459 128 421 Q124 410 124 400 Q124 370 176 347 Q220 329 310 308 Q379 294 408 237 Q423 206 423 169 Q423 70 343 23 Q297 -5 238 -5 L238 95 Q278 95 304 122 Q320 141 320 164 Q320 199 242 223 Q226 228 192 237 Q141 249 120 257 Q46 290 30 354 Q25 375 25 400 Z M237 459 L237 558 Q325 558 379 493 Q413 451 413 405 L314 388 Q314 439 259 455 Q247 459 237 459 Z " />
<glyph glyph-name="uni0162" unicode="&#x162;" horiz-adv-x="466" d="M110 -191 L110 -116 Q174 -116 189 -67 Q193 -54 193 -40 L270 -40 Q270 -123 209 -164 Q169 -191 110 -191 Z M16 591 L16 700 L449 700 L449 591 L289 591 L289 0 L177 0 L177 591 L16 591 Z " />
<glyph glyph-name="uni0163" unicode="&#x163;" horiz-adv-x="303" d="M135 -190 L135 -115 Q199 -115 214 -66 Q218 -53 218 -39 L295 -39 Q295 -122 234 -163 Q194 -190 135 -190 Z M16 448 L16 551 L84 551 L84 711 L190 711 L190 551 L256 551 L256 447 L190 447 L191 170 Q193 110 251 109 L272 109 L296 0 L249 0 Q122 0 94 97 Q84 132 84 180 L84 448 L16 448 Z " />
<glyph glyph-name="uni0218" unicode="&#x218;" horiz-adv-x="487" d="M159 -216 L196 -64 L297 -64 L260 -216 L159 -216 Z M23 158 L124 194 Q130 129 195 104 Q207 100 207 100 L207 -3 Q121 -3 61 71 Q24 118 23 158 Z M31 510 Q31 619 125 674 Q169 699 207 700 L207 595 Q176 590 153 559 Q138 537 138 512 Q138 460 213 429 Q231 422 269 410 Q317 395 336 386 Q423 343 449 284 Q464 249 464 207 Q464 119 396 54 Q335 -3 259 -3 L259 100 Q297 102 327 136 Q352 166 352 205 Q352 266 267 297 Q249 304 211 315 Q169 327 154 334 Q70 371 46 429 Q31 464 31 510 Z M259 595 L259 700 Q345 700 403 626 Q434 586 436 553 L333 519 Q329 549 310.5 568 Q292 587 276 591 L259 595 Z " />
<glyph glyph-name="uni0219" unicode="&#x219;" horiz-adv-x="443" d="M140 -218 L177 -66 L278 -66 L241 -218 L140 -218 Z M20 146 L119 164 Q119 125 160 105 Q178 96 195 96 L195 -5 Q89 -5 42 70 Q20 106 20 146 Z M25 400 Q25 492 110 537 Q151 558 192 558 L192 459 Q144 459 128 421 Q124 410 124 400 Q124 370 176 347 Q220 329 310 308 Q379 294 408 237 Q423 206 423 169 Q423 70 343 23 Q297 -5 238 -5 L238 95 Q278 95 304 122 Q320 141 320 164 Q320 199 242 223 Q226 228 192 237 Q141 249 120 257 Q46 290 30 354 Q25 375 25 400 Z M237 459 L237 558 Q325 558 379 493 Q413 451 413 405 L314 388 Q314 439 259 455 Q247 459 237 459 Z " />
<glyph glyph-name="uni021A" unicode="&#x21a;" horiz-adv-x="466" d="M147 -213 L184 -61 L285 -61 L248 -213 L147 -213 Z M16 591 L16 700 L449 700 L449 591 L289 591 L289 0 L177 0 L177 591 L16 591 Z " />
<glyph glyph-name="uni021B" unicode="&#x21b;" horiz-adv-x="303" d="M173 -213 L210 -61 L311 -61 L274 -213 L173 -213 Z M16 448 L16 551 L84 551 L84 711 L190 711 L190 551 L256 551 L256 447 L190 447 L191 170 Q193 110 251 109 L272 109 L296 0 L249 0 Q122 0 94 97 Q84 132 84 180 L84 448 L16 448 Z " />
<glyph glyph-name="uni02C9" unicode="&#x2c9;" horiz-adv-x="416" d="M50 522 L50 588 L366 588 L366 522 L50 522 Z " />
<glyph glyph-name="uni2113" unicode="&#x2113;" horiz-adv-x="193" d="M48 185 L48 699 L153 699 L153 185 Q154 123 206 108 Q215 105 222 105 L222 -6 Q160 -6 109 39 Q48 93 48 185 Z " />
<glyph glyph-name="uni2126" unicode="&#x2126;" horiz-adv-x="458" d="M27 0 L27 55 L84 55 Q43 97 42 143 L42 378 Q42 426 84 469 Q133 518 206 518 L206 423 Q155 423 142 382 Q139 374 139 365 L139 156 Q139 119 173 103 Q188 96 206 96 L206 0 L27 0 Z M257 0 L257 96 Q309 96 321 139 Q323 148 323 156 L323 365 Q323 398 292 415 Q276 423 257 423 L257 518 Q350 518 397 445 Q420 410 420 378 L420 143 Q420 101 382 58 Q380 56 379 55 L435 55 L435 0 L257 0 Z " />
<glyph glyph-name="uni2206" unicode="&#x2206;" horiz-adv-x="597" d="M66 0 L220 587 L229 587 L273 423 L188 100 L407 100 L249 702 L346 702 L531 0 L66 0 Z " />
<glyph glyph-name="uni2215" unicode="&#x2215;" horiz-adv-x="533" d="M18 -1 L450 701 L515 701 L88 -1 L18 -1 Z " />
<glyph glyph-name="uni2219" unicode="&#x2219;" horiz-adv-x="250" d="M33 429 Q33 469 68 487 Q82 494 97 494 Q137 494 155 458 Q162 444 162 429 Q162 389 126 371 Q112 364 97 364 Q59 364 41 398 Q33 413 33 429 Z " />
<glyph glyph-name="uni5713" unicode="&#x5713;" horiz-adv-x="843" d="M50 488 L50 698 L89 698 L89 612 L101 612 L101 574 L89 574 L89 488 L50 488 Z M117 574 L117 612 L130 612 L130 698 L169 698 L169 488 L130 488 L130 574 L117 574 Z M198 488 L198 698 L237 698 L237 488 L198 488 Z M252 608 L286 698 L325 698 L291 608 L326 488 L287 488 L252 608 Z M348 158 L449 194 Q457 129 521 104 Q532 100 532 100 L532 -47 L473 -47 L473 9 Q404 33 366 102 Q349 133 348 158 Z M356 510 Q356 616 448 671 Q461 679 473 684 L473 750 L532 750 L532 595 Q501 590 478 559 Q463 537 463 512 Q464 462 532 435 L532 315 Q497 326 479 334 Q395 371 371 429 Q356 464 356 510 Z M584 -47 L584 100 Q622 102 652 136 Q677 166 677 205 Q677 262 599 292 Q592 294 584 297 L584 414 Q630 401 661 386 Q748 343 774 284 Q789 249 789 207 Q789 119 720 55 Q685 23 643 8 L643 -47 L584 -47 Z M584 595 L584 750 L643 750 L643 686 Q710 660 748 588 Q758 567 761 553 L657 519 Q652 549 633.5 568 Q615 587 600 591 L584 595 Z " />
<glyph glyph-name="uogonek" unicode="&#x173;" horiz-adv-x="476" d="M361 -191 Q249 -191 213 -103 Q201 -73 201 -40 L278 -40 Q278 -102 338 -114 Q350 -116 361 -116 L361 -191 Z M38 147 L38 554 L146 554 L146 159 Q146 127 178 110 Q195 101 216 101 L216 -5 Q119 -5 65 71 Q38 110 38 147 Z M260 -5 L260 101 Q310 101 326 140 Q330 150 330 159 L330 554 L438 554 L438 147 Q438 100 396 54 Q341 -4 260 -5 Z " />
<glyph glyph-name="uring" unicode="&#x16f;" horiz-adv-x="476" d="M150 710 Q150 758 192 785 Q214 798 238 798 Q286 798 313 756 Q326 734 326 710 Q326 662 284 635 Q262 622 238 622 Q190 622 163 664 Q150 686 150 710 Z M206 710 Q206 686 228 679 Q234 678 238 678 Q262 678 269 700 Q270 706 270 710 Q270 734 248 741 Q242 742 238 742 Q214 742 207 720 Q206 714 206 710 Z M38 147 L38 554 L146 554 L146 159 Q146 127 178 110 Q195 101 216 101 L216 -5 Q119 -5 65 71 Q38 110 38 147 Z M260 -5 L260 101 Q310 101 326 140 Q330 150 330 159 L330 554 L438 554 L438 147 Q438 100 396 54 Q341 -4 260 -5 Z " />
<glyph glyph-name="v" unicode="v" horiz-adv-x="432" d="M8 554 L127 554 L278 107 L243 0 L183 0 L8 554 Z M236 348 L305 554 L424 554 L304 189 L291 189 L236 348 Z " />
<glyph glyph-name="visarga" unicode="&#xd83;" horiz-adv-x="387" d="M218 -7 L218 80 Q256 80 265 117 Q266 124 266 130 Q266 165 237 177 Q228 180 218 180 L218 263 L232 263 Q311 263 343 193 Q356 163 356 129 Q356 56 306 17 Q274 -7 232 -7 L218 -7 Z M155 -7 Q77 -7 45 63 Q31 94 31 129 Q31 204 83 241 Q114 263 155 263 L169 263 L169 180 Q133 180 122 146 Q120 138 120 130 Q120 95 150 83 Q159 80 169 80 L169 -7 L155 -7 Z M218 298 L218 385 Q256 385 265 422 Q266 429 266 435 Q266 470 237 482 Q228 485 218 485 L218 568 L232 568 Q311 568 343 498 Q356 468 356 434 Q356 361 306 322 Q274 298 232 298 L218 298 Z M155 298 Q77 298 45 368 Q31 399 31 434 Q31 509 83 546 Q114 568 155 568 L169 568 L169 485 Q133 485 122 451 Q120 443 120 435 Q120 400 150 388 Q159 385 169 385 L169 298 L155 298 Z " />
<glyph glyph-name="w" unicode="w" horiz-adv-x="723" d="M8 554 L184 0 L244 0 L278 107 L127 554 L8 554 Z M236 349 L291 189 L304 189 L361 368 L478 0 L538 0 L572 107 L421 554 L302 554 L236 349 Z M531 349 L585 189 L598 189 L715 554 L596 554 L531 349 Z " />
<glyph glyph-name="x" unicode="x" horiz-adv-x="405" d="M8 0 L143 281 L11 554 L120 554 L203 397 L284 554 L394 554 L264 281 L397 0 L288 0 L203 166 L117 0 L8 0 Z " />
<glyph glyph-name="y" unicode="y" horiz-adv-x="418" d="M6 554 L120 554 L263 121 L158 -195 L48 -195 L147 123 L6 554 Z M233 367 L302 554 L415 554 L291 210 L280 210 L233 367 Z " />
<glyph glyph-name="yacute" unicode="&#xfd;" horiz-adv-x="418" d="M219 619 L256 771 L358 771 L292 619 L219 619 Z M6 554 L120 554 L263 121 L158 -195 L48 -195 L147 123 L6 554 Z M233 367 L302 554 L415 554 L291 210 L280 210 L233 367 Z " />
<glyph glyph-name="ydieresis" unicode="&#xff;" horiz-adv-x="418" d="M73 680 Q73 718 107 735 Q120 742 134 742 Q173 742 189 706 Q195 693 195 680 Q195 641 161 625 Q148 619 134 619 Q95 619 79 654 Q73 667 73 680 Z M223 680 Q223 718 257 735 Q270 742 284 742 Q323 742 339 706 Q345 693 345 680 Q345 641 311 625 Q298 619 284 619 Q245 619 229 654 Q223 667 223 680 Z M6 554 L120 554 L263 121 L158 -195 L48 -195 L147 123 L6 554 Z M233 367 L302 554 L415 554 L291 210 L280 210 L233 367 Z " />
<glyph glyph-name="yen" unicode="&#xa5;" horiz-adv-x="450" d="M177 0 L286 0 L286 214 L440 214 L440 266 L291 266 L306 318 L440 318 L440 370 L322 370 L422 698 L312 698 L233 444 L151 698 L41 698 L141 370 L17 370 L17 318 L157 318 L173 266 L17 266 L17 214 L177 214 L177 0 Z " />
<glyph glyph-name="z" unicode="z" horiz-adv-x="377" d="M30 0 L30 104 L227 450 L30 450 L30 554 L347 554 L347 452 L154 104 L347 104 L347 0 L30 0 Z " />
<glyph glyph-name="zacute" unicode="&#x17a;" horiz-adv-x="377" d="M152 614 L189 766 L291 766 L225 614 L152 614 Z M30 0 L30 104 L227 450 L30 450 L30 554 L347 554 L347 452 L154 104 L347 104 L347 0 L30 0 Z " />
<glyph glyph-name="zcaron" unicode="&#x17e;" horiz-adv-x="377" d="M85 766 L153 766 L188 693 L224 766 L293 766 L216 614 L160 614 L85 766 Z M30 0 L30 104 L227 450 L30 450 L30 554 L347 554 L347 452 L154 104 L347 104 L347 0 L30 0 Z " />
<glyph glyph-name="zdotaccent" unicode="&#x17c;" horiz-adv-x="377" d="M127 676 Q127 716 161 733 Q175 739 189 739 Q228 739 245 704 Q251 690 251 676 Q251 636 216 620 Q203 614 189 614 Q149 614 133 649 Q127 662 127 676 Z M30 0 L30 104 L227 450 L30 450 L30 554 L347 554 L347 452 L154 104 L347 104 L347 0 L30 0 Z " />
<glyph glyph-name="zero" unicode="0" horiz-adv-x="501" d="M222 0 L222 106 Q162 118 146 253 Q141 293 141 339 L141 372 Q142 537 197 581 Q209 591 222 593 L222 699 Q106 698 60 557 Q33 475 33 351 Q33 57 173 8 Q196 0 222 0 Z M279 0 Q397 1 442 147 Q468 229 468 351 Q468 638 332 689 Q307 699 279 699 L279 593 Q335 584 354 466 Q361 422 361 372 L361 339 Q360 125 279 106 L279 0 Z " />
<glyph glyph-name="zwj" unicode="&#x200d;" d="M-48 3 L48 3 L48 551 L135 489 L180 551 L66 633 L176 713 L130 773 L0 680 L-130 773 L-180 713 L-67 633 L-182 551 L-130 489 L-48 549 L-48 3 Z " />
<glyph glyph-name="zwnj" unicode="&#x200c;" d="M-51 2 L-51 741 L48 741 L48 2 L-51 2 Z " />
</font>
</svg>
