<?xml version="1.0" encoding="utf-8"?>
<!-- Generator: Adobe Illustrator 21.1.0, SVG Export Plug-In . SVG Version: 6.00 Build 0)  -->
<svg version="1.1" id="Layer_1" xmlns="http://www.w3.org/2000/svg" xmlns:xlink="http://www.w3.org/1999/xlink" x="0px" y="0px"
	 viewBox="0 0 112.4 73.6" style="enable-background:new 0 0 112.4 73.6;" xml:space="preserve">
<style type="text/css">
	.st0{fill:#316BB4;}
</style>
<g>
	<path class="st0" d="M17.5,41.5l2.8,3c0,0,1-1.8,3.6-1.8s4.2,0.7,4.2,3.2c0,1.9-3.3,5.8-8.2,9.2c-0.4,0.3-1.6,0.8-2.1,0.9
		c-0.1,0-0.2,0-0.3,0v4.3h14.7V56l-7.6-0.1c0,0,4.4-2.6,6.7-7.6c2.1-4.7-0.7-7.8-2.1-8.7C28.3,39.1,22.5,36,17.5,41.5z"/>
	<circle class="st0" cx="46.9" cy="49.9" r="10.7"/>
	<polygon class="st0" points="61,44.4 64,47.3 66.9,44.4 66.9,60.2 71.5,60.2 71.5,38.5 67,38.3 	"/>
	<g>
		<path class="st0" d="M27.1,17.1l1.9,1.4L27.9,20c0.8,0.9,1.1,1.9,1.1,3c0,1.3-0.5,3.1-2.2,3.8c1.7,0.9,2.1,2.1,2.1,3.4
			c0,2.8-2.2,4.6-5.2,4.6s-5.2-1.8-5.2-4.6h2.5c0,1.3,1.2,2.2,2.7,2.2c1.5,0,2.6-0.8,2.6-2.2c0-1.4-1.3-2.1-2.6-2.1
			c-3.2,0-5.2-2-5.2-5.2c0-3.2,2.3-5.2,5.2-5.2c0.8,0,1.6,0.1,2.4,0.6L27.1,17.1z M21.1,23c0,1.8,1.2,2.9,2.7,2.9
			c1.5,0,2.7-1.1,2.7-2.9c0-1.8-1.2-2.9-2.7-2.9C22.3,20.1,21.1,21.2,21.1,23z"/>
		<path class="st0" d="M32.9,18.1l0.2,1.2c0.8-1.3,1.9-1.5,2.9-1.5c1.1,0,2.1,0.4,2.6,1l-1.1,2.2c-0.5-0.4-1-0.7-1.8-0.7
			c-1.3,0-2.6,0.7-2.6,2.6v5.4h-2.5V18.1H32.9z"/>
		<path class="st0" d="M49.8,23.3c0,3-2,5.4-5.4,5.4c-3.3,0-5.3-2.4-5.3-5.4c0-2.9,2-5.4,5.3-5.4S49.8,20.3,49.8,23.3z M41.7,23.3
			c0,1.6,0.9,3,2.8,3c1.9,0,2.8-1.5,2.8-3c0-1.5-1.1-3-2.8-3C42.7,20.2,41.7,21.7,41.7,23.3z"/>
		<path class="st0" d="M54.2,18.1v5.4c0,1.6,0.9,2.8,2.5,2.8c1.6,0,2.6-1.3,2.6-2.9v-5.3h2.5v10.3h-2.3L59.4,27
			c-1.1,1-2,1.5-3.5,1.5c-2.5,0-4.3-1.9-4.3-5v-5.4H54.2z"/>
		<path class="st0" d="M64.1,32.7V18.1h2.4l0.2,1.4c0.8-1.1,2.2-1.6,3.3-1.6c3.2,0,5.3,2.4,5.3,5.4c0,3-1.9,5.4-5.2,5.4
			c-1.1,0-2.7-0.3-3.4-1.5v5.5H64.1z M72.7,23.3c0-1.6-1.1-2.9-2.9-2.9c-1.8,0-2.9,1.3-2.9,2.9s1.2,2.9,2.9,2.9
			C71.5,26.2,72.7,24.9,72.7,23.3z"/>
		<path class="st0" d="M91.6,23.3c0,3-2,5.4-5.4,5.4c-3.3,0-5.3-2.4-5.3-5.4c0-2.9,2-5.4,5.3-5.4S91.6,20.3,91.6,23.3z M83.4,23.3
			c0,1.6,0.9,3,2.8,3c1.9,0,2.8-1.5,2.8-3c0-1.5-1.1-3-2.8-3C84.4,20.2,83.4,21.7,83.4,23.3z"/>
		<path class="st0" d="M94.2,28.4v-7.9h-1.9v-2.2h1.9v-0.7c0-2.8,1.9-4,3.9-4c0.9,0,1.8,0.3,2.7,0.8l-0.9,1.9
			c-0.5-0.4-1-0.5-1.6-0.5c-0.9,0-1.5,0.6-1.5,1.8v0.7h3v2.2h-3v7.9H94.2z"/>
	</g>
	<g>
		<path class="st0" d="M88.7,49.3c0.5,0,1.1,0,1.7,0.1l1.1-3.7c-2.4,0.6-4.1,0.3-4.9,0.1l1.1,3.5C88.1,49.3,88.4,49.3,88.7,49.3z
			 M87.5,46.5c0.1-0.1,0.2-0.1,0.3-0.1c0,0,2.2,0,2.8,0c0.1,0,0.2,0,0.3,0.1c0.1,0.1,0.1,0.2,0,0.3l-0.7,1.9c0,0.1-0.2,0.2-0.3,0.2
			h-1.5c-0.1,0-0.3-0.1-0.3-0.2l-0.6-1.9C87.4,46.7,87.5,46.6,87.5,46.5z"/>
		<path class="st0" d="M79.8,44.7c0.3,0.7,0.5,0.9,0.6,1c3-2.8,5.9-3.7,8.5-3.7c-0.1-0.2-0.2-0.3-0.4-0.5c-0.6-0.6-0.5-2,0.7-2
			c1.3,0,1.4,1.5,0.8,2.1c-0.3,0.3-0.4,0.4-0.5,0.5c1.2,0.1,2.2,0.3,3.1,0.6c3.2,1.1,5.3,3.1,5.4,3.2c0,0,0,0,0,0
			c0.1-0.1,0.3-0.3,0.5-1c0.2-0.7,0.7-0.8,1-0.8c-2-3.7-5.8-6.2-10.3-6.2c-4.4,0-8.2,2.4-10.2,6C79.2,43.9,79.6,44.1,79.8,44.7z"/>
		<path class="st0" d="M93,47.2l-0.4,1.3c0.3,0.1,0.7,0.2,1,0.2l0.9-1.2C93.9,47.5,93.3,47.3,93,47.2z"/>
		<path class="st0" d="M92.7,43.4c1.6,1,2.8,2.3,2.8,2.4c0,0,0.1,0.1,0.1,0.1c0.4,0,0.9,0,1.3,0C96.2,45.2,94.7,44.1,92.7,43.4z"/>
		<path class="st0" d="M96.8,46.5c-0.3,0-0.5,0-0.8,0c-1.7,0-3.1-0.6-3.7-0.9l-1.2,3.7c0.9,0.1,1.8,0.3,2.8,0.5L96.8,46.5z
			 M93.7,49.4C93.7,49.4,93.6,49.4,93.7,49.4c-0.4-0.1-1.4-0.3-1.6-0.3c-0.1,0-0.2-0.1-0.2-0.1s-0.1-0.2,0-0.3l0.6-2
			c0.1-0.2,0.2-0.3,0.4-0.2c0,0,1.6,0.4,2.2,0.5c0.1,0,0.2,0.1,0.3,0.2c0,0.1,0,0.2,0,0.3L94,49.3C93.9,49.4,93.8,49.4,93.7,49.4z"
			/>
		<path class="st0" d="M87.2,49.4L86,45.7c-1.7,0.9-3.6,0.9-4.6,0.7l2.9,3.5C84.7,49.8,85.7,49.5,87.2,49.4z M83,47.2
			c0-0.1,0.1-0.2,0.3-0.2c0.6-0.1,2.2-0.5,2.2-0.5c0.2,0,0.3,0.1,0.4,0.2l0.6,2c0,0.1,0,0.2,0,0.3c0,0.1-0.1,0.1-0.2,0.1
			c-0.2,0-1.2,0.2-1.5,0.3c0,0,0,0-0.1,0c-0.1,0-0.2,0-0.3-0.1L83,47.5C83,47.4,82.9,47.3,83,47.2z"/>
		<path class="st0" d="M89.6,48.3l0.5-1.3c-0.6,0-1.4,0-1.9,0l0.4,1.3H89.6z"/>
		<path class="st0" d="M94.7,45.8c-0.7-0.7-2.1-1.9-3.6-2.5c0.5,0.5,1,1.1,1.3,1.7C92.6,45.2,93.5,45.6,94.7,45.8z"/>
		<path class="st0" d="M85.7,48.6l-0.4-1.3c-0.4,0.1-1,0.2-1.5,0.3l0.9,1.2C85,48.7,85.4,48.6,85.7,48.6z"/>
		<path class="st0" d="M89.1,42.7c-0.5,0.3-1.9,1.2-2.5,2.4c0.6,0.2,2.2,0.6,5-0.1C91.1,43.9,89.6,43,89.1,42.7z"/>
		<path class="st0" d="M82.8,45.9c0.2-0.5,1-1.7,2.7-2.7c-1.4,0.5-2.8,1.3-4.2,2.5C81.6,45.8,82.1,45.9,82.8,45.9z"/>
		<path class="st0" d="M93.3,51c3.3,0.7,5.7,2,6.7,2.6c0.5-1.3,0.7-2.6,0.7-4c0-1.6-0.3-3.1-0.9-4.5c-0.1,0.1-0.2,0.2-0.5,0.3
			c-0.8,0.2-1.6,1-1.6,1l0,0l-3.5,4.1c-0.1,0.1-0.2,0.1-0.2,0.1c0,0-0.1,0-0.1,0c-6-1.5-9.6,0-9.7,0c-0.1,0.1-0.3,0-0.4-0.1
			l-3.6-4.3c-0.2-0.2-0.9-0.7-1.6-0.9c-0.2,0-0.3-0.1-0.4-0.2c-0.6,1.4-0.9,2.9-0.9,4.5c0,1.4,0.3,2.8,0.7,4
			C83.9,50,89.5,50.2,93.3,51z"/>
		<path class="st0" d="M83.5,45.8c0.8-0.1,1.6-0.3,2.4-0.8c0.3-0.8,0.9-1.5,1.5-2C85.1,43.8,84,45.1,83.5,45.8z"/>
		<path class="st0" d="M85.1,55.7c-2.1,0.5-3.7,1.3-4.5,1.8c2.1,2.3,5.1,3.7,8.5,3.7c3.3,0,6.3-1.4,8.4-3.6
			C92.3,54.9,87.9,55,85.1,55.7z"/>
		<path class="st0" d="M85.9,53.8c0.1,0.1,0.3,0.1,0.4,0.1c0.2,0,0.3-0.1,0.4-0.2c0.1-0.1,0.1-0.3,0.1-0.6c0-0.2-0.1-0.4-0.2-0.5
			c-0.1-0.1-0.2-0.1-0.3-0.1c0,0-0.1,0-0.1,0c-0.2,0-0.3,0.1-0.4,0.2c-0.1,0.1-0.1,0.3-0.1,0.5C85.7,53.5,85.8,53.7,85.9,53.8z"/>
		<path class="st0" d="M89.6,52.8C89.6,52.8,89.6,52.7,89.6,52.8c0.1-0.1,0.1-0.1,0.1-0.2c0-0.1,0-0.1,0-0.1c0,0-0.1-0.1-0.1-0.1
			c0,0-0.1,0-0.3,0l-0.3,0l0,0.4l0.3,0C89.5,52.8,89.5,52.8,89.6,52.8z"/>
		<polygon class="st0" points="95.2,53.6 94.8,54.1 95.2,54.2 		"/>
		<path class="st0" d="M88.7,54.6c2.6,0,5.8,0.6,9.3,2.4c0.7-0.9,1.3-1.8,1.8-2.9c-0.8-0.5-3.3-1.8-6.6-2.5c-3.7-0.8-9.2-1-14.7,2.5
			c0.4,1,1,2,1.7,2.8c0.8-0.5,2.4-1.4,4.7-2C86,54.8,87.3,54.6,88.7,54.6z M96.7,53.8l0.2-0.5l1.7,0.7l-0.2,0.5l-0.6-0.3L97.1,56
			l-0.5-0.2l0.7-1.7L96.7,53.8z M95.2,52.8l0.5,0.2l0.1,2.5l-0.6-0.2l0-0.5l-0.7-0.3l-0.3,0.4l-0.6-0.2L95.2,52.8z M91.6,52l1.8,0.2
			l-0.1,0.5l-1.2-0.2l0,0.4l1.1,0.1l-0.1,0.5L92,53.4l-0.1,0.5l1.2,0.2l-0.1,0.5l-1.8-0.2L91.6,52z M88.3,51.9l1,0
			c0.2,0,0.4,0,0.5,0.1c0.1,0,0.2,0.1,0.3,0.2c0.1,0.1,0.1,0.2,0.1,0.4c0,0.2-0.1,0.3-0.2,0.5c-0.1,0.1-0.2,0.2-0.3,0.2
			c0,0,0.1,0.1,0.1,0.1c0.1,0.1,0.2,0.2,0.3,0.4l0.3,0.5l-0.7,0l-0.3-0.5c-0.1-0.2-0.2-0.3-0.2-0.3c0,0-0.1-0.1-0.1-0.1
			c0,0-0.1,0-0.2,0l0,0l0,0.9l-0.6,0L88.3,51.9z M85.1,52.8c0-0.1,0.1-0.2,0.2-0.4c0.1-0.1,0.2-0.2,0.3-0.3c0.1-0.1,0.3-0.1,0.5-0.2
			c0.3-0.1,0.6,0,0.9,0.2c0.2,0.2,0.4,0.5,0.4,0.8c0.1,0.4,0,0.7-0.2,0.9c-0.2,0.2-0.4,0.4-0.8,0.4c-0.1,0-0.2,0-0.2,0
			c-0.2,0-0.5-0.1-0.6-0.2c-0.2-0.2-0.4-0.5-0.4-0.8C85.1,53.2,85.1,53,85.1,52.8z M81.4,55.8L80.9,56l-1-2.1l1.5-0.7l0.2,0.5
			l-1,0.4l0.2,0.4l0.8-0.4l0.2,0.5L81,55L81.4,55.8z M83,55.2L82.3,53l0.6-0.2l0.5,1.7l1.1-0.3l0.1,0.5L83,55.2z"/>
	</g>
</g>
</svg>
